G04 #@! TF.GenerationSoftware,KiCad,Pcbnew,5.1.2+dfsg1-1*
G04 #@! TF.CreationDate,2019-07-22T14:37:20+02:00*
G04 #@! TF.ProjectId,art_controller_3200,6172745f-636f-46e7-9472-6f6c6c65725f,A*
G04 #@! TF.SameCoordinates,Original*
G04 #@! TF.FileFunction,Drawing*
%FSLAX46Y46*%
G04 Gerber Fmt 4.6, Leading zero omitted, Abs format (unit mm)*
G04 Created by KiCad (PCBNEW 5.1.2+dfsg1-1) date 2019-07-22 14:37:20*
%MOMM*%
%LPD*%
G04 APERTURE LIST*
%ADD10C,0.150000*%
%ADD11C,0.050000*%
%ADD12C,0.100000*%
G04 APERTURE END LIST*
D10*
X140732380Y-53762380D02*
X140160952Y-53762380D01*
X140446666Y-53762380D02*
X140446666Y-52762380D01*
X140351428Y-52905238D01*
X140256190Y-53000476D01*
X140160952Y-53048095D01*
X141351428Y-52762380D02*
X141446666Y-52762380D01*
X141541904Y-52810000D01*
X141589523Y-52857619D01*
X141637142Y-52952857D01*
X141684761Y-53143333D01*
X141684761Y-53381428D01*
X141637142Y-53571904D01*
X141589523Y-53667142D01*
X141541904Y-53714761D01*
X141446666Y-53762380D01*
X141351428Y-53762380D01*
X141256190Y-53714761D01*
X141208571Y-53667142D01*
X141160952Y-53571904D01*
X141113333Y-53381428D01*
X141113333Y-53143333D01*
X141160952Y-52952857D01*
X141208571Y-52857619D01*
X141256190Y-52810000D01*
X141351428Y-52762380D01*
X142637142Y-53762380D02*
X142065714Y-53762380D01*
X142351428Y-53762380D02*
X142351428Y-52762380D01*
X142256190Y-52905238D01*
X142160952Y-53000476D01*
X142065714Y-53048095D01*
X143065714Y-53667142D02*
X143113333Y-53714761D01*
X143065714Y-53762380D01*
X143018095Y-53714761D01*
X143065714Y-53667142D01*
X143065714Y-53762380D01*
X143732380Y-52762380D02*
X143827619Y-52762380D01*
X143922857Y-52810000D01*
X143970476Y-52857619D01*
X144018095Y-52952857D01*
X144065714Y-53143333D01*
X144065714Y-53381428D01*
X144018095Y-53571904D01*
X143970476Y-53667142D01*
X143922857Y-53714761D01*
X143827619Y-53762380D01*
X143732380Y-53762380D01*
X143637142Y-53714761D01*
X143589523Y-53667142D01*
X143541904Y-53571904D01*
X143494285Y-53381428D01*
X143494285Y-53143333D01*
X143541904Y-52952857D01*
X143589523Y-52857619D01*
X143637142Y-52810000D01*
X143732380Y-52762380D01*
X144541904Y-53762380D02*
X144732380Y-53762380D01*
X144827619Y-53714761D01*
X144875238Y-53667142D01*
X144970476Y-53524285D01*
X145018095Y-53333809D01*
X145018095Y-52952857D01*
X144970476Y-52857619D01*
X144922857Y-52810000D01*
X144827619Y-52762380D01*
X144637142Y-52762380D01*
X144541904Y-52810000D01*
X144494285Y-52857619D01*
X144446666Y-52952857D01*
X144446666Y-53190952D01*
X144494285Y-53286190D01*
X144541904Y-53333809D01*
X144637142Y-53381428D01*
X144827619Y-53381428D01*
X144922857Y-53333809D01*
X144970476Y-53286190D01*
X145018095Y-53190952D01*
X145399047Y-52857619D02*
X145446666Y-52810000D01*
X145541904Y-52762380D01*
X145780000Y-52762380D01*
X145875238Y-52810000D01*
X145922857Y-52857619D01*
X145970476Y-52952857D01*
X145970476Y-53048095D01*
X145922857Y-53190952D01*
X145351428Y-53762380D01*
X145970476Y-53762380D01*
X147160952Y-53762380D02*
X147160952Y-53095714D01*
X147160952Y-53190952D02*
X147208571Y-53143333D01*
X147303809Y-53095714D01*
X147446666Y-53095714D01*
X147541904Y-53143333D01*
X147589523Y-53238571D01*
X147589523Y-53762380D01*
X147589523Y-53238571D02*
X147637142Y-53143333D01*
X147732380Y-53095714D01*
X147875238Y-53095714D01*
X147970476Y-53143333D01*
X148018095Y-53238571D01*
X148018095Y-53762380D01*
X148494285Y-53762380D02*
X148494285Y-53095714D01*
X148494285Y-53190952D02*
X148541904Y-53143333D01*
X148637142Y-53095714D01*
X148780000Y-53095714D01*
X148875238Y-53143333D01*
X148922857Y-53238571D01*
X148922857Y-53762380D01*
X148922857Y-53238571D02*
X148970476Y-53143333D01*
X149065714Y-53095714D01*
X149208571Y-53095714D01*
X149303809Y-53143333D01*
X149351428Y-53238571D01*
X149351428Y-53762380D01*
X94234000Y-54610000D02*
X195326000Y-54610000D01*
X94234000Y-63754000D02*
X94234000Y-54023579D01*
X195326000Y-63754000D02*
X195326000Y-54023579D01*
X195326000Y-54610000D02*
X194199496Y-55196421D01*
X195326000Y-54610000D02*
X194199496Y-54023579D01*
X94234000Y-54610000D02*
X95360504Y-55196421D01*
X94234000Y-54610000D02*
X95360504Y-54023579D01*
X84337620Y-96139523D02*
X84337620Y-96806190D01*
X83337620Y-96377619D01*
X84337620Y-97091904D02*
X84337620Y-97710952D01*
X83956667Y-97377619D01*
X83956667Y-97520476D01*
X83909048Y-97615714D01*
X83861429Y-97663333D01*
X83766191Y-97710952D01*
X83528096Y-97710952D01*
X83432858Y-97663333D01*
X83385239Y-97615714D01*
X83337620Y-97520476D01*
X83337620Y-97234761D01*
X83385239Y-97139523D01*
X83432858Y-97091904D01*
X83432858Y-98139523D02*
X83385239Y-98187142D01*
X83337620Y-98139523D01*
X83385239Y-98091904D01*
X83432858Y-98139523D01*
X83337620Y-98139523D01*
X83337620Y-99139523D02*
X83337620Y-98568095D01*
X83337620Y-98853809D02*
X84337620Y-98853809D01*
X84194762Y-98758571D01*
X84099524Y-98663333D01*
X84051905Y-98568095D01*
X84337620Y-100044285D02*
X84337620Y-99568095D01*
X83861429Y-99520476D01*
X83909048Y-99568095D01*
X83956667Y-99663333D01*
X83956667Y-99901428D01*
X83909048Y-99996666D01*
X83861429Y-100044285D01*
X83766191Y-100091904D01*
X83528096Y-100091904D01*
X83432858Y-100044285D01*
X83385239Y-99996666D01*
X83337620Y-99901428D01*
X83337620Y-99663333D01*
X83385239Y-99568095D01*
X83432858Y-99520476D01*
X84242381Y-100472857D02*
X84290001Y-100520476D01*
X84337620Y-100615714D01*
X84337620Y-100853809D01*
X84290001Y-100949047D01*
X84242381Y-100996666D01*
X84147143Y-101044285D01*
X84051905Y-101044285D01*
X83909048Y-100996666D01*
X83337620Y-100425238D01*
X83337620Y-101044285D01*
X83337620Y-102234761D02*
X84004286Y-102234761D01*
X83909048Y-102234761D02*
X83956667Y-102282380D01*
X84004286Y-102377619D01*
X84004286Y-102520476D01*
X83956667Y-102615714D01*
X83861429Y-102663333D01*
X83337620Y-102663333D01*
X83861429Y-102663333D02*
X83956667Y-102710952D01*
X84004286Y-102806190D01*
X84004286Y-102949047D01*
X83956667Y-103044285D01*
X83861429Y-103091904D01*
X83337620Y-103091904D01*
X83337620Y-103568095D02*
X84004286Y-103568095D01*
X83909048Y-103568095D02*
X83956667Y-103615714D01*
X84004286Y-103710952D01*
X84004286Y-103853809D01*
X83956667Y-103949047D01*
X83861429Y-103996666D01*
X83337620Y-103996666D01*
X83861429Y-103996666D02*
X83956667Y-104044285D01*
X84004286Y-104139523D01*
X84004286Y-104282380D01*
X83956667Y-104377619D01*
X83861429Y-104425238D01*
X83337620Y-104425238D01*
X85090001Y-63754000D02*
X85090001Y-136906000D01*
X94234000Y-63754000D02*
X84503580Y-63754000D01*
X94234000Y-136906000D02*
X84503580Y-136906000D01*
X85090001Y-136906000D02*
X84503580Y-135779496D01*
X85090001Y-136906000D02*
X85676422Y-135779496D01*
X85090001Y-63754000D02*
X84503580Y-64880504D01*
X85090001Y-63754000D02*
X85676422Y-64880504D01*
X88147619Y-96663333D02*
X88147619Y-96472857D01*
X88100000Y-96377619D01*
X88052380Y-96330000D01*
X87909523Y-96234761D01*
X87719047Y-96187142D01*
X87338095Y-96187142D01*
X87242857Y-96234761D01*
X87195238Y-96282380D01*
X87147619Y-96377619D01*
X87147619Y-96568095D01*
X87195238Y-96663333D01*
X87242857Y-96710952D01*
X87338095Y-96758571D01*
X87576190Y-96758571D01*
X87671428Y-96710952D01*
X87719047Y-96663333D01*
X87766666Y-96568095D01*
X87766666Y-96377619D01*
X87719047Y-96282380D01*
X87671428Y-96234761D01*
X87576190Y-96187142D01*
X88147619Y-97091904D02*
X88147619Y-97710952D01*
X87766666Y-97377619D01*
X87766666Y-97520476D01*
X87719047Y-97615714D01*
X87671428Y-97663333D01*
X87576190Y-97710952D01*
X87338095Y-97710952D01*
X87242857Y-97663333D01*
X87195238Y-97615714D01*
X87147619Y-97520476D01*
X87147619Y-97234761D01*
X87195238Y-97139523D01*
X87242857Y-97091904D01*
X87242857Y-98139523D02*
X87195238Y-98187142D01*
X87147619Y-98139523D01*
X87195238Y-98091904D01*
X87242857Y-98139523D01*
X87147619Y-98139523D01*
X88147619Y-99091904D02*
X88147619Y-98615714D01*
X87671428Y-98568095D01*
X87719047Y-98615714D01*
X87766666Y-98710952D01*
X87766666Y-98949047D01*
X87719047Y-99044285D01*
X87671428Y-99091904D01*
X87576190Y-99139523D01*
X87338095Y-99139523D01*
X87242857Y-99091904D01*
X87195238Y-99044285D01*
X87147619Y-98949047D01*
X87147619Y-98710952D01*
X87195238Y-98615714D01*
X87242857Y-98568095D01*
X88147619Y-99758571D02*
X88147619Y-99853809D01*
X88100000Y-99949047D01*
X88052380Y-99996666D01*
X87957142Y-100044285D01*
X87766666Y-100091904D01*
X87528571Y-100091904D01*
X87338095Y-100044285D01*
X87242857Y-99996666D01*
X87195238Y-99949047D01*
X87147619Y-99853809D01*
X87147619Y-99758571D01*
X87195238Y-99663333D01*
X87242857Y-99615714D01*
X87338095Y-99568095D01*
X87528571Y-99520476D01*
X87766666Y-99520476D01*
X87957142Y-99568095D01*
X88052380Y-99615714D01*
X88100000Y-99663333D01*
X88147619Y-99758571D01*
X88147619Y-100710952D02*
X88147619Y-100806190D01*
X88100000Y-100901428D01*
X88052380Y-100949047D01*
X87957142Y-100996666D01*
X87766666Y-101044285D01*
X87528571Y-101044285D01*
X87338095Y-100996666D01*
X87242857Y-100949047D01*
X87195238Y-100901428D01*
X87147619Y-100806190D01*
X87147619Y-100710952D01*
X87195238Y-100615714D01*
X87242857Y-100568095D01*
X87338095Y-100520476D01*
X87528571Y-100472857D01*
X87766666Y-100472857D01*
X87957142Y-100520476D01*
X88052380Y-100568095D01*
X88100000Y-100615714D01*
X88147619Y-100710952D01*
X87147619Y-102234761D02*
X87814285Y-102234761D01*
X87719047Y-102234761D02*
X87766666Y-102282380D01*
X87814285Y-102377619D01*
X87814285Y-102520476D01*
X87766666Y-102615714D01*
X87671428Y-102663333D01*
X87147619Y-102663333D01*
X87671428Y-102663333D02*
X87766666Y-102710952D01*
X87814285Y-102806190D01*
X87814285Y-102949047D01*
X87766666Y-103044285D01*
X87671428Y-103091904D01*
X87147619Y-103091904D01*
X87147619Y-103568095D02*
X87814285Y-103568095D01*
X87719047Y-103568095D02*
X87766666Y-103615714D01*
X87814285Y-103710952D01*
X87814285Y-103853809D01*
X87766666Y-103949047D01*
X87671428Y-103996666D01*
X87147619Y-103996666D01*
X87671428Y-103996666D02*
X87766666Y-104044285D01*
X87814285Y-104139523D01*
X87814285Y-104282380D01*
X87766666Y-104377619D01*
X87671428Y-104425238D01*
X87147619Y-104425238D01*
X88900000Y-68580000D02*
X88900000Y-132080000D01*
X99060000Y-68580000D02*
X88313579Y-68580000D01*
X99060000Y-132080000D02*
X88313579Y-132080000D01*
X88900000Y-132080000D02*
X88313579Y-130953496D01*
X88900000Y-132080000D02*
X89486421Y-130953496D01*
X88900000Y-68580000D02*
X88313579Y-69706504D01*
X88900000Y-68580000D02*
X89486421Y-69706504D01*
D11*
X195326000Y-63754000D02*
X94234000Y-63754000D01*
X140732380Y-57572380D02*
X140922857Y-57572380D01*
X141018095Y-57524761D01*
X141065714Y-57477142D01*
X141160952Y-57334285D01*
X141208571Y-57143809D01*
X141208571Y-56762857D01*
X141160952Y-56667619D01*
X141113333Y-56620000D01*
X141018095Y-56572380D01*
X140827619Y-56572380D01*
X140732380Y-56620000D01*
X140684761Y-56667619D01*
X140637142Y-56762857D01*
X140637142Y-57000952D01*
X140684761Y-57096190D01*
X140732380Y-57143809D01*
X140827619Y-57191428D01*
X141018095Y-57191428D01*
X141113333Y-57143809D01*
X141160952Y-57096190D01*
X141208571Y-57000952D01*
X142160952Y-57572380D02*
X141589523Y-57572380D01*
X141875238Y-57572380D02*
X141875238Y-56572380D01*
X141780000Y-56715238D01*
X141684761Y-56810476D01*
X141589523Y-56858095D01*
X142589523Y-57477142D02*
X142637142Y-57524761D01*
X142589523Y-57572380D01*
X142541904Y-57524761D01*
X142589523Y-57477142D01*
X142589523Y-57572380D01*
X143494285Y-56905714D02*
X143494285Y-57572380D01*
X143256190Y-56524761D02*
X143018095Y-57239047D01*
X143637142Y-57239047D01*
X144446666Y-56905714D02*
X144446666Y-57572380D01*
X144208571Y-56524761D02*
X143970476Y-57239047D01*
X144589523Y-57239047D01*
X145160952Y-56572380D02*
X145256190Y-56572380D01*
X145351428Y-56620000D01*
X145399047Y-56667619D01*
X145446666Y-56762857D01*
X145494285Y-56953333D01*
X145494285Y-57191428D01*
X145446666Y-57381904D01*
X145399047Y-57477142D01*
X145351428Y-57524761D01*
X145256190Y-57572380D01*
X145160952Y-57572380D01*
X145065714Y-57524761D01*
X145018095Y-57477142D01*
X144970476Y-57381904D01*
X144922857Y-57191428D01*
X144922857Y-56953333D01*
X144970476Y-56762857D01*
X145018095Y-56667619D01*
X145065714Y-56620000D01*
X145160952Y-56572380D01*
X146684761Y-57572380D02*
X146684761Y-56905714D01*
X146684761Y-57000952D02*
X146732380Y-56953333D01*
X146827619Y-56905714D01*
X146970476Y-56905714D01*
X147065714Y-56953333D01*
X147113333Y-57048571D01*
X147113333Y-57572380D01*
X147113333Y-57048571D02*
X147160952Y-56953333D01*
X147256190Y-56905714D01*
X147399047Y-56905714D01*
X147494285Y-56953333D01*
X147541904Y-57048571D01*
X147541904Y-57572380D01*
X148018095Y-57572380D02*
X148018095Y-56905714D01*
X148018095Y-57000952D02*
X148065714Y-56953333D01*
X148160952Y-56905714D01*
X148303809Y-56905714D01*
X148399047Y-56953333D01*
X148446666Y-57048571D01*
X148446666Y-57572380D01*
X148446666Y-57048571D02*
X148494285Y-56953333D01*
X148589523Y-56905714D01*
X148732380Y-56905714D01*
X148827619Y-56953333D01*
X148875238Y-57048571D01*
X148875238Y-57572380D01*
D10*
X99060000Y-58420000D02*
X190500000Y-58420000D01*
X99060000Y-68580000D02*
X99060000Y-57833579D01*
X190500000Y-68580000D02*
X190500000Y-57833579D01*
X190500000Y-58420000D02*
X189373496Y-59006421D01*
X190500000Y-58420000D02*
X189373496Y-57833579D01*
X99060000Y-58420000D02*
X100186504Y-59006421D01*
X99060000Y-58420000D02*
X100186504Y-57833579D01*
D11*
X94234000Y-136906000D02*
X94234000Y-63754000D01*
X195326000Y-136906000D02*
X94234000Y-136906000D01*
X195326000Y-63754000D02*
X195326000Y-136906000D01*
D12*
G36*
X195580000Y-71320000D02*
G01*
X195580000Y-96620000D01*
X198280000Y-96620000D01*
X198280000Y-71320000D01*
X195580000Y-71320000D01*
G37*
X195580000Y-71320000D02*
X195580000Y-96620000D01*
X198280000Y-96620000D01*
X198280000Y-71320000D01*
X195580000Y-71320000D01*
G36*
X195580000Y-101320000D02*
G01*
X195580000Y-126620000D01*
X198280000Y-126620000D01*
X198280000Y-101320000D01*
X195580000Y-101320000D01*
G37*
X195580000Y-101320000D02*
X195580000Y-126620000D01*
X198280000Y-126620000D01*
X198280000Y-101320000D01*
X195580000Y-101320000D01*
M02*
