G04 #@! TF.GenerationSoftware,KiCad,Pcbnew,5.1.2+dfsg1-1*
G04 #@! TF.CreationDate,2019-07-22T14:37:20+02:00*
G04 #@! TF.ProjectId,art_controller_3200,6172745f-636f-46e7-9472-6f6c6c65725f,A*
G04 #@! TF.SameCoordinates,Original*
G04 #@! TF.FileFunction,Copper,L1,Top*
G04 #@! TF.FilePolarity,Positive*
%FSLAX46Y46*%
G04 Gerber Fmt 4.6, Leading zero omitted, Abs format (unit mm)*
G04 Created by KiCad (PCBNEW 5.1.2+dfsg1-1) date 2019-07-22 14:37:20*
%MOMM*%
%LPD*%
G04 APERTURE LIST*
%ADD10C,0.050000*%
%ADD11C,0.800000*%
%ADD12C,2.000000*%
%ADD13R,1.524000X1.524000*%
%ADD14C,3.000000*%
%ADD15R,3.000000X3.000000*%
%ADD16R,1.700000X1.700000*%
%ADD17C,1.700000*%
%ADD18C,3.500000*%
%ADD19R,1.400000X1.800000*%
%ADD20O,1.400000X1.800000*%
%ADD21C,6.400000*%
%ADD22C,0.500000*%
%ADD23C,0.250000*%
%ADD24C,0.300000*%
%ADD25C,0.254000*%
G04 APERTURE END LIST*
D10*
X195326000Y-63754000D02*
X94234000Y-63754000D01*
X94234000Y-136906000D02*
X94234000Y-63754000D01*
X195326000Y-136906000D02*
X94234000Y-136906000D01*
X195326000Y-63754000D02*
X195326000Y-136906000D01*
D11*
X107500000Y-128300000D03*
X106200000Y-123200000D03*
X114900000Y-128900000D03*
X104600000Y-128900000D03*
X120100000Y-126300000D03*
X116400000Y-126300000D03*
X110000000Y-123200000D03*
X104600000Y-126600000D03*
D12*
X118110000Y-66620000D03*
X118110000Y-71120000D03*
X111610000Y-66620000D03*
X111610000Y-71120000D03*
D11*
X176911000Y-92202000D03*
X173355000Y-92202000D03*
X174371000Y-85344000D03*
X182880000Y-83439000D03*
X186309000Y-80518000D03*
X186690000Y-110236000D03*
X193294000Y-105029000D03*
X188976000Y-113919000D03*
X167200000Y-111900000D03*
X166200000Y-122850000D03*
X170550000Y-124800000D03*
X183450000Y-117500000D03*
X182900000Y-123800000D03*
X187900000Y-121450000D03*
X186650000Y-97350000D03*
X184750000Y-91500000D03*
X181300000Y-91600000D03*
X176950000Y-89350000D03*
X170400000Y-117100000D03*
X166550000Y-117350000D03*
X159600000Y-116100000D03*
X159500000Y-93000000D03*
X160000000Y-104800000D03*
X159950000Y-98100000D03*
X108050000Y-92500000D03*
X111300000Y-91600000D03*
X130350000Y-115300000D03*
X130350000Y-123450000D03*
X105550000Y-114600000D03*
X106350000Y-119500000D03*
X108600000Y-117450000D03*
X109950000Y-126600000D03*
X112100000Y-119500000D03*
X115200000Y-120700000D03*
X122300000Y-113700000D03*
X133950000Y-113750000D03*
X151250000Y-100500000D03*
X143850000Y-112300000D03*
X173450000Y-110000000D03*
X167750000Y-107500000D03*
X179000000Y-120350000D03*
X180150000Y-123250000D03*
X171400000Y-120950000D03*
X172950000Y-114550000D03*
X179350000Y-97400000D03*
X177550000Y-100650000D03*
X186850000Y-99900000D03*
X183350000Y-106900000D03*
X190050000Y-105450000D03*
X191900000Y-90350000D03*
X188750000Y-90350000D03*
X190400000Y-84800000D03*
X179450000Y-73250000D03*
X165600000Y-67800000D03*
X162150000Y-70500000D03*
X120050000Y-81100000D03*
X113100000Y-87100000D03*
X111550000Y-78050000D03*
X113150000Y-83500000D03*
X111600000Y-81250000D03*
X143100000Y-120400000D03*
X148600000Y-122950000D03*
X151150000Y-122950000D03*
X153700000Y-122950000D03*
X156700000Y-122900000D03*
X125650000Y-122200000D03*
X125700000Y-125000000D03*
X128000000Y-124000000D03*
X132600000Y-121200000D03*
X99100000Y-106250000D03*
X102500000Y-107300000D03*
X112700000Y-106250000D03*
X103900000Y-100750000D03*
X106000000Y-103850000D03*
X108650000Y-100700000D03*
X105250000Y-97150000D03*
X114600000Y-97000000D03*
X114600000Y-100300000D03*
X118100000Y-97100000D03*
X134850000Y-102800000D03*
X133300000Y-90850000D03*
X148900000Y-79250000D03*
X153700000Y-79250000D03*
X124700000Y-76900000D03*
X124300000Y-84100000D03*
X124300000Y-81100000D03*
X132550000Y-81300000D03*
X131400000Y-76650000D03*
X133800000Y-76700000D03*
X137200000Y-76700000D03*
X139800000Y-77900000D03*
X148450000Y-116050000D03*
X151200000Y-116050000D03*
X153700000Y-104950000D03*
X151350000Y-105850000D03*
X149000000Y-107250000D03*
X160350000Y-111450000D03*
X164900000Y-92200000D03*
X167100000Y-95150000D03*
X166900000Y-99050000D03*
X170450000Y-87950000D03*
X175800000Y-78650000D03*
X172650000Y-78700000D03*
X166400000Y-79600000D03*
X161700000Y-78900000D03*
X158650000Y-81550000D03*
X159800000Y-87750000D03*
X128400000Y-104850000D03*
X127150000Y-113650000D03*
X122750000Y-102950000D03*
X127550000Y-101600000D03*
X123900000Y-97100000D03*
X128000000Y-96450000D03*
X136300000Y-89950000D03*
X138250000Y-89500000D03*
X141000000Y-85950000D03*
X149250000Y-91050000D03*
X145950000Y-85300000D03*
X133550000Y-107000000D03*
X139900000Y-115800000D03*
X134100000Y-96950000D03*
X138000000Y-101700000D03*
D12*
X111610000Y-134620000D03*
X111610000Y-130120000D03*
X118110000Y-134620000D03*
X118110000Y-130120000D03*
D13*
X119380000Y-118110000D03*
X116840000Y-118110000D03*
X119380000Y-115570000D03*
X116840000Y-115570000D03*
X119380000Y-113030000D03*
X116840000Y-113030000D03*
X116840000Y-100330000D03*
X119380000Y-100330000D03*
X116840000Y-102870000D03*
X119380000Y-102870000D03*
X116840000Y-105410000D03*
X119380000Y-105410000D03*
X116840000Y-107950000D03*
X119380000Y-107950000D03*
X119380000Y-95250000D03*
X116840000Y-95250000D03*
X119380000Y-92710000D03*
X116840000Y-92710000D03*
X119380000Y-90170000D03*
X116840000Y-90170000D03*
X119380000Y-87630000D03*
X116840000Y-87630000D03*
D14*
X182880000Y-87630000D03*
X182880000Y-80010000D03*
X178430000Y-83820000D03*
X177800000Y-117630000D03*
X177800000Y-110010000D03*
X177800000Y-113820000D03*
D15*
X98210000Y-111280000D03*
D14*
X98210000Y-116360000D03*
D16*
X109780000Y-85070000D03*
D17*
X109780000Y-82570000D03*
X107780000Y-82570000D03*
X107780000Y-85070000D03*
D18*
X105070000Y-89840000D03*
X105070000Y-77800000D03*
D19*
X166260000Y-74120000D03*
D20*
X168800000Y-74120000D03*
X171340000Y-74120000D03*
X173880000Y-74120000D03*
D21*
X190500000Y-132080000D03*
X190500000Y-68580000D03*
X99060000Y-68580000D03*
X99060000Y-132080000D03*
D13*
X190500000Y-101360000D03*
X190500000Y-98820000D03*
X190500000Y-96280000D03*
X154940000Y-129540000D03*
X154940000Y-132080000D03*
X152400000Y-129540000D03*
X152400000Y-132080000D03*
X149860000Y-129540000D03*
X149860000Y-132080000D03*
X147320000Y-129540000D03*
X147320000Y-132080000D03*
X144780000Y-129540000D03*
X144780000Y-132080000D03*
X142240000Y-129540000D03*
X142240000Y-132080000D03*
X139700000Y-129540000D03*
X139700000Y-132080000D03*
X137160000Y-129540000D03*
X137160000Y-132080000D03*
X134620000Y-129540000D03*
X134620000Y-132080000D03*
X132080000Y-129540000D03*
X132080000Y-132080000D03*
X129540000Y-129540000D03*
X129540000Y-132080000D03*
X127000000Y-129540000D03*
X127000000Y-132080000D03*
X124460000Y-129540000D03*
X124460000Y-132080000D03*
X121920000Y-129540000D03*
X121920000Y-132080000D03*
X121920000Y-71120000D03*
X121920000Y-68580000D03*
X124460000Y-71120000D03*
X124460000Y-68580000D03*
X127000000Y-71120000D03*
X127000000Y-68580000D03*
X129540000Y-71120000D03*
X129540000Y-68580000D03*
X132080000Y-71120000D03*
X132080000Y-68580000D03*
X134620000Y-71120000D03*
X134620000Y-68580000D03*
X137160000Y-71120000D03*
X137160000Y-68580000D03*
X139700000Y-71120000D03*
X139700000Y-68580000D03*
X142240000Y-71120000D03*
X142240000Y-68580000D03*
X144780000Y-71120000D03*
X144780000Y-68580000D03*
X147320000Y-71120000D03*
X147320000Y-68580000D03*
X149860000Y-71120000D03*
X149860000Y-68580000D03*
X152400000Y-71120000D03*
X152400000Y-68580000D03*
X154940000Y-71120000D03*
X154940000Y-68580000D03*
D11*
X148100000Y-111700000D03*
X148200000Y-104300000D03*
X133807340Y-101117340D03*
X132290386Y-83596309D03*
X129170000Y-89360000D03*
X128897669Y-90322216D03*
X128177240Y-91015762D03*
X127842779Y-91958184D03*
X127049333Y-92642751D03*
X127212722Y-93657030D03*
X123595807Y-105616489D03*
X140977738Y-98297303D03*
X145819989Y-96419989D03*
X146544990Y-97620000D03*
X141950000Y-98700000D03*
X122750000Y-106150000D03*
X122400000Y-98530000D03*
X127050000Y-103200000D03*
X121674187Y-99217895D03*
X126696599Y-104135474D03*
X131860000Y-106520000D03*
X143437660Y-93407660D03*
X139869847Y-104959847D03*
X131660000Y-89980000D03*
X140863500Y-104847340D03*
X125550000Y-95260000D03*
X149810000Y-95240000D03*
X135190000Y-108040000D03*
X143760927Y-94353980D03*
X125290000Y-109900000D03*
X144808049Y-94292743D03*
X126450000Y-106950000D03*
X140127546Y-97564055D03*
X132807825Y-101148841D03*
X132793669Y-100078023D03*
X136948193Y-94898193D03*
X140422660Y-111152660D03*
X144025032Y-101925000D03*
X123170000Y-76820000D03*
X128370000Y-99220000D03*
D22*
X124460000Y-71120000D02*
X124460000Y-68580000D01*
X121820000Y-97870000D02*
X121820000Y-90070000D01*
X119380000Y-100330000D02*
X119380000Y-100310000D01*
X119380000Y-100310000D02*
X121820000Y-97870000D01*
X124460000Y-71120000D02*
X124460000Y-72380000D01*
X124460000Y-72380000D02*
X121820000Y-75020000D01*
X121690000Y-87630000D02*
X121820000Y-87500000D01*
X119380000Y-87630000D02*
X121690000Y-87630000D01*
X121820000Y-75020000D02*
X121820000Y-87500000D01*
X121820000Y-87500000D02*
X121820000Y-90070000D01*
X160400000Y-65520000D02*
X127520000Y-65520000D01*
X168800000Y-74120000D02*
X168800000Y-73920000D01*
X127520000Y-65520000D02*
X124460000Y-68580000D01*
X168800000Y-73920000D02*
X160400000Y-65520000D01*
D23*
X148100000Y-111700000D02*
X148100000Y-104400000D01*
X148100000Y-104400000D02*
X148200000Y-104300000D01*
D22*
X120592001Y-101542001D02*
X119380000Y-100330000D01*
X120592001Y-110555999D02*
X120592001Y-101542001D01*
X119380000Y-111768000D02*
X120592001Y-110555999D01*
X119380000Y-113030000D02*
X119380000Y-111768000D01*
X109780000Y-97710000D02*
X109780000Y-86420000D01*
X109780000Y-86420000D02*
X109780000Y-85070000D01*
X98210000Y-109280000D02*
X109780000Y-97710000D01*
X98210000Y-111280000D02*
X98210000Y-109280000D01*
X124460000Y-129540000D02*
X124460000Y-132080000D01*
X120767011Y-124585011D02*
X124460000Y-128278000D01*
X124460000Y-128278000D02*
X124460000Y-129540000D01*
X113515011Y-124585011D02*
X120767011Y-124585011D01*
X100210000Y-111280000D02*
X113515011Y-124585011D01*
X98210000Y-111280000D02*
X100210000Y-111280000D01*
X147320000Y-129540000D02*
X147320000Y-132080000D01*
D23*
X147320000Y-95731692D02*
X144228307Y-92639999D01*
X134207339Y-100717341D02*
X133807340Y-101117340D01*
X142284681Y-92639999D02*
X134207339Y-100717341D01*
X147320000Y-129540000D02*
X147320000Y-95731692D01*
X144228307Y-92639999D02*
X142284681Y-92639999D01*
D22*
X142240000Y-71120000D02*
X142240000Y-68580000D01*
D23*
X142240000Y-71120000D02*
X142240000Y-73646695D01*
X142240000Y-73646695D02*
X132290386Y-83596309D01*
D22*
X139700000Y-71120000D02*
X139700000Y-68580000D01*
D23*
X139700000Y-71120000D02*
X139700000Y-72132000D01*
X139700000Y-72132000D02*
X129170000Y-82662000D01*
X129170000Y-82662000D02*
X129170000Y-89360000D01*
D22*
X137160000Y-71120000D02*
X137160000Y-68580000D01*
D23*
X128497670Y-89922217D02*
X128897669Y-90322216D01*
X128414998Y-80877002D02*
X128414998Y-89839545D01*
X128414998Y-89839545D02*
X128497670Y-89922217D01*
X137160000Y-72132000D02*
X128414998Y-80877002D01*
X137160000Y-71120000D02*
X137160000Y-72132000D01*
D22*
X134620000Y-68580000D02*
X134620000Y-71120000D01*
D23*
X134620000Y-71120000D02*
X134620000Y-72132000D01*
X134620000Y-72132000D02*
X127777241Y-78974759D01*
X127777241Y-78974759D02*
X127777241Y-90615763D01*
X127777241Y-90615763D02*
X128177240Y-91015762D01*
D22*
X132080000Y-71120000D02*
X132080000Y-68580000D01*
D23*
X132080000Y-71120000D02*
X132080000Y-72132000D01*
X132080000Y-72132000D02*
X127300001Y-76911999D01*
X127300001Y-91415406D02*
X127442780Y-91558185D01*
X127442780Y-91558185D02*
X127842779Y-91958184D01*
X127300001Y-76911999D02*
X127300001Y-91415406D01*
D22*
X129540000Y-68580000D02*
X129540000Y-71120000D01*
D23*
X129540000Y-72132000D02*
X126649334Y-75022666D01*
X129540000Y-71120000D02*
X129540000Y-72132000D01*
X126649334Y-92242752D02*
X127049333Y-92642751D01*
X126649334Y-75022666D02*
X126649334Y-92242752D01*
D22*
X127000000Y-71120000D02*
X127000000Y-68580000D01*
D23*
X127000000Y-72132000D02*
X125750001Y-73381999D01*
X126647037Y-93657030D02*
X127212722Y-93657030D01*
X125750001Y-73381999D02*
X125750001Y-92759994D01*
X125750001Y-92759994D02*
X126647037Y-93657030D01*
X127000000Y-71120000D02*
X127000000Y-72132000D01*
D22*
X142240000Y-129540000D02*
X142240000Y-132080000D01*
D23*
X119380000Y-114558000D02*
X119380000Y-115570000D01*
X119112000Y-114290000D02*
X119380000Y-114558000D01*
X116006410Y-114290000D02*
X119112000Y-114290000D01*
X115450001Y-113733591D02*
X116006410Y-114290000D01*
X116840000Y-102870000D02*
X115450001Y-104259999D01*
X115450001Y-104259999D02*
X115450001Y-113733591D01*
X142063512Y-105550078D02*
X142063512Y-99941746D01*
X142063512Y-99941746D02*
X140977738Y-98855972D01*
X136763590Y-110850000D02*
X142063512Y-105550078D01*
X128829318Y-110850000D02*
X136763590Y-110850000D01*
X140977738Y-98855972D02*
X140977738Y-98297303D01*
X123595807Y-105616489D02*
X128829318Y-110850000D01*
X142240000Y-128528000D02*
X145819989Y-124948011D01*
X145819989Y-124948011D02*
X145819989Y-96419989D01*
X142240000Y-129540000D02*
X142240000Y-128528000D01*
D22*
X144780000Y-132080000D02*
X144780000Y-129540000D01*
D23*
X119380000Y-105420000D02*
X119380000Y-105410000D01*
X116840000Y-113030000D02*
X118110000Y-111760000D01*
X118110000Y-106690000D02*
X119380000Y-105420000D01*
X118110000Y-111760000D02*
X118110000Y-106690000D01*
X146544990Y-126763010D02*
X146544990Y-98185685D01*
X144780000Y-129540000D02*
X144780000Y-128528000D01*
X146544990Y-98185685D02*
X146544990Y-97620000D01*
X144780000Y-128528000D02*
X146544990Y-126763010D01*
X141950000Y-98700000D02*
X142850011Y-99600011D01*
X142850011Y-105399990D02*
X136949990Y-111300011D01*
X123149999Y-106549999D02*
X122750000Y-106150000D01*
X142850011Y-99600011D02*
X142850011Y-105399990D01*
X127900011Y-111300011D02*
X123149999Y-106549999D01*
X136949990Y-111300011D02*
X127900011Y-111300011D01*
X122400000Y-98530000D02*
X127050000Y-103180000D01*
X127050000Y-103180000D02*
X127050000Y-103200000D01*
X121674187Y-99217895D02*
X126591766Y-104135474D01*
X126591766Y-104135474D02*
X126696599Y-104135474D01*
D22*
X154940000Y-71120000D02*
X154940000Y-68580000D01*
D23*
X142550000Y-93400000D02*
X143430000Y-93400000D01*
X143430000Y-93400000D02*
X143437660Y-93407660D01*
X131860000Y-106520000D02*
X131860000Y-104090000D01*
X131860000Y-104090000D02*
X142550000Y-93400000D01*
X179052000Y-113820000D02*
X177800000Y-113820000D01*
X190500000Y-102372000D02*
X179052000Y-113820000D01*
X190500000Y-101360000D02*
X190500000Y-102372000D01*
X176300001Y-112320001D02*
X177800000Y-113820000D01*
X175320000Y-111340000D02*
X176300001Y-112320001D01*
X178430000Y-83820000D02*
X175320000Y-86930000D01*
X175320000Y-86930000D02*
X175320000Y-111340000D01*
X182880000Y-104930000D02*
X177800000Y-110010000D01*
X189468000Y-98800000D02*
X182880000Y-98800000D01*
X190500000Y-98820000D02*
X189488000Y-98820000D01*
X182880000Y-87630000D02*
X182880000Y-98800000D01*
X189488000Y-98820000D02*
X189468000Y-98800000D01*
X182880000Y-98800000D02*
X182880000Y-104930000D01*
D22*
X147320000Y-68580000D02*
X147320000Y-71120000D01*
D23*
X147320000Y-71120000D02*
X147320000Y-73249414D01*
X136064694Y-108765000D02*
X139469848Y-105359846D01*
X132395588Y-108765000D02*
X136064694Y-108765000D01*
X139469848Y-105359846D02*
X139869847Y-104959847D01*
X130684992Y-89884422D02*
X130684992Y-107054404D01*
X130684992Y-107054404D02*
X132395588Y-108765000D01*
X147320000Y-73249414D02*
X131119707Y-89449707D01*
X131119707Y-89449707D02*
X130684992Y-89884422D01*
X131129707Y-89449707D02*
X131119707Y-89449707D01*
X131660000Y-89980000D02*
X131129707Y-89449707D01*
D22*
X144780000Y-71120000D02*
X144780000Y-68580000D01*
D24*
X125550000Y-95260000D02*
X126115685Y-95260000D01*
X126140704Y-95285019D02*
X130209982Y-95285019D01*
X126115685Y-95260000D02*
X126140704Y-95285019D01*
D23*
X140863500Y-105413024D02*
X140863500Y-104847340D01*
X144780000Y-75153004D02*
X130234981Y-89698023D01*
X144780000Y-71120000D02*
X144780000Y-75153004D01*
X130234981Y-89698023D02*
X130234981Y-107240803D01*
X130234981Y-107240803D02*
X132209189Y-109215011D01*
X132209189Y-109215011D02*
X137061513Y-109215011D01*
X137061513Y-109215011D02*
X140863500Y-105413024D01*
D22*
X152400000Y-71120000D02*
X152400000Y-68580000D01*
D23*
X152400000Y-71120000D02*
X152400000Y-92650000D01*
X152400000Y-92650000D02*
X149810000Y-95240000D01*
D22*
X149860000Y-71120000D02*
X149860000Y-68580000D01*
D23*
X149860000Y-72833002D02*
X131134999Y-91558003D01*
X131134999Y-106868001D02*
X132306998Y-108040000D01*
X134624315Y-108040000D02*
X135190000Y-108040000D01*
X132306998Y-108040000D02*
X134624315Y-108040000D01*
X149860000Y-71120000D02*
X149860000Y-72833002D01*
X131134999Y-91558003D02*
X131134999Y-106868001D01*
D22*
X137160000Y-129540000D02*
X137160000Y-132080000D01*
D23*
X137160000Y-129540000D02*
X137160000Y-128528000D01*
X143300022Y-101481976D02*
X143300022Y-105586390D01*
X127140022Y-111750022D02*
X125689999Y-110299999D01*
X125689999Y-110299999D02*
X125290000Y-109900000D01*
X143966997Y-100815001D02*
X143300022Y-101481976D01*
X143300022Y-105586390D02*
X137136390Y-111750022D01*
X144750034Y-100910034D02*
X144655001Y-100815001D01*
X144655001Y-100815001D02*
X143966997Y-100815001D01*
X144750034Y-120937966D02*
X144750034Y-100910034D01*
X137160000Y-128528000D02*
X144750034Y-120937966D01*
X137136390Y-111750022D02*
X127140022Y-111750022D01*
X144655001Y-100815001D02*
X143760927Y-99920927D01*
X143760927Y-99920927D02*
X143760927Y-94919665D01*
X143760927Y-94919665D02*
X143760927Y-94353980D01*
D22*
X139700000Y-132080000D02*
X139700000Y-129540000D01*
D23*
X118120000Y-101790000D02*
X118120000Y-104130000D01*
X116650000Y-115570000D02*
X114999990Y-113919990D01*
X114999990Y-113919990D02*
X114999990Y-102220010D01*
X116840000Y-115570000D02*
X116650000Y-115570000D01*
X114999990Y-102220010D02*
X115610000Y-101610000D01*
X115610000Y-101610000D02*
X117940000Y-101610000D01*
X118120000Y-104130000D02*
X116840000Y-105410000D01*
X117940000Y-101610000D02*
X118120000Y-101790000D01*
X141588501Y-105324433D02*
X141588501Y-102538501D01*
X137247914Y-109665020D02*
X141588501Y-105324433D01*
X126450000Y-106950000D02*
X129165020Y-109665020D01*
X129165020Y-109665020D02*
X137247914Y-109665020D01*
D24*
X140150000Y-97586509D02*
X140127546Y-97564055D01*
X141588501Y-102538501D02*
X141588501Y-100138501D01*
X140150000Y-98700000D02*
X140150000Y-97586509D01*
X141588501Y-100138501D02*
X140150000Y-98700000D01*
D23*
X144808049Y-96541075D02*
X144808049Y-94858428D01*
X144808049Y-94858428D02*
X144808049Y-94292743D01*
X145200045Y-123027955D02*
X145200045Y-96933071D01*
X145200045Y-96933071D02*
X144808049Y-96541075D01*
X139700000Y-129540000D02*
X139700000Y-128528000D01*
X139700000Y-128528000D02*
X145200045Y-123027955D01*
D22*
X149860000Y-132080000D02*
X149860000Y-129540000D01*
D23*
X149860000Y-129540000D02*
X149860000Y-97635282D01*
X144414707Y-92189989D02*
X141707009Y-92189989D01*
X149860000Y-97635282D02*
X144414707Y-92189989D01*
X132807825Y-101089173D02*
X132807825Y-101148841D01*
X141707009Y-92189989D02*
X132807825Y-101089173D01*
D22*
X152400000Y-129540000D02*
X152400000Y-132080000D01*
D23*
X141131713Y-91739979D02*
X132793669Y-100078023D01*
X144601107Y-91739979D02*
X141131713Y-91739979D01*
X152400000Y-129540000D02*
X152400000Y-99538872D01*
X152400000Y-99538872D02*
X144601107Y-91739979D01*
D22*
X154940000Y-132080000D02*
X154940000Y-129540000D01*
D23*
X140556417Y-91289969D02*
X136948193Y-94898193D01*
X144787507Y-91289969D02*
X140556417Y-91289969D01*
X154940000Y-129540000D02*
X154940000Y-101442462D01*
X154940000Y-101442462D02*
X144787507Y-91289969D01*
D22*
X134620000Y-129540000D02*
X134620000Y-132080000D01*
D23*
X140022661Y-111552659D02*
X140422660Y-111152660D01*
X134620000Y-129540000D02*
X134620000Y-116955320D01*
X134620000Y-116955320D02*
X140022661Y-111552659D01*
D22*
X132080000Y-132080000D02*
X132080000Y-129540000D01*
X129540000Y-129540000D02*
X129540000Y-132080000D01*
X127000000Y-132080000D02*
X127000000Y-129540000D01*
D23*
X127000000Y-128528000D02*
X127000000Y-129540000D01*
X126950000Y-124010000D02*
X127000000Y-123960000D01*
X119606998Y-124010000D02*
X126950000Y-124010000D01*
X116840000Y-121243002D02*
X119606998Y-124010000D01*
X127000000Y-129540000D02*
X127000000Y-123960000D01*
X116840000Y-118110000D02*
X116840000Y-121243002D01*
X144025032Y-106524968D02*
X144025032Y-102490685D01*
X144025032Y-102490685D02*
X144025032Y-101925000D01*
X127000000Y-123550000D02*
X144025032Y-106524968D01*
X127000000Y-123960000D02*
X127000000Y-123550000D01*
X128370000Y-99153002D02*
X128370000Y-99220000D01*
X123170000Y-76820000D02*
X123170000Y-93953002D01*
X123170000Y-93953002D02*
X128370000Y-99153002D01*
X190500000Y-87620000D02*
X190500000Y-95268000D01*
X182880000Y-80010000D02*
X182890000Y-80010000D01*
X190500000Y-95268000D02*
X190500000Y-96280000D01*
X182890000Y-80010000D02*
X190500000Y-87620000D01*
X190510000Y-96280000D02*
X190500000Y-96280000D01*
X192100000Y-97870000D02*
X190510000Y-96280000D01*
X192100000Y-106970000D02*
X192100000Y-97870000D01*
X177800000Y-117630000D02*
X181440000Y-117630000D01*
X181440000Y-117630000D02*
X192100000Y-106970000D01*
X175380000Y-72540000D02*
X172720000Y-72540000D01*
X171340000Y-73920000D02*
X171340000Y-74120000D01*
X182880000Y-80010000D02*
X182850000Y-80010000D01*
X172720000Y-72540000D02*
X171340000Y-73920000D01*
X182850000Y-80010000D02*
X175380000Y-72540000D01*
D25*
G36*
X194666001Y-136246000D02*
G01*
X118287212Y-136246000D01*
X118491675Y-136217961D01*
X118796088Y-136112795D01*
X118970044Y-136019814D01*
X119065808Y-135755413D01*
X118110000Y-134799605D01*
X117154192Y-135755413D01*
X117249956Y-136019814D01*
X117539571Y-136160704D01*
X117851108Y-136242384D01*
X117911235Y-136246000D01*
X111787212Y-136246000D01*
X111991675Y-136217961D01*
X112296088Y-136112795D01*
X112470044Y-136019814D01*
X112565808Y-135755413D01*
X111610000Y-134799605D01*
X110654192Y-135755413D01*
X110749956Y-136019814D01*
X111039571Y-136160704D01*
X111351108Y-136242384D01*
X111411235Y-136246000D01*
X94894000Y-136246000D01*
X94894000Y-134780881D01*
X96538724Y-134780881D01*
X96898912Y-135270548D01*
X97562882Y-135630849D01*
X98284385Y-135854694D01*
X99035695Y-135933480D01*
X99787938Y-135864178D01*
X100512208Y-135649452D01*
X101180670Y-135297555D01*
X101221088Y-135270548D01*
X101581276Y-134780881D01*
X101482990Y-134682595D01*
X109968282Y-134682595D01*
X110012039Y-135001675D01*
X110117205Y-135306088D01*
X110210186Y-135480044D01*
X110474587Y-135575808D01*
X111430395Y-134620000D01*
X111789605Y-134620000D01*
X112745413Y-135575808D01*
X113009814Y-135480044D01*
X113150704Y-135190429D01*
X113232384Y-134878892D01*
X113244189Y-134682595D01*
X116468282Y-134682595D01*
X116512039Y-135001675D01*
X116617205Y-135306088D01*
X116710186Y-135480044D01*
X116974587Y-135575808D01*
X117930395Y-134620000D01*
X118289605Y-134620000D01*
X119245413Y-135575808D01*
X119509814Y-135480044D01*
X119650704Y-135190429D01*
X119732384Y-134878892D01*
X119738278Y-134780881D01*
X187978724Y-134780881D01*
X188338912Y-135270548D01*
X189002882Y-135630849D01*
X189724385Y-135854694D01*
X190475695Y-135933480D01*
X191227938Y-135864178D01*
X191952208Y-135649452D01*
X192620670Y-135297555D01*
X192661088Y-135270548D01*
X193021276Y-134780881D01*
X190500000Y-132259605D01*
X187978724Y-134780881D01*
X119738278Y-134780881D01*
X119751718Y-134557405D01*
X119707961Y-134238325D01*
X119602795Y-133933912D01*
X119509814Y-133759956D01*
X119245413Y-133664192D01*
X118289605Y-134620000D01*
X117930395Y-134620000D01*
X116974587Y-133664192D01*
X116710186Y-133759956D01*
X116569296Y-134049571D01*
X116487616Y-134361108D01*
X116468282Y-134682595D01*
X113244189Y-134682595D01*
X113251718Y-134557405D01*
X113207961Y-134238325D01*
X113102795Y-133933912D01*
X113009814Y-133759956D01*
X112745413Y-133664192D01*
X111789605Y-134620000D01*
X111430395Y-134620000D01*
X110474587Y-133664192D01*
X110210186Y-133759956D01*
X110069296Y-134049571D01*
X109987616Y-134361108D01*
X109968282Y-134682595D01*
X101482990Y-134682595D01*
X99060000Y-132259605D01*
X96538724Y-134780881D01*
X94894000Y-134780881D01*
X94894000Y-132055695D01*
X95206520Y-132055695D01*
X95275822Y-132807938D01*
X95490548Y-133532208D01*
X95842445Y-134200670D01*
X95869452Y-134241088D01*
X96359119Y-134601276D01*
X98880395Y-132080000D01*
X99239605Y-132080000D01*
X101760881Y-134601276D01*
X102250548Y-134241088D01*
X102610849Y-133577118D01*
X102639556Y-133484587D01*
X110654192Y-133484587D01*
X111610000Y-134440395D01*
X112565808Y-133484587D01*
X117154192Y-133484587D01*
X118110000Y-134440395D01*
X119065808Y-133484587D01*
X118970044Y-133220186D01*
X118680429Y-133079296D01*
X118368892Y-132997616D01*
X118047405Y-132978282D01*
X117728325Y-133022039D01*
X117423912Y-133127205D01*
X117249956Y-133220186D01*
X117154192Y-133484587D01*
X112565808Y-133484587D01*
X112470044Y-133220186D01*
X112180429Y-133079296D01*
X111868892Y-132997616D01*
X111547405Y-132978282D01*
X111228325Y-133022039D01*
X110923912Y-133127205D01*
X110749956Y-133220186D01*
X110654192Y-133484587D01*
X102639556Y-133484587D01*
X102834694Y-132855615D01*
X102836121Y-132842000D01*
X120519928Y-132842000D01*
X120532188Y-132966482D01*
X120568498Y-133086180D01*
X120627463Y-133196494D01*
X120706815Y-133293185D01*
X120803506Y-133372537D01*
X120913820Y-133431502D01*
X121033518Y-133467812D01*
X121158000Y-133480072D01*
X121634250Y-133477000D01*
X121793000Y-133318250D01*
X121793000Y-132207000D01*
X120681750Y-132207000D01*
X120523000Y-132365750D01*
X120519928Y-132842000D01*
X102836121Y-132842000D01*
X102913480Y-132104305D01*
X102844178Y-131352062D01*
X102629452Y-130627792D01*
X102277555Y-129959330D01*
X102277313Y-129958967D01*
X109975000Y-129958967D01*
X109975000Y-130281033D01*
X110037832Y-130596912D01*
X110161082Y-130894463D01*
X110340013Y-131162252D01*
X110567748Y-131389987D01*
X110835537Y-131568918D01*
X111133088Y-131692168D01*
X111448967Y-131755000D01*
X111771033Y-131755000D01*
X112086912Y-131692168D01*
X112384463Y-131568918D01*
X112652252Y-131389987D01*
X112879987Y-131162252D01*
X113058918Y-130894463D01*
X113182168Y-130596912D01*
X113245000Y-130281033D01*
X113245000Y-129958967D01*
X116475000Y-129958967D01*
X116475000Y-130281033D01*
X116537832Y-130596912D01*
X116661082Y-130894463D01*
X116840013Y-131162252D01*
X117067748Y-131389987D01*
X117335537Y-131568918D01*
X117633088Y-131692168D01*
X117948967Y-131755000D01*
X118271033Y-131755000D01*
X118586912Y-131692168D01*
X118884463Y-131568918D01*
X119152252Y-131389987D01*
X119379987Y-131162252D01*
X119558918Y-130894463D01*
X119682168Y-130596912D01*
X119740829Y-130302000D01*
X120519928Y-130302000D01*
X120532188Y-130426482D01*
X120568498Y-130546180D01*
X120627463Y-130656494D01*
X120706815Y-130753185D01*
X120776044Y-130810000D01*
X120706815Y-130866815D01*
X120627463Y-130963506D01*
X120568498Y-131073820D01*
X120532188Y-131193518D01*
X120519928Y-131318000D01*
X120523000Y-131794250D01*
X120681750Y-131953000D01*
X121793000Y-131953000D01*
X121793000Y-130841750D01*
X121761250Y-130810000D01*
X121793000Y-130778250D01*
X121793000Y-129667000D01*
X120681750Y-129667000D01*
X120523000Y-129825750D01*
X120519928Y-130302000D01*
X119740829Y-130302000D01*
X119745000Y-130281033D01*
X119745000Y-129958967D01*
X119682168Y-129643088D01*
X119558918Y-129345537D01*
X119379987Y-129077748D01*
X119152252Y-128850013D01*
X119044477Y-128778000D01*
X120519928Y-128778000D01*
X120523000Y-129254250D01*
X120681750Y-129413000D01*
X121793000Y-129413000D01*
X121793000Y-128301750D01*
X121634250Y-128143000D01*
X121158000Y-128139928D01*
X121033518Y-128152188D01*
X120913820Y-128188498D01*
X120803506Y-128247463D01*
X120706815Y-128326815D01*
X120627463Y-128423506D01*
X120568498Y-128533820D01*
X120532188Y-128653518D01*
X120519928Y-128778000D01*
X119044477Y-128778000D01*
X118884463Y-128671082D01*
X118586912Y-128547832D01*
X118271033Y-128485000D01*
X117948967Y-128485000D01*
X117633088Y-128547832D01*
X117335537Y-128671082D01*
X117067748Y-128850013D01*
X116840013Y-129077748D01*
X116661082Y-129345537D01*
X116537832Y-129643088D01*
X116475000Y-129958967D01*
X113245000Y-129958967D01*
X113182168Y-129643088D01*
X113058918Y-129345537D01*
X112879987Y-129077748D01*
X112652252Y-128850013D01*
X112384463Y-128671082D01*
X112086912Y-128547832D01*
X111771033Y-128485000D01*
X111448967Y-128485000D01*
X111133088Y-128547832D01*
X110835537Y-128671082D01*
X110567748Y-128850013D01*
X110340013Y-129077748D01*
X110161082Y-129345537D01*
X110037832Y-129643088D01*
X109975000Y-129958967D01*
X102277313Y-129958967D01*
X102250548Y-129918912D01*
X101760881Y-129558724D01*
X99239605Y-132080000D01*
X98880395Y-132080000D01*
X96359119Y-129558724D01*
X95869452Y-129918912D01*
X95509151Y-130582882D01*
X95285306Y-131304385D01*
X95206520Y-132055695D01*
X94894000Y-132055695D01*
X94894000Y-129379119D01*
X96538724Y-129379119D01*
X99060000Y-131900395D01*
X101581276Y-129379119D01*
X101221088Y-128889452D01*
X100557118Y-128529151D01*
X99835615Y-128305306D01*
X99084305Y-128226520D01*
X98332062Y-128295822D01*
X97607792Y-128510548D01*
X96939330Y-128862445D01*
X96898912Y-128889452D01*
X96538724Y-129379119D01*
X94894000Y-129379119D01*
X94894000Y-117851653D01*
X96897952Y-117851653D01*
X97053962Y-118167214D01*
X97428745Y-118358020D01*
X97833551Y-118472044D01*
X98252824Y-118504902D01*
X98670451Y-118455334D01*
X99070383Y-118325243D01*
X99366038Y-118167214D01*
X99522048Y-117851653D01*
X98210000Y-116539605D01*
X96897952Y-117851653D01*
X94894000Y-117851653D01*
X94894000Y-116402824D01*
X96065098Y-116402824D01*
X96114666Y-116820451D01*
X96244757Y-117220383D01*
X96402786Y-117516038D01*
X96718347Y-117672048D01*
X98030395Y-116360000D01*
X98389605Y-116360000D01*
X99701653Y-117672048D01*
X100017214Y-117516038D01*
X100208020Y-117141255D01*
X100322044Y-116736449D01*
X100354902Y-116317176D01*
X100305334Y-115899549D01*
X100175243Y-115499617D01*
X100017214Y-115203962D01*
X99701653Y-115047952D01*
X98389605Y-116360000D01*
X98030395Y-116360000D01*
X96718347Y-115047952D01*
X96402786Y-115203962D01*
X96211980Y-115578745D01*
X96097956Y-115983551D01*
X96065098Y-116402824D01*
X94894000Y-116402824D01*
X94894000Y-114868347D01*
X96897952Y-114868347D01*
X98210000Y-116180395D01*
X99522048Y-114868347D01*
X99366038Y-114552786D01*
X98991255Y-114361980D01*
X98586449Y-114247956D01*
X98167176Y-114215098D01*
X97749549Y-114264666D01*
X97349617Y-114394757D01*
X97053962Y-114552786D01*
X96897952Y-114868347D01*
X94894000Y-114868347D01*
X94894000Y-109780000D01*
X96071928Y-109780000D01*
X96071928Y-112780000D01*
X96084188Y-112904482D01*
X96120498Y-113024180D01*
X96179463Y-113134494D01*
X96258815Y-113231185D01*
X96355506Y-113310537D01*
X96465820Y-113369502D01*
X96585518Y-113405812D01*
X96710000Y-113418072D01*
X99710000Y-113418072D01*
X99834482Y-113405812D01*
X99954180Y-113369502D01*
X100064494Y-113310537D01*
X100161185Y-113231185D01*
X100240537Y-113134494D01*
X100299502Y-113024180D01*
X100335812Y-112904482D01*
X100348072Y-112780000D01*
X100348072Y-112669650D01*
X112858481Y-125180060D01*
X112886194Y-125213828D01*
X112919962Y-125241541D01*
X112919964Y-125241543D01*
X112991463Y-125300221D01*
X113020952Y-125324422D01*
X113174698Y-125406600D01*
X113341521Y-125457206D01*
X113471534Y-125470011D01*
X113471544Y-125470011D01*
X113515010Y-125474292D01*
X113558477Y-125470011D01*
X120400433Y-125470011D01*
X123252539Y-128322118D01*
X123246815Y-128326815D01*
X123190000Y-128396044D01*
X123133185Y-128326815D01*
X123036494Y-128247463D01*
X122926180Y-128188498D01*
X122806482Y-128152188D01*
X122682000Y-128139928D01*
X122205750Y-128143000D01*
X122047000Y-128301750D01*
X122047000Y-129413000D01*
X122067000Y-129413000D01*
X122067000Y-129667000D01*
X122047000Y-129667000D01*
X122047000Y-130778250D01*
X122078750Y-130810000D01*
X122047000Y-130841750D01*
X122047000Y-131953000D01*
X122067000Y-131953000D01*
X122067000Y-132207000D01*
X122047000Y-132207000D01*
X122047000Y-133318250D01*
X122205750Y-133477000D01*
X122682000Y-133480072D01*
X122806482Y-133467812D01*
X122926180Y-133431502D01*
X123036494Y-133372537D01*
X123133185Y-133293185D01*
X123190000Y-133223956D01*
X123246815Y-133293185D01*
X123343506Y-133372537D01*
X123453820Y-133431502D01*
X123573518Y-133467812D01*
X123698000Y-133480072D01*
X125222000Y-133480072D01*
X125346482Y-133467812D01*
X125466180Y-133431502D01*
X125576494Y-133372537D01*
X125673185Y-133293185D01*
X125730000Y-133223956D01*
X125786815Y-133293185D01*
X125883506Y-133372537D01*
X125993820Y-133431502D01*
X126113518Y-133467812D01*
X126238000Y-133480072D01*
X127762000Y-133480072D01*
X127886482Y-133467812D01*
X128006180Y-133431502D01*
X128116494Y-133372537D01*
X128213185Y-133293185D01*
X128270000Y-133223956D01*
X128326815Y-133293185D01*
X128423506Y-133372537D01*
X128533820Y-133431502D01*
X128653518Y-133467812D01*
X128778000Y-133480072D01*
X130302000Y-133480072D01*
X130426482Y-133467812D01*
X130546180Y-133431502D01*
X130656494Y-133372537D01*
X130753185Y-133293185D01*
X130810000Y-133223956D01*
X130866815Y-133293185D01*
X130963506Y-133372537D01*
X131073820Y-133431502D01*
X131193518Y-133467812D01*
X131318000Y-133480072D01*
X132842000Y-133480072D01*
X132966482Y-133467812D01*
X133086180Y-133431502D01*
X133196494Y-133372537D01*
X133293185Y-133293185D01*
X133350000Y-133223956D01*
X133406815Y-133293185D01*
X133503506Y-133372537D01*
X133613820Y-133431502D01*
X133733518Y-133467812D01*
X133858000Y-133480072D01*
X135382000Y-133480072D01*
X135506482Y-133467812D01*
X135626180Y-133431502D01*
X135736494Y-133372537D01*
X135833185Y-133293185D01*
X135890000Y-133223956D01*
X135946815Y-133293185D01*
X136043506Y-133372537D01*
X136153820Y-133431502D01*
X136273518Y-133467812D01*
X136398000Y-133480072D01*
X137922000Y-133480072D01*
X138046482Y-133467812D01*
X138166180Y-133431502D01*
X138276494Y-133372537D01*
X138373185Y-133293185D01*
X138430000Y-133223956D01*
X138486815Y-133293185D01*
X138583506Y-133372537D01*
X138693820Y-133431502D01*
X138813518Y-133467812D01*
X138938000Y-133480072D01*
X140462000Y-133480072D01*
X140586482Y-133467812D01*
X140706180Y-133431502D01*
X140816494Y-133372537D01*
X140913185Y-133293185D01*
X140970000Y-133223956D01*
X141026815Y-133293185D01*
X141123506Y-133372537D01*
X141233820Y-133431502D01*
X141353518Y-133467812D01*
X141478000Y-133480072D01*
X143002000Y-133480072D01*
X143126482Y-133467812D01*
X143246180Y-133431502D01*
X143356494Y-133372537D01*
X143453185Y-133293185D01*
X143510000Y-133223956D01*
X143566815Y-133293185D01*
X143663506Y-133372537D01*
X143773820Y-133431502D01*
X143893518Y-133467812D01*
X144018000Y-133480072D01*
X145542000Y-133480072D01*
X145666482Y-133467812D01*
X145786180Y-133431502D01*
X145896494Y-133372537D01*
X145993185Y-133293185D01*
X146050000Y-133223956D01*
X146106815Y-133293185D01*
X146203506Y-133372537D01*
X146313820Y-133431502D01*
X146433518Y-133467812D01*
X146558000Y-133480072D01*
X148082000Y-133480072D01*
X148206482Y-133467812D01*
X148326180Y-133431502D01*
X148436494Y-133372537D01*
X148533185Y-133293185D01*
X148590000Y-133223956D01*
X148646815Y-133293185D01*
X148743506Y-133372537D01*
X148853820Y-133431502D01*
X148973518Y-133467812D01*
X149098000Y-133480072D01*
X150622000Y-133480072D01*
X150746482Y-133467812D01*
X150866180Y-133431502D01*
X150976494Y-133372537D01*
X151073185Y-133293185D01*
X151130000Y-133223956D01*
X151186815Y-133293185D01*
X151283506Y-133372537D01*
X151393820Y-133431502D01*
X151513518Y-133467812D01*
X151638000Y-133480072D01*
X153162000Y-133480072D01*
X153286482Y-133467812D01*
X153406180Y-133431502D01*
X153516494Y-133372537D01*
X153613185Y-133293185D01*
X153670000Y-133223956D01*
X153726815Y-133293185D01*
X153823506Y-133372537D01*
X153933820Y-133431502D01*
X154053518Y-133467812D01*
X154178000Y-133480072D01*
X155702000Y-133480072D01*
X155826482Y-133467812D01*
X155946180Y-133431502D01*
X156056494Y-133372537D01*
X156153185Y-133293185D01*
X156232537Y-133196494D01*
X156291502Y-133086180D01*
X156327812Y-132966482D01*
X156340072Y-132842000D01*
X156340072Y-132055695D01*
X186646520Y-132055695D01*
X186715822Y-132807938D01*
X186930548Y-133532208D01*
X187282445Y-134200670D01*
X187309452Y-134241088D01*
X187799119Y-134601276D01*
X190320395Y-132080000D01*
X190679605Y-132080000D01*
X193200881Y-134601276D01*
X193690548Y-134241088D01*
X194050849Y-133577118D01*
X194274694Y-132855615D01*
X194353480Y-132104305D01*
X194284178Y-131352062D01*
X194069452Y-130627792D01*
X193717555Y-129959330D01*
X193690548Y-129918912D01*
X193200881Y-129558724D01*
X190679605Y-132080000D01*
X190320395Y-132080000D01*
X187799119Y-129558724D01*
X187309452Y-129918912D01*
X186949151Y-130582882D01*
X186725306Y-131304385D01*
X186646520Y-132055695D01*
X156340072Y-132055695D01*
X156340072Y-131318000D01*
X156327812Y-131193518D01*
X156291502Y-131073820D01*
X156232537Y-130963506D01*
X156153185Y-130866815D01*
X156083956Y-130810000D01*
X156153185Y-130753185D01*
X156232537Y-130656494D01*
X156291502Y-130546180D01*
X156327812Y-130426482D01*
X156340072Y-130302000D01*
X156340072Y-129379119D01*
X187978724Y-129379119D01*
X190500000Y-131900395D01*
X193021276Y-129379119D01*
X192661088Y-128889452D01*
X191997118Y-128529151D01*
X191275615Y-128305306D01*
X190524305Y-128226520D01*
X189772062Y-128295822D01*
X189047792Y-128510548D01*
X188379330Y-128862445D01*
X188338912Y-128889452D01*
X187978724Y-129379119D01*
X156340072Y-129379119D01*
X156340072Y-128778000D01*
X156327812Y-128653518D01*
X156291502Y-128533820D01*
X156232537Y-128423506D01*
X156153185Y-128326815D01*
X156056494Y-128247463D01*
X155946180Y-128188498D01*
X155826482Y-128152188D01*
X155702000Y-128139928D01*
X155700000Y-128139928D01*
X155700000Y-101479784D01*
X155703676Y-101442461D01*
X155700000Y-101405138D01*
X155700000Y-101405129D01*
X155689003Y-101293476D01*
X155645546Y-101150215D01*
X155574974Y-101018186D01*
X155480001Y-100902461D01*
X155451003Y-100878663D01*
X150543025Y-95970686D01*
X150613937Y-95899774D01*
X150727205Y-95730256D01*
X150805226Y-95541898D01*
X150845000Y-95341939D01*
X150845000Y-95279801D01*
X152911003Y-93213799D01*
X152940001Y-93190001D01*
X152972007Y-93151002D01*
X153034974Y-93074277D01*
X153105546Y-92942247D01*
X153115637Y-92908980D01*
X153149003Y-92798986D01*
X153160000Y-92687333D01*
X153160000Y-92687324D01*
X153163676Y-92650001D01*
X153160000Y-92612678D01*
X153160000Y-75020000D01*
X164921928Y-75020000D01*
X164934188Y-75144482D01*
X164970498Y-75264180D01*
X165029463Y-75374494D01*
X165108815Y-75471185D01*
X165205506Y-75550537D01*
X165315820Y-75609502D01*
X165435518Y-75645812D01*
X165560000Y-75658072D01*
X165974250Y-75655000D01*
X166133000Y-75496250D01*
X166133000Y-74247000D01*
X165083750Y-74247000D01*
X164925000Y-74405750D01*
X164921928Y-75020000D01*
X153160000Y-75020000D01*
X153160000Y-72520072D01*
X153162000Y-72520072D01*
X153286482Y-72507812D01*
X153406180Y-72471502D01*
X153516494Y-72412537D01*
X153613185Y-72333185D01*
X153670000Y-72263956D01*
X153726815Y-72333185D01*
X153823506Y-72412537D01*
X153933820Y-72471502D01*
X154053518Y-72507812D01*
X154178000Y-72520072D01*
X155702000Y-72520072D01*
X155826482Y-72507812D01*
X155946180Y-72471502D01*
X156056494Y-72412537D01*
X156153185Y-72333185D01*
X156232537Y-72236494D01*
X156291502Y-72126180D01*
X156327812Y-72006482D01*
X156340072Y-71882000D01*
X156340072Y-70358000D01*
X156327812Y-70233518D01*
X156291502Y-70113820D01*
X156232537Y-70003506D01*
X156153185Y-69906815D01*
X156083956Y-69850000D01*
X156153185Y-69793185D01*
X156232537Y-69696494D01*
X156291502Y-69586180D01*
X156327812Y-69466482D01*
X156340072Y-69342000D01*
X156340072Y-67818000D01*
X156327812Y-67693518D01*
X156291502Y-67573820D01*
X156232537Y-67463506D01*
X156153185Y-67366815D01*
X156056494Y-67287463D01*
X155946180Y-67228498D01*
X155826482Y-67192188D01*
X155702000Y-67179928D01*
X154178000Y-67179928D01*
X154053518Y-67192188D01*
X153933820Y-67228498D01*
X153823506Y-67287463D01*
X153726815Y-67366815D01*
X153670000Y-67436044D01*
X153613185Y-67366815D01*
X153516494Y-67287463D01*
X153406180Y-67228498D01*
X153286482Y-67192188D01*
X153162000Y-67179928D01*
X151638000Y-67179928D01*
X151513518Y-67192188D01*
X151393820Y-67228498D01*
X151283506Y-67287463D01*
X151186815Y-67366815D01*
X151130000Y-67436044D01*
X151073185Y-67366815D01*
X150976494Y-67287463D01*
X150866180Y-67228498D01*
X150746482Y-67192188D01*
X150622000Y-67179928D01*
X149098000Y-67179928D01*
X148973518Y-67192188D01*
X148853820Y-67228498D01*
X148743506Y-67287463D01*
X148646815Y-67366815D01*
X148590000Y-67436044D01*
X148533185Y-67366815D01*
X148436494Y-67287463D01*
X148326180Y-67228498D01*
X148206482Y-67192188D01*
X148082000Y-67179928D01*
X146558000Y-67179928D01*
X146433518Y-67192188D01*
X146313820Y-67228498D01*
X146203506Y-67287463D01*
X146106815Y-67366815D01*
X146050000Y-67436044D01*
X145993185Y-67366815D01*
X145896494Y-67287463D01*
X145786180Y-67228498D01*
X145666482Y-67192188D01*
X145542000Y-67179928D01*
X144018000Y-67179928D01*
X143893518Y-67192188D01*
X143773820Y-67228498D01*
X143663506Y-67287463D01*
X143566815Y-67366815D01*
X143510000Y-67436044D01*
X143453185Y-67366815D01*
X143356494Y-67287463D01*
X143246180Y-67228498D01*
X143126482Y-67192188D01*
X143002000Y-67179928D01*
X141478000Y-67179928D01*
X141353518Y-67192188D01*
X141233820Y-67228498D01*
X141123506Y-67287463D01*
X141026815Y-67366815D01*
X140970000Y-67436044D01*
X140913185Y-67366815D01*
X140816494Y-67287463D01*
X140706180Y-67228498D01*
X140586482Y-67192188D01*
X140462000Y-67179928D01*
X138938000Y-67179928D01*
X138813518Y-67192188D01*
X138693820Y-67228498D01*
X138583506Y-67287463D01*
X138486815Y-67366815D01*
X138430000Y-67436044D01*
X138373185Y-67366815D01*
X138276494Y-67287463D01*
X138166180Y-67228498D01*
X138046482Y-67192188D01*
X137922000Y-67179928D01*
X136398000Y-67179928D01*
X136273518Y-67192188D01*
X136153820Y-67228498D01*
X136043506Y-67287463D01*
X135946815Y-67366815D01*
X135890000Y-67436044D01*
X135833185Y-67366815D01*
X135736494Y-67287463D01*
X135626180Y-67228498D01*
X135506482Y-67192188D01*
X135382000Y-67179928D01*
X133858000Y-67179928D01*
X133733518Y-67192188D01*
X133613820Y-67228498D01*
X133503506Y-67287463D01*
X133406815Y-67366815D01*
X133350000Y-67436044D01*
X133293185Y-67366815D01*
X133196494Y-67287463D01*
X133086180Y-67228498D01*
X132966482Y-67192188D01*
X132842000Y-67179928D01*
X131318000Y-67179928D01*
X131193518Y-67192188D01*
X131073820Y-67228498D01*
X130963506Y-67287463D01*
X130866815Y-67366815D01*
X130810000Y-67436044D01*
X130753185Y-67366815D01*
X130656494Y-67287463D01*
X130546180Y-67228498D01*
X130426482Y-67192188D01*
X130302000Y-67179928D01*
X128778000Y-67179928D01*
X128653518Y-67192188D01*
X128533820Y-67228498D01*
X128423506Y-67287463D01*
X128326815Y-67366815D01*
X128270000Y-67436044D01*
X128213185Y-67366815D01*
X128116494Y-67287463D01*
X128006180Y-67228498D01*
X127886482Y-67192188D01*
X127762000Y-67179928D01*
X127111651Y-67179928D01*
X127886579Y-66405000D01*
X160033422Y-66405000D01*
X166213421Y-72585000D01*
X166132998Y-72585000D01*
X166132998Y-72743748D01*
X165974250Y-72585000D01*
X165560000Y-72581928D01*
X165435518Y-72594188D01*
X165315820Y-72630498D01*
X165205506Y-72689463D01*
X165108815Y-72768815D01*
X165029463Y-72865506D01*
X164970498Y-72975820D01*
X164934188Y-73095518D01*
X164921928Y-73220000D01*
X164925000Y-73834250D01*
X165083750Y-73993000D01*
X166133000Y-73993000D01*
X166133000Y-73973000D01*
X166387000Y-73973000D01*
X166387000Y-73993000D01*
X166407000Y-73993000D01*
X166407000Y-74247000D01*
X166387000Y-74247000D01*
X166387000Y-75496250D01*
X166545750Y-75655000D01*
X166960000Y-75658072D01*
X167084482Y-75645812D01*
X167204180Y-75609502D01*
X167314494Y-75550537D01*
X167411185Y-75471185D01*
X167490537Y-75374494D01*
X167549502Y-75264180D01*
X167585812Y-75144482D01*
X167598072Y-75020000D01*
X167597483Y-74902258D01*
X167684618Y-75065275D01*
X167851446Y-75268555D01*
X168054726Y-75435382D01*
X168286647Y-75559347D01*
X168538295Y-75635683D01*
X168800000Y-75661459D01*
X169061706Y-75635683D01*
X169313354Y-75559347D01*
X169545275Y-75435382D01*
X169748555Y-75268555D01*
X169915382Y-75065275D01*
X170039347Y-74833353D01*
X170070000Y-74732303D01*
X170100653Y-74833354D01*
X170224618Y-75065275D01*
X170391446Y-75268555D01*
X170594726Y-75435382D01*
X170826647Y-75559347D01*
X171078295Y-75635683D01*
X171340000Y-75661459D01*
X171601706Y-75635683D01*
X171853354Y-75559347D01*
X172085275Y-75435382D01*
X172288555Y-75268555D01*
X172455382Y-75065275D01*
X172579347Y-74833353D01*
X172610000Y-74732303D01*
X172640653Y-74833354D01*
X172764618Y-75065275D01*
X172931446Y-75268555D01*
X173134726Y-75435382D01*
X173366647Y-75559347D01*
X173618295Y-75635683D01*
X173880000Y-75661459D01*
X174141706Y-75635683D01*
X174393354Y-75559347D01*
X174625275Y-75435382D01*
X174828555Y-75268555D01*
X174995382Y-75065275D01*
X175119347Y-74833353D01*
X175195683Y-74581705D01*
X175215000Y-74385578D01*
X175215000Y-73854421D01*
X175195683Y-73658294D01*
X175119347Y-73406646D01*
X175062343Y-73300000D01*
X175065199Y-73300000D01*
X180922353Y-79157155D01*
X180827047Y-79387244D01*
X180745000Y-79799721D01*
X180745000Y-80220279D01*
X180827047Y-80632756D01*
X180987988Y-81021302D01*
X181221637Y-81370983D01*
X181519017Y-81668363D01*
X181868698Y-81902012D01*
X182257244Y-82062953D01*
X182669721Y-82145000D01*
X183090279Y-82145000D01*
X183502756Y-82062953D01*
X183761130Y-81955931D01*
X189740000Y-87934802D01*
X189740001Y-94879928D01*
X189738000Y-94879928D01*
X189613518Y-94892188D01*
X189493820Y-94928498D01*
X189383506Y-94987463D01*
X189286815Y-95066815D01*
X189207463Y-95163506D01*
X189148498Y-95273820D01*
X189112188Y-95393518D01*
X189099928Y-95518000D01*
X189099928Y-97042000D01*
X189112188Y-97166482D01*
X189148498Y-97286180D01*
X189207463Y-97396494D01*
X189286815Y-97493185D01*
X189356044Y-97550000D01*
X189286815Y-97606815D01*
X189207463Y-97703506D01*
X189148498Y-97813820D01*
X189112188Y-97933518D01*
X189101701Y-98040000D01*
X183640000Y-98040000D01*
X183640000Y-89626105D01*
X183891302Y-89522012D01*
X184240983Y-89288363D01*
X184538363Y-88990983D01*
X184772012Y-88641302D01*
X184932953Y-88252756D01*
X185015000Y-87840279D01*
X185015000Y-87503439D01*
X185405000Y-87503439D01*
X185405000Y-87756561D01*
X185454381Y-88004821D01*
X185551247Y-88238676D01*
X185691875Y-88449140D01*
X185870860Y-88628125D01*
X186081324Y-88768753D01*
X186315179Y-88865619D01*
X186563439Y-88915000D01*
X186816561Y-88915000D01*
X187064821Y-88865619D01*
X187298676Y-88768753D01*
X187509140Y-88628125D01*
X187688125Y-88449140D01*
X187828753Y-88238676D01*
X187925619Y-88004821D01*
X187975000Y-87756561D01*
X187975000Y-87503439D01*
X187925619Y-87255179D01*
X187828753Y-87021324D01*
X187688125Y-86810860D01*
X187509140Y-86631875D01*
X187298676Y-86491247D01*
X187064821Y-86394381D01*
X186816561Y-86345000D01*
X186563439Y-86345000D01*
X186315179Y-86394381D01*
X186081324Y-86491247D01*
X185870860Y-86631875D01*
X185691875Y-86810860D01*
X185551247Y-87021324D01*
X185454381Y-87255179D01*
X185405000Y-87503439D01*
X185015000Y-87503439D01*
X185015000Y-87419721D01*
X184932953Y-87007244D01*
X184772012Y-86618698D01*
X184538363Y-86269017D01*
X184240983Y-85971637D01*
X183891302Y-85737988D01*
X183502756Y-85577047D01*
X183090279Y-85495000D01*
X182669721Y-85495000D01*
X182257244Y-85577047D01*
X181868698Y-85737988D01*
X181519017Y-85971637D01*
X181221637Y-86269017D01*
X180987988Y-86618698D01*
X180827047Y-87007244D01*
X180745000Y-87419721D01*
X180745000Y-87840279D01*
X180827047Y-88252756D01*
X180987988Y-88641302D01*
X181221637Y-88990983D01*
X181519017Y-89288363D01*
X181868698Y-89522012D01*
X182120000Y-89626105D01*
X182120001Y-98762657D01*
X182116323Y-98800000D01*
X182120000Y-98837333D01*
X182120001Y-104615197D01*
X178674059Y-108061140D01*
X178422756Y-107957047D01*
X178010279Y-107875000D01*
X177589721Y-107875000D01*
X177177244Y-107957047D01*
X176788698Y-108117988D01*
X176439017Y-108351637D01*
X176141637Y-108649017D01*
X176080000Y-108741263D01*
X176080000Y-87244801D01*
X177555941Y-85768860D01*
X177807244Y-85872953D01*
X178219721Y-85955000D01*
X178640279Y-85955000D01*
X179052756Y-85872953D01*
X179441302Y-85712012D01*
X179790983Y-85478363D01*
X180088363Y-85180983D01*
X180322012Y-84831302D01*
X180482953Y-84442756D01*
X180565000Y-84030279D01*
X180565000Y-83609721D01*
X180482953Y-83197244D01*
X180322012Y-82808698D01*
X180088363Y-82459017D01*
X179790983Y-82161637D01*
X179441302Y-81927988D01*
X179052756Y-81767047D01*
X178640279Y-81685000D01*
X178219721Y-81685000D01*
X177807244Y-81767047D01*
X177418698Y-81927988D01*
X177069017Y-82161637D01*
X176771637Y-82459017D01*
X176537988Y-82808698D01*
X176377047Y-83197244D01*
X176295000Y-83609721D01*
X176295000Y-84030279D01*
X176377047Y-84442756D01*
X176481140Y-84694059D01*
X174809003Y-86366196D01*
X174779999Y-86389999D01*
X174754624Y-86420919D01*
X174685026Y-86505724D01*
X174655688Y-86560611D01*
X174614454Y-86637754D01*
X174570997Y-86781015D01*
X174560000Y-86892668D01*
X174560000Y-86892678D01*
X174556324Y-86930000D01*
X174560000Y-86967322D01*
X174560001Y-111302667D01*
X174556324Y-111340000D01*
X174560001Y-111377333D01*
X174565011Y-111428194D01*
X174570998Y-111488985D01*
X174614454Y-111632246D01*
X174685026Y-111764276D01*
X174756201Y-111851002D01*
X174780000Y-111880001D01*
X174808998Y-111903799D01*
X175788998Y-112883800D01*
X175789003Y-112883804D01*
X175851140Y-112945941D01*
X175747047Y-113197244D01*
X175665000Y-113609721D01*
X175665000Y-114030279D01*
X175747047Y-114442756D01*
X175907988Y-114831302D01*
X176141637Y-115180983D01*
X176439017Y-115478363D01*
X176788698Y-115712012D01*
X176820054Y-115725000D01*
X176788698Y-115737988D01*
X176439017Y-115971637D01*
X176141637Y-116269017D01*
X175907988Y-116618698D01*
X175747047Y-117007244D01*
X175665000Y-117419721D01*
X175665000Y-117840279D01*
X175747047Y-118252756D01*
X175907988Y-118641302D01*
X176141637Y-118990983D01*
X176439017Y-119288363D01*
X176788698Y-119522012D01*
X177177244Y-119682953D01*
X177589721Y-119765000D01*
X178010279Y-119765000D01*
X178422756Y-119682953D01*
X178811302Y-119522012D01*
X179160983Y-119288363D01*
X179458363Y-118990983D01*
X179692012Y-118641302D01*
X179796105Y-118390000D01*
X181402678Y-118390000D01*
X181440000Y-118393676D01*
X181477322Y-118390000D01*
X181477333Y-118390000D01*
X181588986Y-118379003D01*
X181732247Y-118335546D01*
X181864276Y-118264974D01*
X181980001Y-118170001D01*
X182003804Y-118140997D01*
X182641362Y-117503439D01*
X185405000Y-117503439D01*
X185405000Y-117756561D01*
X185454381Y-118004821D01*
X185551247Y-118238676D01*
X185691875Y-118449140D01*
X185870860Y-118628125D01*
X186081324Y-118768753D01*
X186315179Y-118865619D01*
X186563439Y-118915000D01*
X186816561Y-118915000D01*
X187064821Y-118865619D01*
X187298676Y-118768753D01*
X187509140Y-118628125D01*
X187688125Y-118449140D01*
X187828753Y-118238676D01*
X187925619Y-118004821D01*
X187975000Y-117756561D01*
X187975000Y-117503439D01*
X187925619Y-117255179D01*
X187828753Y-117021324D01*
X187688125Y-116810860D01*
X187509140Y-116631875D01*
X187298676Y-116491247D01*
X187064821Y-116394381D01*
X186816561Y-116345000D01*
X186563439Y-116345000D01*
X186315179Y-116394381D01*
X186081324Y-116491247D01*
X185870860Y-116631875D01*
X185691875Y-116810860D01*
X185551247Y-117021324D01*
X185454381Y-117255179D01*
X185405000Y-117503439D01*
X182641362Y-117503439D01*
X190551888Y-109592914D01*
X190534381Y-109635179D01*
X190485000Y-109883439D01*
X190485000Y-110136561D01*
X190534381Y-110384821D01*
X190631247Y-110618676D01*
X190771875Y-110829140D01*
X190950860Y-111008125D01*
X191161324Y-111148753D01*
X191395179Y-111245619D01*
X191643439Y-111295000D01*
X191896561Y-111295000D01*
X192144821Y-111245619D01*
X192378676Y-111148753D01*
X192589140Y-111008125D01*
X192768125Y-110829140D01*
X192908753Y-110618676D01*
X193005619Y-110384821D01*
X193055000Y-110136561D01*
X193055000Y-109883439D01*
X193005619Y-109635179D01*
X192908753Y-109401324D01*
X192768125Y-109190860D01*
X192589140Y-109011875D01*
X192378676Y-108871247D01*
X192144821Y-108774381D01*
X191896561Y-108725000D01*
X191643439Y-108725000D01*
X191395179Y-108774381D01*
X191352914Y-108791888D01*
X192611004Y-107533798D01*
X192640001Y-107510001D01*
X192734974Y-107394276D01*
X192805546Y-107262247D01*
X192849003Y-107118986D01*
X192860000Y-107007333D01*
X192860000Y-107007332D01*
X192863677Y-106970000D01*
X192860000Y-106932667D01*
X192860000Y-97907333D01*
X192863677Y-97870000D01*
X192849003Y-97721014D01*
X192805546Y-97577753D01*
X192734974Y-97445724D01*
X192663799Y-97358997D01*
X192640001Y-97329999D01*
X192611003Y-97306201D01*
X191900072Y-96595270D01*
X191900072Y-95518000D01*
X191887812Y-95393518D01*
X191851502Y-95273820D01*
X191792537Y-95163506D01*
X191713185Y-95066815D01*
X191616494Y-94987463D01*
X191506180Y-94928498D01*
X191386482Y-94892188D01*
X191262000Y-94879928D01*
X191260000Y-94879928D01*
X191260000Y-87657322D01*
X191263676Y-87619999D01*
X191260000Y-87582676D01*
X191260000Y-87582667D01*
X191249003Y-87471014D01*
X191205546Y-87327753D01*
X191134974Y-87195724D01*
X191040001Y-87079999D01*
X191011004Y-87056202D01*
X184831789Y-80876988D01*
X184932953Y-80632756D01*
X185015000Y-80220279D01*
X185015000Y-79883439D01*
X190495000Y-79883439D01*
X190495000Y-80136561D01*
X190544381Y-80384821D01*
X190641247Y-80618676D01*
X190781875Y-80829140D01*
X190960860Y-81008125D01*
X191171324Y-81148753D01*
X191405179Y-81245619D01*
X191653439Y-81295000D01*
X191906561Y-81295000D01*
X192154821Y-81245619D01*
X192388676Y-81148753D01*
X192599140Y-81008125D01*
X192778125Y-80829140D01*
X192918753Y-80618676D01*
X193015619Y-80384821D01*
X193065000Y-80136561D01*
X193065000Y-79883439D01*
X193015619Y-79635179D01*
X192918753Y-79401324D01*
X192778125Y-79190860D01*
X192599140Y-79011875D01*
X192388676Y-78871247D01*
X192154821Y-78774381D01*
X191906561Y-78725000D01*
X191653439Y-78725000D01*
X191405179Y-78774381D01*
X191171324Y-78871247D01*
X190960860Y-79011875D01*
X190781875Y-79190860D01*
X190641247Y-79401324D01*
X190544381Y-79635179D01*
X190495000Y-79883439D01*
X185015000Y-79883439D01*
X185015000Y-79799721D01*
X184932953Y-79387244D01*
X184772012Y-78998698D01*
X184538363Y-78649017D01*
X184240983Y-78351637D01*
X183891302Y-78117988D01*
X183502756Y-77957047D01*
X183090279Y-77875000D01*
X182669721Y-77875000D01*
X182257244Y-77957047D01*
X181984728Y-78069927D01*
X175943804Y-72029003D01*
X175920001Y-71999999D01*
X175804276Y-71905026D01*
X175672247Y-71834454D01*
X175528986Y-71790997D01*
X175417333Y-71780000D01*
X175417322Y-71780000D01*
X175380000Y-71776324D01*
X175342678Y-71780000D01*
X172757325Y-71780000D01*
X172720000Y-71776324D01*
X172682675Y-71780000D01*
X172682667Y-71780000D01*
X172571014Y-71790997D01*
X172427753Y-71834454D01*
X172295724Y-71905026D01*
X172179999Y-71999999D01*
X172156201Y-72028997D01*
X171582749Y-72602450D01*
X171340000Y-72578541D01*
X171078294Y-72604317D01*
X170826646Y-72680653D01*
X170594725Y-72804618D01*
X170391445Y-72971445D01*
X170224618Y-73174726D01*
X170100653Y-73406647D01*
X170070000Y-73507697D01*
X170039347Y-73406646D01*
X169915382Y-73174725D01*
X169748555Y-72971445D01*
X169545274Y-72804618D01*
X169313353Y-72680653D01*
X169061705Y-72604317D01*
X168800000Y-72578541D01*
X168718179Y-72586600D01*
X167412460Y-71280881D01*
X187978724Y-71280881D01*
X188338912Y-71770548D01*
X189002882Y-72130849D01*
X189724385Y-72354694D01*
X190475695Y-72433480D01*
X191227938Y-72364178D01*
X191952208Y-72149452D01*
X192620670Y-71797555D01*
X192661088Y-71770548D01*
X193021276Y-71280881D01*
X190500000Y-68759605D01*
X187978724Y-71280881D01*
X167412460Y-71280881D01*
X164687274Y-68555695D01*
X186646520Y-68555695D01*
X186715822Y-69307938D01*
X186930548Y-70032208D01*
X187282445Y-70700670D01*
X187309452Y-70741088D01*
X187799119Y-71101276D01*
X190320395Y-68580000D01*
X190679605Y-68580000D01*
X193200881Y-71101276D01*
X193690548Y-70741088D01*
X194050849Y-70077118D01*
X194274694Y-69355615D01*
X194353480Y-68604305D01*
X194284178Y-67852062D01*
X194069452Y-67127792D01*
X193717555Y-66459330D01*
X193690548Y-66418912D01*
X193200881Y-66058724D01*
X190679605Y-68580000D01*
X190320395Y-68580000D01*
X187799119Y-66058724D01*
X187309452Y-66418912D01*
X186949151Y-67082882D01*
X186725306Y-67804385D01*
X186646520Y-68555695D01*
X164687274Y-68555695D01*
X162010698Y-65879119D01*
X187978724Y-65879119D01*
X190500000Y-68400395D01*
X193021276Y-65879119D01*
X192661088Y-65389452D01*
X191997118Y-65029151D01*
X191275615Y-64805306D01*
X190524305Y-64726520D01*
X189772062Y-64795822D01*
X189047792Y-65010548D01*
X188379330Y-65362445D01*
X188338912Y-65389452D01*
X187978724Y-65879119D01*
X162010698Y-65879119D01*
X161056534Y-64924956D01*
X161028817Y-64891183D01*
X160894059Y-64780589D01*
X160740313Y-64698411D01*
X160573490Y-64647805D01*
X160443477Y-64635000D01*
X160443469Y-64635000D01*
X160400000Y-64630719D01*
X160356531Y-64635000D01*
X127563469Y-64635000D01*
X127520000Y-64630719D01*
X127476531Y-64635000D01*
X127476523Y-64635000D01*
X127346510Y-64647805D01*
X127179686Y-64698411D01*
X127025941Y-64780589D01*
X126924953Y-64863468D01*
X126924951Y-64863470D01*
X126891183Y-64891183D01*
X126863470Y-64924951D01*
X124608494Y-67179928D01*
X123698000Y-67179928D01*
X123573518Y-67192188D01*
X123453820Y-67228498D01*
X123343506Y-67287463D01*
X123246815Y-67366815D01*
X123190000Y-67436044D01*
X123133185Y-67366815D01*
X123036494Y-67287463D01*
X122926180Y-67228498D01*
X122806482Y-67192188D01*
X122682000Y-67179928D01*
X122205750Y-67183000D01*
X122047000Y-67341750D01*
X122047000Y-68453000D01*
X122067000Y-68453000D01*
X122067000Y-68707000D01*
X122047000Y-68707000D01*
X122047000Y-69818250D01*
X122078750Y-69850000D01*
X122047000Y-69881750D01*
X122047000Y-70993000D01*
X122067000Y-70993000D01*
X122067000Y-71247000D01*
X122047000Y-71247000D01*
X122047000Y-72358250D01*
X122205750Y-72517000D01*
X122682000Y-72520072D01*
X122806482Y-72507812D01*
X122926180Y-72471502D01*
X123036494Y-72412537D01*
X123133185Y-72333185D01*
X123190000Y-72263956D01*
X123246815Y-72333185D01*
X123251440Y-72336981D01*
X121224956Y-74363466D01*
X121191183Y-74391183D01*
X121080589Y-74525942D01*
X120998411Y-74679688D01*
X120947805Y-74846511D01*
X120935000Y-74976524D01*
X120935000Y-74976531D01*
X120930719Y-75020000D01*
X120935000Y-75063469D01*
X120935001Y-86745000D01*
X120767958Y-86745000D01*
X120767812Y-86743518D01*
X120731502Y-86623820D01*
X120672537Y-86513506D01*
X120593185Y-86416815D01*
X120496494Y-86337463D01*
X120386180Y-86278498D01*
X120266482Y-86242188D01*
X120142000Y-86229928D01*
X118618000Y-86229928D01*
X118493518Y-86242188D01*
X118373820Y-86278498D01*
X118263506Y-86337463D01*
X118166815Y-86416815D01*
X118110000Y-86486044D01*
X118053185Y-86416815D01*
X117956494Y-86337463D01*
X117846180Y-86278498D01*
X117726482Y-86242188D01*
X117602000Y-86229928D01*
X117125750Y-86233000D01*
X116967000Y-86391750D01*
X116967000Y-87503000D01*
X116987000Y-87503000D01*
X116987000Y-87757000D01*
X116967000Y-87757000D01*
X116967000Y-87777000D01*
X116713000Y-87777000D01*
X116713000Y-87757000D01*
X115601750Y-87757000D01*
X115443000Y-87915750D01*
X115439928Y-88392000D01*
X115452188Y-88516482D01*
X115488498Y-88636180D01*
X115547463Y-88746494D01*
X115626815Y-88843185D01*
X115696044Y-88900000D01*
X115626815Y-88956815D01*
X115547463Y-89053506D01*
X115488498Y-89163820D01*
X115452188Y-89283518D01*
X115439928Y-89408000D01*
X115439928Y-90932000D01*
X115452188Y-91056482D01*
X115488498Y-91176180D01*
X115547463Y-91286494D01*
X115626815Y-91383185D01*
X115696044Y-91440000D01*
X115626815Y-91496815D01*
X115547463Y-91593506D01*
X115488498Y-91703820D01*
X115452188Y-91823518D01*
X115439928Y-91948000D01*
X115439928Y-93472000D01*
X115452188Y-93596482D01*
X115488498Y-93716180D01*
X115547463Y-93826494D01*
X115626815Y-93923185D01*
X115696044Y-93980000D01*
X115626815Y-94036815D01*
X115547463Y-94133506D01*
X115488498Y-94243820D01*
X115452188Y-94363518D01*
X115439928Y-94488000D01*
X115439928Y-96012000D01*
X115452188Y-96136482D01*
X115488498Y-96256180D01*
X115547463Y-96366494D01*
X115626815Y-96463185D01*
X115723506Y-96542537D01*
X115833820Y-96601502D01*
X115953518Y-96637812D01*
X116078000Y-96650072D01*
X117602000Y-96650072D01*
X117726482Y-96637812D01*
X117846180Y-96601502D01*
X117956494Y-96542537D01*
X118053185Y-96463185D01*
X118110000Y-96393956D01*
X118166815Y-96463185D01*
X118263506Y-96542537D01*
X118373820Y-96601502D01*
X118493518Y-96637812D01*
X118618000Y-96650072D01*
X120142000Y-96650072D01*
X120266482Y-96637812D01*
X120386180Y-96601502D01*
X120496494Y-96542537D01*
X120593185Y-96463185D01*
X120672537Y-96366494D01*
X120731502Y-96256180D01*
X120767812Y-96136482D01*
X120780072Y-96012000D01*
X120780072Y-94488000D01*
X120767812Y-94363518D01*
X120731502Y-94243820D01*
X120672537Y-94133506D01*
X120593185Y-94036815D01*
X120523956Y-93980000D01*
X120593185Y-93923185D01*
X120672537Y-93826494D01*
X120731502Y-93716180D01*
X120767812Y-93596482D01*
X120780072Y-93472000D01*
X120780072Y-91948000D01*
X120767812Y-91823518D01*
X120731502Y-91703820D01*
X120672537Y-91593506D01*
X120593185Y-91496815D01*
X120523956Y-91440000D01*
X120593185Y-91383185D01*
X120672537Y-91286494D01*
X120731502Y-91176180D01*
X120767812Y-91056482D01*
X120780072Y-90932000D01*
X120780072Y-89408000D01*
X120767812Y-89283518D01*
X120731502Y-89163820D01*
X120672537Y-89053506D01*
X120593185Y-88956815D01*
X120523956Y-88900000D01*
X120593185Y-88843185D01*
X120672537Y-88746494D01*
X120731502Y-88636180D01*
X120767812Y-88516482D01*
X120767958Y-88515000D01*
X120935000Y-88515000D01*
X120935001Y-90026523D01*
X120935000Y-97503421D01*
X119508494Y-98929928D01*
X118618000Y-98929928D01*
X118493518Y-98942188D01*
X118373820Y-98978498D01*
X118263506Y-99037463D01*
X118166815Y-99116815D01*
X118110000Y-99186044D01*
X118053185Y-99116815D01*
X117956494Y-99037463D01*
X117846180Y-98978498D01*
X117726482Y-98942188D01*
X117602000Y-98929928D01*
X117125750Y-98933000D01*
X116967000Y-99091750D01*
X116967000Y-100203000D01*
X116987000Y-100203000D01*
X116987000Y-100457000D01*
X116967000Y-100457000D01*
X116967000Y-100477000D01*
X116713000Y-100477000D01*
X116713000Y-100457000D01*
X115601750Y-100457000D01*
X115443000Y-100615750D01*
X115441380Y-100866953D01*
X115317753Y-100904454D01*
X115185724Y-100975026D01*
X115185722Y-100975027D01*
X115185723Y-100975027D01*
X115098996Y-101046201D01*
X115098992Y-101046205D01*
X115069999Y-101069999D01*
X115046205Y-101098992D01*
X114488987Y-101656212D01*
X114459990Y-101680009D01*
X114436192Y-101709007D01*
X114436191Y-101709008D01*
X114365016Y-101795734D01*
X114294444Y-101927764D01*
X114250988Y-102071025D01*
X114236314Y-102220010D01*
X114239991Y-102257342D01*
X114239990Y-113882668D01*
X114236314Y-113919990D01*
X114239990Y-113957312D01*
X114239990Y-113957322D01*
X114250987Y-114068975D01*
X114285329Y-114182188D01*
X114294444Y-114212236D01*
X114365016Y-114344266D01*
X114375315Y-114356815D01*
X114459989Y-114459991D01*
X114488993Y-114483794D01*
X115439928Y-115434730D01*
X115439928Y-116332000D01*
X115452188Y-116456482D01*
X115488498Y-116576180D01*
X115547463Y-116686494D01*
X115626815Y-116783185D01*
X115696044Y-116840000D01*
X115626815Y-116896815D01*
X115547463Y-116993506D01*
X115488498Y-117103820D01*
X115452188Y-117223518D01*
X115439928Y-117348000D01*
X115439928Y-118872000D01*
X115452188Y-118996482D01*
X115488498Y-119116180D01*
X115547463Y-119226494D01*
X115626815Y-119323185D01*
X115723506Y-119402537D01*
X115833820Y-119461502D01*
X115953518Y-119497812D01*
X116078000Y-119510072D01*
X116080000Y-119510072D01*
X116080001Y-121205670D01*
X116076324Y-121243002D01*
X116090998Y-121391987D01*
X116134454Y-121535248D01*
X116205026Y-121667278D01*
X116276201Y-121754004D01*
X116300000Y-121783003D01*
X116328998Y-121806801D01*
X118222207Y-123700011D01*
X113881590Y-123700011D01*
X100866534Y-110684956D01*
X100838817Y-110651183D01*
X100704059Y-110540589D01*
X100550313Y-110458411D01*
X100383490Y-110407805D01*
X100348072Y-110404317D01*
X100348072Y-109780000D01*
X100335812Y-109655518D01*
X100299502Y-109535820D01*
X100240537Y-109425506D01*
X100161185Y-109328815D01*
X100064494Y-109249463D01*
X99954180Y-109190498D01*
X99834482Y-109154188D01*
X99710000Y-109141928D01*
X99599650Y-109141928D01*
X109173578Y-99568000D01*
X115439928Y-99568000D01*
X115443000Y-100044250D01*
X115601750Y-100203000D01*
X116713000Y-100203000D01*
X116713000Y-99091750D01*
X116554250Y-98933000D01*
X116078000Y-98929928D01*
X115953518Y-98942188D01*
X115833820Y-98978498D01*
X115723506Y-99037463D01*
X115626815Y-99116815D01*
X115547463Y-99213506D01*
X115488498Y-99323820D01*
X115452188Y-99443518D01*
X115439928Y-99568000D01*
X109173578Y-99568000D01*
X110375051Y-98366528D01*
X110408817Y-98338817D01*
X110440108Y-98300690D01*
X110519411Y-98204059D01*
X110522072Y-98199081D01*
X110601589Y-98050313D01*
X110640544Y-97921898D01*
X110652195Y-97883491D01*
X110653926Y-97865914D01*
X110665000Y-97753477D01*
X110665000Y-97753469D01*
X110669281Y-97710000D01*
X110665000Y-97666531D01*
X110665000Y-86868000D01*
X115439928Y-86868000D01*
X115443000Y-87344250D01*
X115601750Y-87503000D01*
X116713000Y-87503000D01*
X116713000Y-86391750D01*
X116554250Y-86233000D01*
X116078000Y-86229928D01*
X115953518Y-86242188D01*
X115833820Y-86278498D01*
X115723506Y-86337463D01*
X115626815Y-86416815D01*
X115547463Y-86513506D01*
X115488498Y-86623820D01*
X115452188Y-86743518D01*
X115439928Y-86868000D01*
X110665000Y-86868000D01*
X110665000Y-86554625D01*
X110754482Y-86545812D01*
X110874180Y-86509502D01*
X110984494Y-86450537D01*
X111081185Y-86371185D01*
X111160537Y-86274494D01*
X111219502Y-86164180D01*
X111255812Y-86044482D01*
X111268072Y-85920000D01*
X111268072Y-84220000D01*
X111255812Y-84095518D01*
X111219502Y-83975820D01*
X111160537Y-83865506D01*
X111081185Y-83768815D01*
X110984494Y-83689463D01*
X110874180Y-83630498D01*
X110832310Y-83617797D01*
X110933475Y-83516632D01*
X111095990Y-83273411D01*
X111207932Y-83003158D01*
X111265000Y-82716260D01*
X111265000Y-82423740D01*
X111207932Y-82136842D01*
X111095990Y-81866589D01*
X110933475Y-81623368D01*
X110726632Y-81416525D01*
X110483411Y-81254010D01*
X110213158Y-81142068D01*
X109926260Y-81085000D01*
X109633740Y-81085000D01*
X109346842Y-81142068D01*
X109076589Y-81254010D01*
X108833368Y-81416525D01*
X108780000Y-81469893D01*
X108726632Y-81416525D01*
X108483411Y-81254010D01*
X108213158Y-81142068D01*
X107926260Y-81085000D01*
X107633740Y-81085000D01*
X107346842Y-81142068D01*
X107076589Y-81254010D01*
X106833368Y-81416525D01*
X106626525Y-81623368D01*
X106464010Y-81866589D01*
X106352068Y-82136842D01*
X106295000Y-82423740D01*
X106295000Y-82716260D01*
X106352068Y-83003158D01*
X106464010Y-83273411D01*
X106626525Y-83516632D01*
X106833368Y-83723475D01*
X106996410Y-83832416D01*
X106931208Y-84041603D01*
X107780000Y-84890395D01*
X107794143Y-84876253D01*
X107973748Y-85055858D01*
X107959605Y-85070000D01*
X107973748Y-85084143D01*
X107794143Y-85263748D01*
X107780000Y-85249605D01*
X106931208Y-86098397D01*
X107008843Y-86347472D01*
X107272883Y-86473371D01*
X107556411Y-86545339D01*
X107848531Y-86560611D01*
X108138019Y-86518599D01*
X108413747Y-86420919D01*
X108489850Y-86380241D01*
X108575506Y-86450537D01*
X108685820Y-86509502D01*
X108805518Y-86545812D01*
X108895001Y-86554625D01*
X108895000Y-97343421D01*
X97614952Y-108623470D01*
X97581184Y-108651183D01*
X97553471Y-108684951D01*
X97553468Y-108684954D01*
X97470590Y-108785941D01*
X97388412Y-108939687D01*
X97337805Y-109106510D01*
X97334317Y-109141928D01*
X96710000Y-109141928D01*
X96585518Y-109154188D01*
X96465820Y-109190498D01*
X96355506Y-109249463D01*
X96258815Y-109328815D01*
X96179463Y-109425506D01*
X96120498Y-109535820D01*
X96084188Y-109655518D01*
X96071928Y-109780000D01*
X94894000Y-109780000D01*
X94894000Y-102204593D01*
X99465000Y-102204593D01*
X99465000Y-102955408D01*
X99487210Y-103180913D01*
X99574983Y-103470261D01*
X99717519Y-103736927D01*
X99909339Y-103970661D01*
X100143074Y-104162481D01*
X100409740Y-104305017D01*
X100699088Y-104392790D01*
X101000000Y-104422427D01*
X101300913Y-104392790D01*
X101590261Y-104305017D01*
X101856927Y-104162481D01*
X102090661Y-103970661D01*
X102282481Y-103736927D01*
X102425017Y-103470261D01*
X102512790Y-103180912D01*
X102535000Y-102955407D01*
X102535000Y-102204592D01*
X102512790Y-101979087D01*
X102425017Y-101689739D01*
X102282481Y-101423073D01*
X102090661Y-101189339D01*
X101856926Y-100997519D01*
X101590260Y-100854983D01*
X101300912Y-100767210D01*
X101000000Y-100737573D01*
X100699087Y-100767210D01*
X100409739Y-100854983D01*
X100143073Y-100997519D01*
X99909339Y-101189339D01*
X99717519Y-101423074D01*
X99574983Y-101689740D01*
X99487210Y-101979088D01*
X99465000Y-102204593D01*
X94894000Y-102204593D01*
X94894000Y-98444593D01*
X99465000Y-98444593D01*
X99465000Y-99195408D01*
X99487210Y-99420913D01*
X99574983Y-99710261D01*
X99717519Y-99976927D01*
X99909339Y-100210661D01*
X100143074Y-100402481D01*
X100409740Y-100545017D01*
X100699088Y-100632790D01*
X101000000Y-100662427D01*
X101300913Y-100632790D01*
X101590261Y-100545017D01*
X101856927Y-100402481D01*
X102090661Y-100210661D01*
X102282481Y-99976927D01*
X102425017Y-99710261D01*
X102512790Y-99420912D01*
X102535000Y-99195407D01*
X102535000Y-98444592D01*
X102512790Y-98219087D01*
X102425017Y-97929739D01*
X102282481Y-97663073D01*
X102090661Y-97429339D01*
X101856926Y-97237519D01*
X101590260Y-97094983D01*
X101300912Y-97007210D01*
X101000000Y-96977573D01*
X100699087Y-97007210D01*
X100409739Y-97094983D01*
X100143073Y-97237519D01*
X99909339Y-97429339D01*
X99717519Y-97663074D01*
X99574983Y-97929740D01*
X99487210Y-98219088D01*
X99465000Y-98444593D01*
X94894000Y-98444593D01*
X94894000Y-94684593D01*
X99465000Y-94684593D01*
X99465000Y-95435408D01*
X99487210Y-95660913D01*
X99574983Y-95950261D01*
X99717519Y-96216927D01*
X99909339Y-96450661D01*
X100143074Y-96642481D01*
X100409740Y-96785017D01*
X100699088Y-96872790D01*
X101000000Y-96902427D01*
X101300913Y-96872790D01*
X101590261Y-96785017D01*
X101856927Y-96642481D01*
X102090661Y-96450661D01*
X102282481Y-96216927D01*
X102425017Y-95950261D01*
X102512790Y-95660912D01*
X102535000Y-95435407D01*
X102535000Y-94684592D01*
X102512790Y-94459087D01*
X102425017Y-94169739D01*
X102282481Y-93903073D01*
X102090661Y-93669339D01*
X101856926Y-93477519D01*
X101590260Y-93334983D01*
X101300912Y-93247210D01*
X101000000Y-93217573D01*
X100699087Y-93247210D01*
X100409739Y-93334983D01*
X100143073Y-93477519D01*
X99909339Y-93669339D01*
X99717519Y-93903074D01*
X99574983Y-94169740D01*
X99487210Y-94459088D01*
X99465000Y-94684593D01*
X94894000Y-94684593D01*
X94894000Y-91509609D01*
X103579997Y-91509609D01*
X103766073Y-91850766D01*
X104183409Y-92066513D01*
X104634815Y-92196696D01*
X105102946Y-92236313D01*
X105569811Y-92183842D01*
X106017468Y-92041297D01*
X106373927Y-91850766D01*
X106560003Y-91509609D01*
X105070000Y-90019605D01*
X103579997Y-91509609D01*
X94894000Y-91509609D01*
X94894000Y-89872946D01*
X102673687Y-89872946D01*
X102726158Y-90339811D01*
X102868703Y-90787468D01*
X103059234Y-91143927D01*
X103400391Y-91330003D01*
X104890395Y-89840000D01*
X105249605Y-89840000D01*
X106739609Y-91330003D01*
X107080766Y-91143927D01*
X107296513Y-90726591D01*
X107426696Y-90275185D01*
X107466313Y-89807054D01*
X107413842Y-89340189D01*
X107271297Y-88892532D01*
X107080766Y-88536073D01*
X106739609Y-88349997D01*
X105249605Y-89840000D01*
X104890395Y-89840000D01*
X103400391Y-88349997D01*
X103059234Y-88536073D01*
X102843487Y-88953409D01*
X102713304Y-89404815D01*
X102673687Y-89872946D01*
X94894000Y-89872946D01*
X94894000Y-88170391D01*
X103579997Y-88170391D01*
X105070000Y-89660395D01*
X106560003Y-88170391D01*
X106373927Y-87829234D01*
X105956591Y-87613487D01*
X105505185Y-87483304D01*
X105037054Y-87443687D01*
X104570189Y-87496158D01*
X104122532Y-87638703D01*
X103766073Y-87829234D01*
X103579997Y-88170391D01*
X94894000Y-88170391D01*
X94894000Y-85138531D01*
X106289389Y-85138531D01*
X106331401Y-85428019D01*
X106429081Y-85703747D01*
X106502528Y-85841157D01*
X106751603Y-85918792D01*
X107600395Y-85070000D01*
X106751603Y-84221208D01*
X106502528Y-84298843D01*
X106376629Y-84562883D01*
X106304661Y-84846411D01*
X106289389Y-85138531D01*
X94894000Y-85138531D01*
X94894000Y-79469609D01*
X103579997Y-79469609D01*
X103766073Y-79810766D01*
X104183409Y-80026513D01*
X104634815Y-80156696D01*
X105102946Y-80196313D01*
X105569811Y-80143842D01*
X106017468Y-80001297D01*
X106373927Y-79810766D01*
X106560003Y-79469609D01*
X105070000Y-77979605D01*
X103579997Y-79469609D01*
X94894000Y-79469609D01*
X94894000Y-77832946D01*
X102673687Y-77832946D01*
X102726158Y-78299811D01*
X102868703Y-78747468D01*
X103059234Y-79103927D01*
X103400391Y-79290003D01*
X104890395Y-77800000D01*
X105249605Y-77800000D01*
X106739609Y-79290003D01*
X107080766Y-79103927D01*
X107296513Y-78686591D01*
X107426696Y-78235185D01*
X107466313Y-77767054D01*
X107413842Y-77300189D01*
X107271297Y-76852532D01*
X107080766Y-76496073D01*
X106739609Y-76309997D01*
X105249605Y-77800000D01*
X104890395Y-77800000D01*
X103400391Y-76309997D01*
X103059234Y-76496073D01*
X102843487Y-76913409D01*
X102713304Y-77364815D01*
X102673687Y-77832946D01*
X94894000Y-77832946D01*
X94894000Y-76130391D01*
X103579997Y-76130391D01*
X105070000Y-77620395D01*
X106560003Y-76130391D01*
X106373927Y-75789234D01*
X105956591Y-75573487D01*
X105505185Y-75443304D01*
X105037054Y-75403687D01*
X104570189Y-75456158D01*
X104122532Y-75598703D01*
X103766073Y-75789234D01*
X103579997Y-76130391D01*
X94894000Y-76130391D01*
X94894000Y-71280881D01*
X96538724Y-71280881D01*
X96898912Y-71770548D01*
X97562882Y-72130849D01*
X98284385Y-72354694D01*
X99035695Y-72433480D01*
X99787938Y-72364178D01*
X100512208Y-72149452D01*
X101180670Y-71797555D01*
X101221088Y-71770548D01*
X101581276Y-71280881D01*
X99060000Y-68759605D01*
X96538724Y-71280881D01*
X94894000Y-71280881D01*
X94894000Y-68555695D01*
X95206520Y-68555695D01*
X95275822Y-69307938D01*
X95490548Y-70032208D01*
X95842445Y-70700670D01*
X95869452Y-70741088D01*
X96359119Y-71101276D01*
X98880395Y-68580000D01*
X99239605Y-68580000D01*
X101760881Y-71101276D01*
X101954346Y-70958967D01*
X109975000Y-70958967D01*
X109975000Y-71281033D01*
X110037832Y-71596912D01*
X110161082Y-71894463D01*
X110340013Y-72162252D01*
X110567748Y-72389987D01*
X110835537Y-72568918D01*
X111133088Y-72692168D01*
X111448967Y-72755000D01*
X111771033Y-72755000D01*
X112086912Y-72692168D01*
X112384463Y-72568918D01*
X112652252Y-72389987D01*
X112879987Y-72162252D01*
X113058918Y-71894463D01*
X113182168Y-71596912D01*
X113245000Y-71281033D01*
X113245000Y-70958967D01*
X116475000Y-70958967D01*
X116475000Y-71281033D01*
X116537832Y-71596912D01*
X116661082Y-71894463D01*
X116840013Y-72162252D01*
X117067748Y-72389987D01*
X117335537Y-72568918D01*
X117633088Y-72692168D01*
X117948967Y-72755000D01*
X118271033Y-72755000D01*
X118586912Y-72692168D01*
X118884463Y-72568918D01*
X119152252Y-72389987D01*
X119379987Y-72162252D01*
X119558918Y-71894463D01*
X119564080Y-71882000D01*
X120519928Y-71882000D01*
X120532188Y-72006482D01*
X120568498Y-72126180D01*
X120627463Y-72236494D01*
X120706815Y-72333185D01*
X120803506Y-72412537D01*
X120913820Y-72471502D01*
X121033518Y-72507812D01*
X121158000Y-72520072D01*
X121634250Y-72517000D01*
X121793000Y-72358250D01*
X121793000Y-71247000D01*
X120681750Y-71247000D01*
X120523000Y-71405750D01*
X120519928Y-71882000D01*
X119564080Y-71882000D01*
X119682168Y-71596912D01*
X119745000Y-71281033D01*
X119745000Y-70958967D01*
X119682168Y-70643088D01*
X119558918Y-70345537D01*
X119379987Y-70077748D01*
X119152252Y-69850013D01*
X118884463Y-69671082D01*
X118586912Y-69547832D01*
X118271033Y-69485000D01*
X117948967Y-69485000D01*
X117633088Y-69547832D01*
X117335537Y-69671082D01*
X117067748Y-69850013D01*
X116840013Y-70077748D01*
X116661082Y-70345537D01*
X116537832Y-70643088D01*
X116475000Y-70958967D01*
X113245000Y-70958967D01*
X113182168Y-70643088D01*
X113058918Y-70345537D01*
X112879987Y-70077748D01*
X112652252Y-69850013D01*
X112384463Y-69671082D01*
X112086912Y-69547832D01*
X111771033Y-69485000D01*
X111448967Y-69485000D01*
X111133088Y-69547832D01*
X110835537Y-69671082D01*
X110567748Y-69850013D01*
X110340013Y-70077748D01*
X110161082Y-70345537D01*
X110037832Y-70643088D01*
X109975000Y-70958967D01*
X101954346Y-70958967D01*
X102250548Y-70741088D01*
X102610849Y-70077118D01*
X102834694Y-69355615D01*
X102836121Y-69342000D01*
X120519928Y-69342000D01*
X120532188Y-69466482D01*
X120568498Y-69586180D01*
X120627463Y-69696494D01*
X120706815Y-69793185D01*
X120776044Y-69850000D01*
X120706815Y-69906815D01*
X120627463Y-70003506D01*
X120568498Y-70113820D01*
X120532188Y-70233518D01*
X120519928Y-70358000D01*
X120523000Y-70834250D01*
X120681750Y-70993000D01*
X121793000Y-70993000D01*
X121793000Y-69881750D01*
X121761250Y-69850000D01*
X121793000Y-69818250D01*
X121793000Y-68707000D01*
X120681750Y-68707000D01*
X120523000Y-68865750D01*
X120519928Y-69342000D01*
X102836121Y-69342000D01*
X102913480Y-68604305D01*
X102844178Y-67852062D01*
X102815525Y-67755413D01*
X110654192Y-67755413D01*
X110749956Y-68019814D01*
X111039571Y-68160704D01*
X111351108Y-68242384D01*
X111672595Y-68261718D01*
X111991675Y-68217961D01*
X112296088Y-68112795D01*
X112470044Y-68019814D01*
X112565808Y-67755413D01*
X117154192Y-67755413D01*
X117249956Y-68019814D01*
X117539571Y-68160704D01*
X117851108Y-68242384D01*
X118172595Y-68261718D01*
X118491675Y-68217961D01*
X118796088Y-68112795D01*
X118970044Y-68019814D01*
X119043139Y-67818000D01*
X120519928Y-67818000D01*
X120523000Y-68294250D01*
X120681750Y-68453000D01*
X121793000Y-68453000D01*
X121793000Y-67341750D01*
X121634250Y-67183000D01*
X121158000Y-67179928D01*
X121033518Y-67192188D01*
X120913820Y-67228498D01*
X120803506Y-67287463D01*
X120706815Y-67366815D01*
X120627463Y-67463506D01*
X120568498Y-67573820D01*
X120532188Y-67693518D01*
X120519928Y-67818000D01*
X119043139Y-67818000D01*
X119065808Y-67755413D01*
X118110000Y-66799605D01*
X117154192Y-67755413D01*
X112565808Y-67755413D01*
X111610000Y-66799605D01*
X110654192Y-67755413D01*
X102815525Y-67755413D01*
X102629452Y-67127792D01*
X102395088Y-66682595D01*
X109968282Y-66682595D01*
X110012039Y-67001675D01*
X110117205Y-67306088D01*
X110210186Y-67480044D01*
X110474587Y-67575808D01*
X111430395Y-66620000D01*
X111789605Y-66620000D01*
X112745413Y-67575808D01*
X113009814Y-67480044D01*
X113150704Y-67190429D01*
X113232384Y-66878892D01*
X113244189Y-66682595D01*
X116468282Y-66682595D01*
X116512039Y-67001675D01*
X116617205Y-67306088D01*
X116710186Y-67480044D01*
X116974587Y-67575808D01*
X117930395Y-66620000D01*
X118289605Y-66620000D01*
X119245413Y-67575808D01*
X119509814Y-67480044D01*
X119650704Y-67190429D01*
X119732384Y-66878892D01*
X119751718Y-66557405D01*
X119707961Y-66238325D01*
X119602795Y-65933912D01*
X119509814Y-65759956D01*
X119245413Y-65664192D01*
X118289605Y-66620000D01*
X117930395Y-66620000D01*
X116974587Y-65664192D01*
X116710186Y-65759956D01*
X116569296Y-66049571D01*
X116487616Y-66361108D01*
X116468282Y-66682595D01*
X113244189Y-66682595D01*
X113251718Y-66557405D01*
X113207961Y-66238325D01*
X113102795Y-65933912D01*
X113009814Y-65759956D01*
X112745413Y-65664192D01*
X111789605Y-66620000D01*
X111430395Y-66620000D01*
X110474587Y-65664192D01*
X110210186Y-65759956D01*
X110069296Y-66049571D01*
X109987616Y-66361108D01*
X109968282Y-66682595D01*
X102395088Y-66682595D01*
X102277555Y-66459330D01*
X102250548Y-66418912D01*
X101760881Y-66058724D01*
X99239605Y-68580000D01*
X98880395Y-68580000D01*
X96359119Y-66058724D01*
X95869452Y-66418912D01*
X95509151Y-67082882D01*
X95285306Y-67804385D01*
X95206520Y-68555695D01*
X94894000Y-68555695D01*
X94894000Y-65879119D01*
X96538724Y-65879119D01*
X99060000Y-68400395D01*
X101581276Y-65879119D01*
X101291068Y-65484587D01*
X110654192Y-65484587D01*
X111610000Y-66440395D01*
X112565808Y-65484587D01*
X117154192Y-65484587D01*
X118110000Y-66440395D01*
X119065808Y-65484587D01*
X118970044Y-65220186D01*
X118680429Y-65079296D01*
X118368892Y-64997616D01*
X118047405Y-64978282D01*
X117728325Y-65022039D01*
X117423912Y-65127205D01*
X117249956Y-65220186D01*
X117154192Y-65484587D01*
X112565808Y-65484587D01*
X112470044Y-65220186D01*
X112180429Y-65079296D01*
X111868892Y-64997616D01*
X111547405Y-64978282D01*
X111228325Y-65022039D01*
X110923912Y-65127205D01*
X110749956Y-65220186D01*
X110654192Y-65484587D01*
X101291068Y-65484587D01*
X101221088Y-65389452D01*
X100557118Y-65029151D01*
X99835615Y-64805306D01*
X99084305Y-64726520D01*
X98332062Y-64795822D01*
X97607792Y-65010548D01*
X96939330Y-65362445D01*
X96898912Y-65389452D01*
X96538724Y-65879119D01*
X94894000Y-65879119D01*
X94894000Y-64414000D01*
X194666000Y-64414000D01*
X194666001Y-136246000D01*
X194666001Y-136246000D01*
G37*
X194666001Y-136246000D02*
X118287212Y-136246000D01*
X118491675Y-136217961D01*
X118796088Y-136112795D01*
X118970044Y-136019814D01*
X119065808Y-135755413D01*
X118110000Y-134799605D01*
X117154192Y-135755413D01*
X117249956Y-136019814D01*
X117539571Y-136160704D01*
X117851108Y-136242384D01*
X117911235Y-136246000D01*
X111787212Y-136246000D01*
X111991675Y-136217961D01*
X112296088Y-136112795D01*
X112470044Y-136019814D01*
X112565808Y-135755413D01*
X111610000Y-134799605D01*
X110654192Y-135755413D01*
X110749956Y-136019814D01*
X111039571Y-136160704D01*
X111351108Y-136242384D01*
X111411235Y-136246000D01*
X94894000Y-136246000D01*
X94894000Y-134780881D01*
X96538724Y-134780881D01*
X96898912Y-135270548D01*
X97562882Y-135630849D01*
X98284385Y-135854694D01*
X99035695Y-135933480D01*
X99787938Y-135864178D01*
X100512208Y-135649452D01*
X101180670Y-135297555D01*
X101221088Y-135270548D01*
X101581276Y-134780881D01*
X101482990Y-134682595D01*
X109968282Y-134682595D01*
X110012039Y-135001675D01*
X110117205Y-135306088D01*
X110210186Y-135480044D01*
X110474587Y-135575808D01*
X111430395Y-134620000D01*
X111789605Y-134620000D01*
X112745413Y-135575808D01*
X113009814Y-135480044D01*
X113150704Y-135190429D01*
X113232384Y-134878892D01*
X113244189Y-134682595D01*
X116468282Y-134682595D01*
X116512039Y-135001675D01*
X116617205Y-135306088D01*
X116710186Y-135480044D01*
X116974587Y-135575808D01*
X117930395Y-134620000D01*
X118289605Y-134620000D01*
X119245413Y-135575808D01*
X119509814Y-135480044D01*
X119650704Y-135190429D01*
X119732384Y-134878892D01*
X119738278Y-134780881D01*
X187978724Y-134780881D01*
X188338912Y-135270548D01*
X189002882Y-135630849D01*
X189724385Y-135854694D01*
X190475695Y-135933480D01*
X191227938Y-135864178D01*
X191952208Y-135649452D01*
X192620670Y-135297555D01*
X192661088Y-135270548D01*
X193021276Y-134780881D01*
X190500000Y-132259605D01*
X187978724Y-134780881D01*
X119738278Y-134780881D01*
X119751718Y-134557405D01*
X119707961Y-134238325D01*
X119602795Y-133933912D01*
X119509814Y-133759956D01*
X119245413Y-133664192D01*
X118289605Y-134620000D01*
X117930395Y-134620000D01*
X116974587Y-133664192D01*
X116710186Y-133759956D01*
X116569296Y-134049571D01*
X116487616Y-134361108D01*
X116468282Y-134682595D01*
X113244189Y-134682595D01*
X113251718Y-134557405D01*
X113207961Y-134238325D01*
X113102795Y-133933912D01*
X113009814Y-133759956D01*
X112745413Y-133664192D01*
X111789605Y-134620000D01*
X111430395Y-134620000D01*
X110474587Y-133664192D01*
X110210186Y-133759956D01*
X110069296Y-134049571D01*
X109987616Y-134361108D01*
X109968282Y-134682595D01*
X101482990Y-134682595D01*
X99060000Y-132259605D01*
X96538724Y-134780881D01*
X94894000Y-134780881D01*
X94894000Y-132055695D01*
X95206520Y-132055695D01*
X95275822Y-132807938D01*
X95490548Y-133532208D01*
X95842445Y-134200670D01*
X95869452Y-134241088D01*
X96359119Y-134601276D01*
X98880395Y-132080000D01*
X99239605Y-132080000D01*
X101760881Y-134601276D01*
X102250548Y-134241088D01*
X102610849Y-133577118D01*
X102639556Y-133484587D01*
X110654192Y-133484587D01*
X111610000Y-134440395D01*
X112565808Y-133484587D01*
X117154192Y-133484587D01*
X118110000Y-134440395D01*
X119065808Y-133484587D01*
X118970044Y-133220186D01*
X118680429Y-133079296D01*
X118368892Y-132997616D01*
X118047405Y-132978282D01*
X117728325Y-133022039D01*
X117423912Y-133127205D01*
X117249956Y-133220186D01*
X117154192Y-133484587D01*
X112565808Y-133484587D01*
X112470044Y-133220186D01*
X112180429Y-133079296D01*
X111868892Y-132997616D01*
X111547405Y-132978282D01*
X111228325Y-133022039D01*
X110923912Y-133127205D01*
X110749956Y-133220186D01*
X110654192Y-133484587D01*
X102639556Y-133484587D01*
X102834694Y-132855615D01*
X102836121Y-132842000D01*
X120519928Y-132842000D01*
X120532188Y-132966482D01*
X120568498Y-133086180D01*
X120627463Y-133196494D01*
X120706815Y-133293185D01*
X120803506Y-133372537D01*
X120913820Y-133431502D01*
X121033518Y-133467812D01*
X121158000Y-133480072D01*
X121634250Y-133477000D01*
X121793000Y-133318250D01*
X121793000Y-132207000D01*
X120681750Y-132207000D01*
X120523000Y-132365750D01*
X120519928Y-132842000D01*
X102836121Y-132842000D01*
X102913480Y-132104305D01*
X102844178Y-131352062D01*
X102629452Y-130627792D01*
X102277555Y-129959330D01*
X102277313Y-129958967D01*
X109975000Y-129958967D01*
X109975000Y-130281033D01*
X110037832Y-130596912D01*
X110161082Y-130894463D01*
X110340013Y-131162252D01*
X110567748Y-131389987D01*
X110835537Y-131568918D01*
X111133088Y-131692168D01*
X111448967Y-131755000D01*
X111771033Y-131755000D01*
X112086912Y-131692168D01*
X112384463Y-131568918D01*
X112652252Y-131389987D01*
X112879987Y-131162252D01*
X113058918Y-130894463D01*
X113182168Y-130596912D01*
X113245000Y-130281033D01*
X113245000Y-129958967D01*
X116475000Y-129958967D01*
X116475000Y-130281033D01*
X116537832Y-130596912D01*
X116661082Y-130894463D01*
X116840013Y-131162252D01*
X117067748Y-131389987D01*
X117335537Y-131568918D01*
X117633088Y-131692168D01*
X117948967Y-131755000D01*
X118271033Y-131755000D01*
X118586912Y-131692168D01*
X118884463Y-131568918D01*
X119152252Y-131389987D01*
X119379987Y-131162252D01*
X119558918Y-130894463D01*
X119682168Y-130596912D01*
X119740829Y-130302000D01*
X120519928Y-130302000D01*
X120532188Y-130426482D01*
X120568498Y-130546180D01*
X120627463Y-130656494D01*
X120706815Y-130753185D01*
X120776044Y-130810000D01*
X120706815Y-130866815D01*
X120627463Y-130963506D01*
X120568498Y-131073820D01*
X120532188Y-131193518D01*
X120519928Y-131318000D01*
X120523000Y-131794250D01*
X120681750Y-131953000D01*
X121793000Y-131953000D01*
X121793000Y-130841750D01*
X121761250Y-130810000D01*
X121793000Y-130778250D01*
X121793000Y-129667000D01*
X120681750Y-129667000D01*
X120523000Y-129825750D01*
X120519928Y-130302000D01*
X119740829Y-130302000D01*
X119745000Y-130281033D01*
X119745000Y-129958967D01*
X119682168Y-129643088D01*
X119558918Y-129345537D01*
X119379987Y-129077748D01*
X119152252Y-128850013D01*
X119044477Y-128778000D01*
X120519928Y-128778000D01*
X120523000Y-129254250D01*
X120681750Y-129413000D01*
X121793000Y-129413000D01*
X121793000Y-128301750D01*
X121634250Y-128143000D01*
X121158000Y-128139928D01*
X121033518Y-128152188D01*
X120913820Y-128188498D01*
X120803506Y-128247463D01*
X120706815Y-128326815D01*
X120627463Y-128423506D01*
X120568498Y-128533820D01*
X120532188Y-128653518D01*
X120519928Y-128778000D01*
X119044477Y-128778000D01*
X118884463Y-128671082D01*
X118586912Y-128547832D01*
X118271033Y-128485000D01*
X117948967Y-128485000D01*
X117633088Y-128547832D01*
X117335537Y-128671082D01*
X117067748Y-128850013D01*
X116840013Y-129077748D01*
X116661082Y-129345537D01*
X116537832Y-129643088D01*
X116475000Y-129958967D01*
X113245000Y-129958967D01*
X113182168Y-129643088D01*
X113058918Y-129345537D01*
X112879987Y-129077748D01*
X112652252Y-128850013D01*
X112384463Y-128671082D01*
X112086912Y-128547832D01*
X111771033Y-128485000D01*
X111448967Y-128485000D01*
X111133088Y-128547832D01*
X110835537Y-128671082D01*
X110567748Y-128850013D01*
X110340013Y-129077748D01*
X110161082Y-129345537D01*
X110037832Y-129643088D01*
X109975000Y-129958967D01*
X102277313Y-129958967D01*
X102250548Y-129918912D01*
X101760881Y-129558724D01*
X99239605Y-132080000D01*
X98880395Y-132080000D01*
X96359119Y-129558724D01*
X95869452Y-129918912D01*
X95509151Y-130582882D01*
X95285306Y-131304385D01*
X95206520Y-132055695D01*
X94894000Y-132055695D01*
X94894000Y-129379119D01*
X96538724Y-129379119D01*
X99060000Y-131900395D01*
X101581276Y-129379119D01*
X101221088Y-128889452D01*
X100557118Y-128529151D01*
X99835615Y-128305306D01*
X99084305Y-128226520D01*
X98332062Y-128295822D01*
X97607792Y-128510548D01*
X96939330Y-128862445D01*
X96898912Y-128889452D01*
X96538724Y-129379119D01*
X94894000Y-129379119D01*
X94894000Y-117851653D01*
X96897952Y-117851653D01*
X97053962Y-118167214D01*
X97428745Y-118358020D01*
X97833551Y-118472044D01*
X98252824Y-118504902D01*
X98670451Y-118455334D01*
X99070383Y-118325243D01*
X99366038Y-118167214D01*
X99522048Y-117851653D01*
X98210000Y-116539605D01*
X96897952Y-117851653D01*
X94894000Y-117851653D01*
X94894000Y-116402824D01*
X96065098Y-116402824D01*
X96114666Y-116820451D01*
X96244757Y-117220383D01*
X96402786Y-117516038D01*
X96718347Y-117672048D01*
X98030395Y-116360000D01*
X98389605Y-116360000D01*
X99701653Y-117672048D01*
X100017214Y-117516038D01*
X100208020Y-117141255D01*
X100322044Y-116736449D01*
X100354902Y-116317176D01*
X100305334Y-115899549D01*
X100175243Y-115499617D01*
X100017214Y-115203962D01*
X99701653Y-115047952D01*
X98389605Y-116360000D01*
X98030395Y-116360000D01*
X96718347Y-115047952D01*
X96402786Y-115203962D01*
X96211980Y-115578745D01*
X96097956Y-115983551D01*
X96065098Y-116402824D01*
X94894000Y-116402824D01*
X94894000Y-114868347D01*
X96897952Y-114868347D01*
X98210000Y-116180395D01*
X99522048Y-114868347D01*
X99366038Y-114552786D01*
X98991255Y-114361980D01*
X98586449Y-114247956D01*
X98167176Y-114215098D01*
X97749549Y-114264666D01*
X97349617Y-114394757D01*
X97053962Y-114552786D01*
X96897952Y-114868347D01*
X94894000Y-114868347D01*
X94894000Y-109780000D01*
X96071928Y-109780000D01*
X96071928Y-112780000D01*
X96084188Y-112904482D01*
X96120498Y-113024180D01*
X96179463Y-113134494D01*
X96258815Y-113231185D01*
X96355506Y-113310537D01*
X96465820Y-113369502D01*
X96585518Y-113405812D01*
X96710000Y-113418072D01*
X99710000Y-113418072D01*
X99834482Y-113405812D01*
X99954180Y-113369502D01*
X100064494Y-113310537D01*
X100161185Y-113231185D01*
X100240537Y-113134494D01*
X100299502Y-113024180D01*
X100335812Y-112904482D01*
X100348072Y-112780000D01*
X100348072Y-112669650D01*
X112858481Y-125180060D01*
X112886194Y-125213828D01*
X112919962Y-125241541D01*
X112919964Y-125241543D01*
X112991463Y-125300221D01*
X113020952Y-125324422D01*
X113174698Y-125406600D01*
X113341521Y-125457206D01*
X113471534Y-125470011D01*
X113471544Y-125470011D01*
X113515010Y-125474292D01*
X113558477Y-125470011D01*
X120400433Y-125470011D01*
X123252539Y-128322118D01*
X123246815Y-128326815D01*
X123190000Y-128396044D01*
X123133185Y-128326815D01*
X123036494Y-128247463D01*
X122926180Y-128188498D01*
X122806482Y-128152188D01*
X122682000Y-128139928D01*
X122205750Y-128143000D01*
X122047000Y-128301750D01*
X122047000Y-129413000D01*
X122067000Y-129413000D01*
X122067000Y-129667000D01*
X122047000Y-129667000D01*
X122047000Y-130778250D01*
X122078750Y-130810000D01*
X122047000Y-130841750D01*
X122047000Y-131953000D01*
X122067000Y-131953000D01*
X122067000Y-132207000D01*
X122047000Y-132207000D01*
X122047000Y-133318250D01*
X122205750Y-133477000D01*
X122682000Y-133480072D01*
X122806482Y-133467812D01*
X122926180Y-133431502D01*
X123036494Y-133372537D01*
X123133185Y-133293185D01*
X123190000Y-133223956D01*
X123246815Y-133293185D01*
X123343506Y-133372537D01*
X123453820Y-133431502D01*
X123573518Y-133467812D01*
X123698000Y-133480072D01*
X125222000Y-133480072D01*
X125346482Y-133467812D01*
X125466180Y-133431502D01*
X125576494Y-133372537D01*
X125673185Y-133293185D01*
X125730000Y-133223956D01*
X125786815Y-133293185D01*
X125883506Y-133372537D01*
X125993820Y-133431502D01*
X126113518Y-133467812D01*
X126238000Y-133480072D01*
X127762000Y-133480072D01*
X127886482Y-133467812D01*
X128006180Y-133431502D01*
X128116494Y-133372537D01*
X128213185Y-133293185D01*
X128270000Y-133223956D01*
X128326815Y-133293185D01*
X128423506Y-133372537D01*
X128533820Y-133431502D01*
X128653518Y-133467812D01*
X128778000Y-133480072D01*
X130302000Y-133480072D01*
X130426482Y-133467812D01*
X130546180Y-133431502D01*
X130656494Y-133372537D01*
X130753185Y-133293185D01*
X130810000Y-133223956D01*
X130866815Y-133293185D01*
X130963506Y-133372537D01*
X131073820Y-133431502D01*
X131193518Y-133467812D01*
X131318000Y-133480072D01*
X132842000Y-133480072D01*
X132966482Y-133467812D01*
X133086180Y-133431502D01*
X133196494Y-133372537D01*
X133293185Y-133293185D01*
X133350000Y-133223956D01*
X133406815Y-133293185D01*
X133503506Y-133372537D01*
X133613820Y-133431502D01*
X133733518Y-133467812D01*
X133858000Y-133480072D01*
X135382000Y-133480072D01*
X135506482Y-133467812D01*
X135626180Y-133431502D01*
X135736494Y-133372537D01*
X135833185Y-133293185D01*
X135890000Y-133223956D01*
X135946815Y-133293185D01*
X136043506Y-133372537D01*
X136153820Y-133431502D01*
X136273518Y-133467812D01*
X136398000Y-133480072D01*
X137922000Y-133480072D01*
X138046482Y-133467812D01*
X138166180Y-133431502D01*
X138276494Y-133372537D01*
X138373185Y-133293185D01*
X138430000Y-133223956D01*
X138486815Y-133293185D01*
X138583506Y-133372537D01*
X138693820Y-133431502D01*
X138813518Y-133467812D01*
X138938000Y-133480072D01*
X140462000Y-133480072D01*
X140586482Y-133467812D01*
X140706180Y-133431502D01*
X140816494Y-133372537D01*
X140913185Y-133293185D01*
X140970000Y-133223956D01*
X141026815Y-133293185D01*
X141123506Y-133372537D01*
X141233820Y-133431502D01*
X141353518Y-133467812D01*
X141478000Y-133480072D01*
X143002000Y-133480072D01*
X143126482Y-133467812D01*
X143246180Y-133431502D01*
X143356494Y-133372537D01*
X143453185Y-133293185D01*
X143510000Y-133223956D01*
X143566815Y-133293185D01*
X143663506Y-133372537D01*
X143773820Y-133431502D01*
X143893518Y-133467812D01*
X144018000Y-133480072D01*
X145542000Y-133480072D01*
X145666482Y-133467812D01*
X145786180Y-133431502D01*
X145896494Y-133372537D01*
X145993185Y-133293185D01*
X146050000Y-133223956D01*
X146106815Y-133293185D01*
X146203506Y-133372537D01*
X146313820Y-133431502D01*
X146433518Y-133467812D01*
X146558000Y-133480072D01*
X148082000Y-133480072D01*
X148206482Y-133467812D01*
X148326180Y-133431502D01*
X148436494Y-133372537D01*
X148533185Y-133293185D01*
X148590000Y-133223956D01*
X148646815Y-133293185D01*
X148743506Y-133372537D01*
X148853820Y-133431502D01*
X148973518Y-133467812D01*
X149098000Y-133480072D01*
X150622000Y-133480072D01*
X150746482Y-133467812D01*
X150866180Y-133431502D01*
X150976494Y-133372537D01*
X151073185Y-133293185D01*
X151130000Y-133223956D01*
X151186815Y-133293185D01*
X151283506Y-133372537D01*
X151393820Y-133431502D01*
X151513518Y-133467812D01*
X151638000Y-133480072D01*
X153162000Y-133480072D01*
X153286482Y-133467812D01*
X153406180Y-133431502D01*
X153516494Y-133372537D01*
X153613185Y-133293185D01*
X153670000Y-133223956D01*
X153726815Y-133293185D01*
X153823506Y-133372537D01*
X153933820Y-133431502D01*
X154053518Y-133467812D01*
X154178000Y-133480072D01*
X155702000Y-133480072D01*
X155826482Y-133467812D01*
X155946180Y-133431502D01*
X156056494Y-133372537D01*
X156153185Y-133293185D01*
X156232537Y-133196494D01*
X156291502Y-133086180D01*
X156327812Y-132966482D01*
X156340072Y-132842000D01*
X156340072Y-132055695D01*
X186646520Y-132055695D01*
X186715822Y-132807938D01*
X186930548Y-133532208D01*
X187282445Y-134200670D01*
X187309452Y-134241088D01*
X187799119Y-134601276D01*
X190320395Y-132080000D01*
X190679605Y-132080000D01*
X193200881Y-134601276D01*
X193690548Y-134241088D01*
X194050849Y-133577118D01*
X194274694Y-132855615D01*
X194353480Y-132104305D01*
X194284178Y-131352062D01*
X194069452Y-130627792D01*
X193717555Y-129959330D01*
X193690548Y-129918912D01*
X193200881Y-129558724D01*
X190679605Y-132080000D01*
X190320395Y-132080000D01*
X187799119Y-129558724D01*
X187309452Y-129918912D01*
X186949151Y-130582882D01*
X186725306Y-131304385D01*
X186646520Y-132055695D01*
X156340072Y-132055695D01*
X156340072Y-131318000D01*
X156327812Y-131193518D01*
X156291502Y-131073820D01*
X156232537Y-130963506D01*
X156153185Y-130866815D01*
X156083956Y-130810000D01*
X156153185Y-130753185D01*
X156232537Y-130656494D01*
X156291502Y-130546180D01*
X156327812Y-130426482D01*
X156340072Y-130302000D01*
X156340072Y-129379119D01*
X187978724Y-129379119D01*
X190500000Y-131900395D01*
X193021276Y-129379119D01*
X192661088Y-128889452D01*
X191997118Y-128529151D01*
X191275615Y-128305306D01*
X190524305Y-128226520D01*
X189772062Y-128295822D01*
X189047792Y-128510548D01*
X188379330Y-128862445D01*
X188338912Y-128889452D01*
X187978724Y-129379119D01*
X156340072Y-129379119D01*
X156340072Y-128778000D01*
X156327812Y-128653518D01*
X156291502Y-128533820D01*
X156232537Y-128423506D01*
X156153185Y-128326815D01*
X156056494Y-128247463D01*
X155946180Y-128188498D01*
X155826482Y-128152188D01*
X155702000Y-128139928D01*
X155700000Y-128139928D01*
X155700000Y-101479784D01*
X155703676Y-101442461D01*
X155700000Y-101405138D01*
X155700000Y-101405129D01*
X155689003Y-101293476D01*
X155645546Y-101150215D01*
X155574974Y-101018186D01*
X155480001Y-100902461D01*
X155451003Y-100878663D01*
X150543025Y-95970686D01*
X150613937Y-95899774D01*
X150727205Y-95730256D01*
X150805226Y-95541898D01*
X150845000Y-95341939D01*
X150845000Y-95279801D01*
X152911003Y-93213799D01*
X152940001Y-93190001D01*
X152972007Y-93151002D01*
X153034974Y-93074277D01*
X153105546Y-92942247D01*
X153115637Y-92908980D01*
X153149003Y-92798986D01*
X153160000Y-92687333D01*
X153160000Y-92687324D01*
X153163676Y-92650001D01*
X153160000Y-92612678D01*
X153160000Y-75020000D01*
X164921928Y-75020000D01*
X164934188Y-75144482D01*
X164970498Y-75264180D01*
X165029463Y-75374494D01*
X165108815Y-75471185D01*
X165205506Y-75550537D01*
X165315820Y-75609502D01*
X165435518Y-75645812D01*
X165560000Y-75658072D01*
X165974250Y-75655000D01*
X166133000Y-75496250D01*
X166133000Y-74247000D01*
X165083750Y-74247000D01*
X164925000Y-74405750D01*
X164921928Y-75020000D01*
X153160000Y-75020000D01*
X153160000Y-72520072D01*
X153162000Y-72520072D01*
X153286482Y-72507812D01*
X153406180Y-72471502D01*
X153516494Y-72412537D01*
X153613185Y-72333185D01*
X153670000Y-72263956D01*
X153726815Y-72333185D01*
X153823506Y-72412537D01*
X153933820Y-72471502D01*
X154053518Y-72507812D01*
X154178000Y-72520072D01*
X155702000Y-72520072D01*
X155826482Y-72507812D01*
X155946180Y-72471502D01*
X156056494Y-72412537D01*
X156153185Y-72333185D01*
X156232537Y-72236494D01*
X156291502Y-72126180D01*
X156327812Y-72006482D01*
X156340072Y-71882000D01*
X156340072Y-70358000D01*
X156327812Y-70233518D01*
X156291502Y-70113820D01*
X156232537Y-70003506D01*
X156153185Y-69906815D01*
X156083956Y-69850000D01*
X156153185Y-69793185D01*
X156232537Y-69696494D01*
X156291502Y-69586180D01*
X156327812Y-69466482D01*
X156340072Y-69342000D01*
X156340072Y-67818000D01*
X156327812Y-67693518D01*
X156291502Y-67573820D01*
X156232537Y-67463506D01*
X156153185Y-67366815D01*
X156056494Y-67287463D01*
X155946180Y-67228498D01*
X155826482Y-67192188D01*
X155702000Y-67179928D01*
X154178000Y-67179928D01*
X154053518Y-67192188D01*
X153933820Y-67228498D01*
X153823506Y-67287463D01*
X153726815Y-67366815D01*
X153670000Y-67436044D01*
X153613185Y-67366815D01*
X153516494Y-67287463D01*
X153406180Y-67228498D01*
X153286482Y-67192188D01*
X153162000Y-67179928D01*
X151638000Y-67179928D01*
X151513518Y-67192188D01*
X151393820Y-67228498D01*
X151283506Y-67287463D01*
X151186815Y-67366815D01*
X151130000Y-67436044D01*
X151073185Y-67366815D01*
X150976494Y-67287463D01*
X150866180Y-67228498D01*
X150746482Y-67192188D01*
X150622000Y-67179928D01*
X149098000Y-67179928D01*
X148973518Y-67192188D01*
X148853820Y-67228498D01*
X148743506Y-67287463D01*
X148646815Y-67366815D01*
X148590000Y-67436044D01*
X148533185Y-67366815D01*
X148436494Y-67287463D01*
X148326180Y-67228498D01*
X148206482Y-67192188D01*
X148082000Y-67179928D01*
X146558000Y-67179928D01*
X146433518Y-67192188D01*
X146313820Y-67228498D01*
X146203506Y-67287463D01*
X146106815Y-67366815D01*
X146050000Y-67436044D01*
X145993185Y-67366815D01*
X145896494Y-67287463D01*
X145786180Y-67228498D01*
X145666482Y-67192188D01*
X145542000Y-67179928D01*
X144018000Y-67179928D01*
X143893518Y-67192188D01*
X143773820Y-67228498D01*
X143663506Y-67287463D01*
X143566815Y-67366815D01*
X143510000Y-67436044D01*
X143453185Y-67366815D01*
X143356494Y-67287463D01*
X143246180Y-67228498D01*
X143126482Y-67192188D01*
X143002000Y-67179928D01*
X141478000Y-67179928D01*
X141353518Y-67192188D01*
X141233820Y-67228498D01*
X141123506Y-67287463D01*
X141026815Y-67366815D01*
X140970000Y-67436044D01*
X140913185Y-67366815D01*
X140816494Y-67287463D01*
X140706180Y-67228498D01*
X140586482Y-67192188D01*
X140462000Y-67179928D01*
X138938000Y-67179928D01*
X138813518Y-67192188D01*
X138693820Y-67228498D01*
X138583506Y-67287463D01*
X138486815Y-67366815D01*
X138430000Y-67436044D01*
X138373185Y-67366815D01*
X138276494Y-67287463D01*
X138166180Y-67228498D01*
X138046482Y-67192188D01*
X137922000Y-67179928D01*
X136398000Y-67179928D01*
X136273518Y-67192188D01*
X136153820Y-67228498D01*
X136043506Y-67287463D01*
X135946815Y-67366815D01*
X135890000Y-67436044D01*
X135833185Y-67366815D01*
X135736494Y-67287463D01*
X135626180Y-67228498D01*
X135506482Y-67192188D01*
X135382000Y-67179928D01*
X133858000Y-67179928D01*
X133733518Y-67192188D01*
X133613820Y-67228498D01*
X133503506Y-67287463D01*
X133406815Y-67366815D01*
X133350000Y-67436044D01*
X133293185Y-67366815D01*
X133196494Y-67287463D01*
X133086180Y-67228498D01*
X132966482Y-67192188D01*
X132842000Y-67179928D01*
X131318000Y-67179928D01*
X131193518Y-67192188D01*
X131073820Y-67228498D01*
X130963506Y-67287463D01*
X130866815Y-67366815D01*
X130810000Y-67436044D01*
X130753185Y-67366815D01*
X130656494Y-67287463D01*
X130546180Y-67228498D01*
X130426482Y-67192188D01*
X130302000Y-67179928D01*
X128778000Y-67179928D01*
X128653518Y-67192188D01*
X128533820Y-67228498D01*
X128423506Y-67287463D01*
X128326815Y-67366815D01*
X128270000Y-67436044D01*
X128213185Y-67366815D01*
X128116494Y-67287463D01*
X128006180Y-67228498D01*
X127886482Y-67192188D01*
X127762000Y-67179928D01*
X127111651Y-67179928D01*
X127886579Y-66405000D01*
X160033422Y-66405000D01*
X166213421Y-72585000D01*
X166132998Y-72585000D01*
X166132998Y-72743748D01*
X165974250Y-72585000D01*
X165560000Y-72581928D01*
X165435518Y-72594188D01*
X165315820Y-72630498D01*
X165205506Y-72689463D01*
X165108815Y-72768815D01*
X165029463Y-72865506D01*
X164970498Y-72975820D01*
X164934188Y-73095518D01*
X164921928Y-73220000D01*
X164925000Y-73834250D01*
X165083750Y-73993000D01*
X166133000Y-73993000D01*
X166133000Y-73973000D01*
X166387000Y-73973000D01*
X166387000Y-73993000D01*
X166407000Y-73993000D01*
X166407000Y-74247000D01*
X166387000Y-74247000D01*
X166387000Y-75496250D01*
X166545750Y-75655000D01*
X166960000Y-75658072D01*
X167084482Y-75645812D01*
X167204180Y-75609502D01*
X167314494Y-75550537D01*
X167411185Y-75471185D01*
X167490537Y-75374494D01*
X167549502Y-75264180D01*
X167585812Y-75144482D01*
X167598072Y-75020000D01*
X167597483Y-74902258D01*
X167684618Y-75065275D01*
X167851446Y-75268555D01*
X168054726Y-75435382D01*
X168286647Y-75559347D01*
X168538295Y-75635683D01*
X168800000Y-75661459D01*
X169061706Y-75635683D01*
X169313354Y-75559347D01*
X169545275Y-75435382D01*
X169748555Y-75268555D01*
X169915382Y-75065275D01*
X170039347Y-74833353D01*
X170070000Y-74732303D01*
X170100653Y-74833354D01*
X170224618Y-75065275D01*
X170391446Y-75268555D01*
X170594726Y-75435382D01*
X170826647Y-75559347D01*
X171078295Y-75635683D01*
X171340000Y-75661459D01*
X171601706Y-75635683D01*
X171853354Y-75559347D01*
X172085275Y-75435382D01*
X172288555Y-75268555D01*
X172455382Y-75065275D01*
X172579347Y-74833353D01*
X172610000Y-74732303D01*
X172640653Y-74833354D01*
X172764618Y-75065275D01*
X172931446Y-75268555D01*
X173134726Y-75435382D01*
X173366647Y-75559347D01*
X173618295Y-75635683D01*
X173880000Y-75661459D01*
X174141706Y-75635683D01*
X174393354Y-75559347D01*
X174625275Y-75435382D01*
X174828555Y-75268555D01*
X174995382Y-75065275D01*
X175119347Y-74833353D01*
X175195683Y-74581705D01*
X175215000Y-74385578D01*
X175215000Y-73854421D01*
X175195683Y-73658294D01*
X175119347Y-73406646D01*
X175062343Y-73300000D01*
X175065199Y-73300000D01*
X180922353Y-79157155D01*
X180827047Y-79387244D01*
X180745000Y-79799721D01*
X180745000Y-80220279D01*
X180827047Y-80632756D01*
X180987988Y-81021302D01*
X181221637Y-81370983D01*
X181519017Y-81668363D01*
X181868698Y-81902012D01*
X182257244Y-82062953D01*
X182669721Y-82145000D01*
X183090279Y-82145000D01*
X183502756Y-82062953D01*
X183761130Y-81955931D01*
X189740000Y-87934802D01*
X189740001Y-94879928D01*
X189738000Y-94879928D01*
X189613518Y-94892188D01*
X189493820Y-94928498D01*
X189383506Y-94987463D01*
X189286815Y-95066815D01*
X189207463Y-95163506D01*
X189148498Y-95273820D01*
X189112188Y-95393518D01*
X189099928Y-95518000D01*
X189099928Y-97042000D01*
X189112188Y-97166482D01*
X189148498Y-97286180D01*
X189207463Y-97396494D01*
X189286815Y-97493185D01*
X189356044Y-97550000D01*
X189286815Y-97606815D01*
X189207463Y-97703506D01*
X189148498Y-97813820D01*
X189112188Y-97933518D01*
X189101701Y-98040000D01*
X183640000Y-98040000D01*
X183640000Y-89626105D01*
X183891302Y-89522012D01*
X184240983Y-89288363D01*
X184538363Y-88990983D01*
X184772012Y-88641302D01*
X184932953Y-88252756D01*
X185015000Y-87840279D01*
X185015000Y-87503439D01*
X185405000Y-87503439D01*
X185405000Y-87756561D01*
X185454381Y-88004821D01*
X185551247Y-88238676D01*
X185691875Y-88449140D01*
X185870860Y-88628125D01*
X186081324Y-88768753D01*
X186315179Y-88865619D01*
X186563439Y-88915000D01*
X186816561Y-88915000D01*
X187064821Y-88865619D01*
X187298676Y-88768753D01*
X187509140Y-88628125D01*
X187688125Y-88449140D01*
X187828753Y-88238676D01*
X187925619Y-88004821D01*
X187975000Y-87756561D01*
X187975000Y-87503439D01*
X187925619Y-87255179D01*
X187828753Y-87021324D01*
X187688125Y-86810860D01*
X187509140Y-86631875D01*
X187298676Y-86491247D01*
X187064821Y-86394381D01*
X186816561Y-86345000D01*
X186563439Y-86345000D01*
X186315179Y-86394381D01*
X186081324Y-86491247D01*
X185870860Y-86631875D01*
X185691875Y-86810860D01*
X185551247Y-87021324D01*
X185454381Y-87255179D01*
X185405000Y-87503439D01*
X185015000Y-87503439D01*
X185015000Y-87419721D01*
X184932953Y-87007244D01*
X184772012Y-86618698D01*
X184538363Y-86269017D01*
X184240983Y-85971637D01*
X183891302Y-85737988D01*
X183502756Y-85577047D01*
X183090279Y-85495000D01*
X182669721Y-85495000D01*
X182257244Y-85577047D01*
X181868698Y-85737988D01*
X181519017Y-85971637D01*
X181221637Y-86269017D01*
X180987988Y-86618698D01*
X180827047Y-87007244D01*
X180745000Y-87419721D01*
X180745000Y-87840279D01*
X180827047Y-88252756D01*
X180987988Y-88641302D01*
X181221637Y-88990983D01*
X181519017Y-89288363D01*
X181868698Y-89522012D01*
X182120000Y-89626105D01*
X182120001Y-98762657D01*
X182116323Y-98800000D01*
X182120000Y-98837333D01*
X182120001Y-104615197D01*
X178674059Y-108061140D01*
X178422756Y-107957047D01*
X178010279Y-107875000D01*
X177589721Y-107875000D01*
X177177244Y-107957047D01*
X176788698Y-108117988D01*
X176439017Y-108351637D01*
X176141637Y-108649017D01*
X176080000Y-108741263D01*
X176080000Y-87244801D01*
X177555941Y-85768860D01*
X177807244Y-85872953D01*
X178219721Y-85955000D01*
X178640279Y-85955000D01*
X179052756Y-85872953D01*
X179441302Y-85712012D01*
X179790983Y-85478363D01*
X180088363Y-85180983D01*
X180322012Y-84831302D01*
X180482953Y-84442756D01*
X180565000Y-84030279D01*
X180565000Y-83609721D01*
X180482953Y-83197244D01*
X180322012Y-82808698D01*
X180088363Y-82459017D01*
X179790983Y-82161637D01*
X179441302Y-81927988D01*
X179052756Y-81767047D01*
X178640279Y-81685000D01*
X178219721Y-81685000D01*
X177807244Y-81767047D01*
X177418698Y-81927988D01*
X177069017Y-82161637D01*
X176771637Y-82459017D01*
X176537988Y-82808698D01*
X176377047Y-83197244D01*
X176295000Y-83609721D01*
X176295000Y-84030279D01*
X176377047Y-84442756D01*
X176481140Y-84694059D01*
X174809003Y-86366196D01*
X174779999Y-86389999D01*
X174754624Y-86420919D01*
X174685026Y-86505724D01*
X174655688Y-86560611D01*
X174614454Y-86637754D01*
X174570997Y-86781015D01*
X174560000Y-86892668D01*
X174560000Y-86892678D01*
X174556324Y-86930000D01*
X174560000Y-86967322D01*
X174560001Y-111302667D01*
X174556324Y-111340000D01*
X174560001Y-111377333D01*
X174565011Y-111428194D01*
X174570998Y-111488985D01*
X174614454Y-111632246D01*
X174685026Y-111764276D01*
X174756201Y-111851002D01*
X174780000Y-111880001D01*
X174808998Y-111903799D01*
X175788998Y-112883800D01*
X175789003Y-112883804D01*
X175851140Y-112945941D01*
X175747047Y-113197244D01*
X175665000Y-113609721D01*
X175665000Y-114030279D01*
X175747047Y-114442756D01*
X175907988Y-114831302D01*
X176141637Y-115180983D01*
X176439017Y-115478363D01*
X176788698Y-115712012D01*
X176820054Y-115725000D01*
X176788698Y-115737988D01*
X176439017Y-115971637D01*
X176141637Y-116269017D01*
X175907988Y-116618698D01*
X175747047Y-117007244D01*
X175665000Y-117419721D01*
X175665000Y-117840279D01*
X175747047Y-118252756D01*
X175907988Y-118641302D01*
X176141637Y-118990983D01*
X176439017Y-119288363D01*
X176788698Y-119522012D01*
X177177244Y-119682953D01*
X177589721Y-119765000D01*
X178010279Y-119765000D01*
X178422756Y-119682953D01*
X178811302Y-119522012D01*
X179160983Y-119288363D01*
X179458363Y-118990983D01*
X179692012Y-118641302D01*
X179796105Y-118390000D01*
X181402678Y-118390000D01*
X181440000Y-118393676D01*
X181477322Y-118390000D01*
X181477333Y-118390000D01*
X181588986Y-118379003D01*
X181732247Y-118335546D01*
X181864276Y-118264974D01*
X181980001Y-118170001D01*
X182003804Y-118140997D01*
X182641362Y-117503439D01*
X185405000Y-117503439D01*
X185405000Y-117756561D01*
X185454381Y-118004821D01*
X185551247Y-118238676D01*
X185691875Y-118449140D01*
X185870860Y-118628125D01*
X186081324Y-118768753D01*
X186315179Y-118865619D01*
X186563439Y-118915000D01*
X186816561Y-118915000D01*
X187064821Y-118865619D01*
X187298676Y-118768753D01*
X187509140Y-118628125D01*
X187688125Y-118449140D01*
X187828753Y-118238676D01*
X187925619Y-118004821D01*
X187975000Y-117756561D01*
X187975000Y-117503439D01*
X187925619Y-117255179D01*
X187828753Y-117021324D01*
X187688125Y-116810860D01*
X187509140Y-116631875D01*
X187298676Y-116491247D01*
X187064821Y-116394381D01*
X186816561Y-116345000D01*
X186563439Y-116345000D01*
X186315179Y-116394381D01*
X186081324Y-116491247D01*
X185870860Y-116631875D01*
X185691875Y-116810860D01*
X185551247Y-117021324D01*
X185454381Y-117255179D01*
X185405000Y-117503439D01*
X182641362Y-117503439D01*
X190551888Y-109592914D01*
X190534381Y-109635179D01*
X190485000Y-109883439D01*
X190485000Y-110136561D01*
X190534381Y-110384821D01*
X190631247Y-110618676D01*
X190771875Y-110829140D01*
X190950860Y-111008125D01*
X191161324Y-111148753D01*
X191395179Y-111245619D01*
X191643439Y-111295000D01*
X191896561Y-111295000D01*
X192144821Y-111245619D01*
X192378676Y-111148753D01*
X192589140Y-111008125D01*
X192768125Y-110829140D01*
X192908753Y-110618676D01*
X193005619Y-110384821D01*
X193055000Y-110136561D01*
X193055000Y-109883439D01*
X193005619Y-109635179D01*
X192908753Y-109401324D01*
X192768125Y-109190860D01*
X192589140Y-109011875D01*
X192378676Y-108871247D01*
X192144821Y-108774381D01*
X191896561Y-108725000D01*
X191643439Y-108725000D01*
X191395179Y-108774381D01*
X191352914Y-108791888D01*
X192611004Y-107533798D01*
X192640001Y-107510001D01*
X192734974Y-107394276D01*
X192805546Y-107262247D01*
X192849003Y-107118986D01*
X192860000Y-107007333D01*
X192860000Y-107007332D01*
X192863677Y-106970000D01*
X192860000Y-106932667D01*
X192860000Y-97907333D01*
X192863677Y-97870000D01*
X192849003Y-97721014D01*
X192805546Y-97577753D01*
X192734974Y-97445724D01*
X192663799Y-97358997D01*
X192640001Y-97329999D01*
X192611003Y-97306201D01*
X191900072Y-96595270D01*
X191900072Y-95518000D01*
X191887812Y-95393518D01*
X191851502Y-95273820D01*
X191792537Y-95163506D01*
X191713185Y-95066815D01*
X191616494Y-94987463D01*
X191506180Y-94928498D01*
X191386482Y-94892188D01*
X191262000Y-94879928D01*
X191260000Y-94879928D01*
X191260000Y-87657322D01*
X191263676Y-87619999D01*
X191260000Y-87582676D01*
X191260000Y-87582667D01*
X191249003Y-87471014D01*
X191205546Y-87327753D01*
X191134974Y-87195724D01*
X191040001Y-87079999D01*
X191011004Y-87056202D01*
X184831789Y-80876988D01*
X184932953Y-80632756D01*
X185015000Y-80220279D01*
X185015000Y-79883439D01*
X190495000Y-79883439D01*
X190495000Y-80136561D01*
X190544381Y-80384821D01*
X190641247Y-80618676D01*
X190781875Y-80829140D01*
X190960860Y-81008125D01*
X191171324Y-81148753D01*
X191405179Y-81245619D01*
X191653439Y-81295000D01*
X191906561Y-81295000D01*
X192154821Y-81245619D01*
X192388676Y-81148753D01*
X192599140Y-81008125D01*
X192778125Y-80829140D01*
X192918753Y-80618676D01*
X193015619Y-80384821D01*
X193065000Y-80136561D01*
X193065000Y-79883439D01*
X193015619Y-79635179D01*
X192918753Y-79401324D01*
X192778125Y-79190860D01*
X192599140Y-79011875D01*
X192388676Y-78871247D01*
X192154821Y-78774381D01*
X191906561Y-78725000D01*
X191653439Y-78725000D01*
X191405179Y-78774381D01*
X191171324Y-78871247D01*
X190960860Y-79011875D01*
X190781875Y-79190860D01*
X190641247Y-79401324D01*
X190544381Y-79635179D01*
X190495000Y-79883439D01*
X185015000Y-79883439D01*
X185015000Y-79799721D01*
X184932953Y-79387244D01*
X184772012Y-78998698D01*
X184538363Y-78649017D01*
X184240983Y-78351637D01*
X183891302Y-78117988D01*
X183502756Y-77957047D01*
X183090279Y-77875000D01*
X182669721Y-77875000D01*
X182257244Y-77957047D01*
X181984728Y-78069927D01*
X175943804Y-72029003D01*
X175920001Y-71999999D01*
X175804276Y-71905026D01*
X175672247Y-71834454D01*
X175528986Y-71790997D01*
X175417333Y-71780000D01*
X175417322Y-71780000D01*
X175380000Y-71776324D01*
X175342678Y-71780000D01*
X172757325Y-71780000D01*
X172720000Y-71776324D01*
X172682675Y-71780000D01*
X172682667Y-71780000D01*
X172571014Y-71790997D01*
X172427753Y-71834454D01*
X172295724Y-71905026D01*
X172179999Y-71999999D01*
X172156201Y-72028997D01*
X171582749Y-72602450D01*
X171340000Y-72578541D01*
X171078294Y-72604317D01*
X170826646Y-72680653D01*
X170594725Y-72804618D01*
X170391445Y-72971445D01*
X170224618Y-73174726D01*
X170100653Y-73406647D01*
X170070000Y-73507697D01*
X170039347Y-73406646D01*
X169915382Y-73174725D01*
X169748555Y-72971445D01*
X169545274Y-72804618D01*
X169313353Y-72680653D01*
X169061705Y-72604317D01*
X168800000Y-72578541D01*
X168718179Y-72586600D01*
X167412460Y-71280881D01*
X187978724Y-71280881D01*
X188338912Y-71770548D01*
X189002882Y-72130849D01*
X189724385Y-72354694D01*
X190475695Y-72433480D01*
X191227938Y-72364178D01*
X191952208Y-72149452D01*
X192620670Y-71797555D01*
X192661088Y-71770548D01*
X193021276Y-71280881D01*
X190500000Y-68759605D01*
X187978724Y-71280881D01*
X167412460Y-71280881D01*
X164687274Y-68555695D01*
X186646520Y-68555695D01*
X186715822Y-69307938D01*
X186930548Y-70032208D01*
X187282445Y-70700670D01*
X187309452Y-70741088D01*
X187799119Y-71101276D01*
X190320395Y-68580000D01*
X190679605Y-68580000D01*
X193200881Y-71101276D01*
X193690548Y-70741088D01*
X194050849Y-70077118D01*
X194274694Y-69355615D01*
X194353480Y-68604305D01*
X194284178Y-67852062D01*
X194069452Y-67127792D01*
X193717555Y-66459330D01*
X193690548Y-66418912D01*
X193200881Y-66058724D01*
X190679605Y-68580000D01*
X190320395Y-68580000D01*
X187799119Y-66058724D01*
X187309452Y-66418912D01*
X186949151Y-67082882D01*
X186725306Y-67804385D01*
X186646520Y-68555695D01*
X164687274Y-68555695D01*
X162010698Y-65879119D01*
X187978724Y-65879119D01*
X190500000Y-68400395D01*
X193021276Y-65879119D01*
X192661088Y-65389452D01*
X191997118Y-65029151D01*
X191275615Y-64805306D01*
X190524305Y-64726520D01*
X189772062Y-64795822D01*
X189047792Y-65010548D01*
X188379330Y-65362445D01*
X188338912Y-65389452D01*
X187978724Y-65879119D01*
X162010698Y-65879119D01*
X161056534Y-64924956D01*
X161028817Y-64891183D01*
X160894059Y-64780589D01*
X160740313Y-64698411D01*
X160573490Y-64647805D01*
X160443477Y-64635000D01*
X160443469Y-64635000D01*
X160400000Y-64630719D01*
X160356531Y-64635000D01*
X127563469Y-64635000D01*
X127520000Y-64630719D01*
X127476531Y-64635000D01*
X127476523Y-64635000D01*
X127346510Y-64647805D01*
X127179686Y-64698411D01*
X127025941Y-64780589D01*
X126924953Y-64863468D01*
X126924951Y-64863470D01*
X126891183Y-64891183D01*
X126863470Y-64924951D01*
X124608494Y-67179928D01*
X123698000Y-67179928D01*
X123573518Y-67192188D01*
X123453820Y-67228498D01*
X123343506Y-67287463D01*
X123246815Y-67366815D01*
X123190000Y-67436044D01*
X123133185Y-67366815D01*
X123036494Y-67287463D01*
X122926180Y-67228498D01*
X122806482Y-67192188D01*
X122682000Y-67179928D01*
X122205750Y-67183000D01*
X122047000Y-67341750D01*
X122047000Y-68453000D01*
X122067000Y-68453000D01*
X122067000Y-68707000D01*
X122047000Y-68707000D01*
X122047000Y-69818250D01*
X122078750Y-69850000D01*
X122047000Y-69881750D01*
X122047000Y-70993000D01*
X122067000Y-70993000D01*
X122067000Y-71247000D01*
X122047000Y-71247000D01*
X122047000Y-72358250D01*
X122205750Y-72517000D01*
X122682000Y-72520072D01*
X122806482Y-72507812D01*
X122926180Y-72471502D01*
X123036494Y-72412537D01*
X123133185Y-72333185D01*
X123190000Y-72263956D01*
X123246815Y-72333185D01*
X123251440Y-72336981D01*
X121224956Y-74363466D01*
X121191183Y-74391183D01*
X121080589Y-74525942D01*
X120998411Y-74679688D01*
X120947805Y-74846511D01*
X120935000Y-74976524D01*
X120935000Y-74976531D01*
X120930719Y-75020000D01*
X120935000Y-75063469D01*
X120935001Y-86745000D01*
X120767958Y-86745000D01*
X120767812Y-86743518D01*
X120731502Y-86623820D01*
X120672537Y-86513506D01*
X120593185Y-86416815D01*
X120496494Y-86337463D01*
X120386180Y-86278498D01*
X120266482Y-86242188D01*
X120142000Y-86229928D01*
X118618000Y-86229928D01*
X118493518Y-86242188D01*
X118373820Y-86278498D01*
X118263506Y-86337463D01*
X118166815Y-86416815D01*
X118110000Y-86486044D01*
X118053185Y-86416815D01*
X117956494Y-86337463D01*
X117846180Y-86278498D01*
X117726482Y-86242188D01*
X117602000Y-86229928D01*
X117125750Y-86233000D01*
X116967000Y-86391750D01*
X116967000Y-87503000D01*
X116987000Y-87503000D01*
X116987000Y-87757000D01*
X116967000Y-87757000D01*
X116967000Y-87777000D01*
X116713000Y-87777000D01*
X116713000Y-87757000D01*
X115601750Y-87757000D01*
X115443000Y-87915750D01*
X115439928Y-88392000D01*
X115452188Y-88516482D01*
X115488498Y-88636180D01*
X115547463Y-88746494D01*
X115626815Y-88843185D01*
X115696044Y-88900000D01*
X115626815Y-88956815D01*
X115547463Y-89053506D01*
X115488498Y-89163820D01*
X115452188Y-89283518D01*
X115439928Y-89408000D01*
X115439928Y-90932000D01*
X115452188Y-91056482D01*
X115488498Y-91176180D01*
X115547463Y-91286494D01*
X115626815Y-91383185D01*
X115696044Y-91440000D01*
X115626815Y-91496815D01*
X115547463Y-91593506D01*
X115488498Y-91703820D01*
X115452188Y-91823518D01*
X115439928Y-91948000D01*
X115439928Y-93472000D01*
X115452188Y-93596482D01*
X115488498Y-93716180D01*
X115547463Y-93826494D01*
X115626815Y-93923185D01*
X115696044Y-93980000D01*
X115626815Y-94036815D01*
X115547463Y-94133506D01*
X115488498Y-94243820D01*
X115452188Y-94363518D01*
X115439928Y-94488000D01*
X115439928Y-96012000D01*
X115452188Y-96136482D01*
X115488498Y-96256180D01*
X115547463Y-96366494D01*
X115626815Y-96463185D01*
X115723506Y-96542537D01*
X115833820Y-96601502D01*
X115953518Y-96637812D01*
X116078000Y-96650072D01*
X117602000Y-96650072D01*
X117726482Y-96637812D01*
X117846180Y-96601502D01*
X117956494Y-96542537D01*
X118053185Y-96463185D01*
X118110000Y-96393956D01*
X118166815Y-96463185D01*
X118263506Y-96542537D01*
X118373820Y-96601502D01*
X118493518Y-96637812D01*
X118618000Y-96650072D01*
X120142000Y-96650072D01*
X120266482Y-96637812D01*
X120386180Y-96601502D01*
X120496494Y-96542537D01*
X120593185Y-96463185D01*
X120672537Y-96366494D01*
X120731502Y-96256180D01*
X120767812Y-96136482D01*
X120780072Y-96012000D01*
X120780072Y-94488000D01*
X120767812Y-94363518D01*
X120731502Y-94243820D01*
X120672537Y-94133506D01*
X120593185Y-94036815D01*
X120523956Y-93980000D01*
X120593185Y-93923185D01*
X120672537Y-93826494D01*
X120731502Y-93716180D01*
X120767812Y-93596482D01*
X120780072Y-93472000D01*
X120780072Y-91948000D01*
X120767812Y-91823518D01*
X120731502Y-91703820D01*
X120672537Y-91593506D01*
X120593185Y-91496815D01*
X120523956Y-91440000D01*
X120593185Y-91383185D01*
X120672537Y-91286494D01*
X120731502Y-91176180D01*
X120767812Y-91056482D01*
X120780072Y-90932000D01*
X120780072Y-89408000D01*
X120767812Y-89283518D01*
X120731502Y-89163820D01*
X120672537Y-89053506D01*
X120593185Y-88956815D01*
X120523956Y-88900000D01*
X120593185Y-88843185D01*
X120672537Y-88746494D01*
X120731502Y-88636180D01*
X120767812Y-88516482D01*
X120767958Y-88515000D01*
X120935000Y-88515000D01*
X120935001Y-90026523D01*
X120935000Y-97503421D01*
X119508494Y-98929928D01*
X118618000Y-98929928D01*
X118493518Y-98942188D01*
X118373820Y-98978498D01*
X118263506Y-99037463D01*
X118166815Y-99116815D01*
X118110000Y-99186044D01*
X118053185Y-99116815D01*
X117956494Y-99037463D01*
X117846180Y-98978498D01*
X117726482Y-98942188D01*
X117602000Y-98929928D01*
X117125750Y-98933000D01*
X116967000Y-99091750D01*
X116967000Y-100203000D01*
X116987000Y-100203000D01*
X116987000Y-100457000D01*
X116967000Y-100457000D01*
X116967000Y-100477000D01*
X116713000Y-100477000D01*
X116713000Y-100457000D01*
X115601750Y-100457000D01*
X115443000Y-100615750D01*
X115441380Y-100866953D01*
X115317753Y-100904454D01*
X115185724Y-100975026D01*
X115185722Y-100975027D01*
X115185723Y-100975027D01*
X115098996Y-101046201D01*
X115098992Y-101046205D01*
X115069999Y-101069999D01*
X115046205Y-101098992D01*
X114488987Y-101656212D01*
X114459990Y-101680009D01*
X114436192Y-101709007D01*
X114436191Y-101709008D01*
X114365016Y-101795734D01*
X114294444Y-101927764D01*
X114250988Y-102071025D01*
X114236314Y-102220010D01*
X114239991Y-102257342D01*
X114239990Y-113882668D01*
X114236314Y-113919990D01*
X114239990Y-113957312D01*
X114239990Y-113957322D01*
X114250987Y-114068975D01*
X114285329Y-114182188D01*
X114294444Y-114212236D01*
X114365016Y-114344266D01*
X114375315Y-114356815D01*
X114459989Y-114459991D01*
X114488993Y-114483794D01*
X115439928Y-115434730D01*
X115439928Y-116332000D01*
X115452188Y-116456482D01*
X115488498Y-116576180D01*
X115547463Y-116686494D01*
X115626815Y-116783185D01*
X115696044Y-116840000D01*
X115626815Y-116896815D01*
X115547463Y-116993506D01*
X115488498Y-117103820D01*
X115452188Y-117223518D01*
X115439928Y-117348000D01*
X115439928Y-118872000D01*
X115452188Y-118996482D01*
X115488498Y-119116180D01*
X115547463Y-119226494D01*
X115626815Y-119323185D01*
X115723506Y-119402537D01*
X115833820Y-119461502D01*
X115953518Y-119497812D01*
X116078000Y-119510072D01*
X116080000Y-119510072D01*
X116080001Y-121205670D01*
X116076324Y-121243002D01*
X116090998Y-121391987D01*
X116134454Y-121535248D01*
X116205026Y-121667278D01*
X116276201Y-121754004D01*
X116300000Y-121783003D01*
X116328998Y-121806801D01*
X118222207Y-123700011D01*
X113881590Y-123700011D01*
X100866534Y-110684956D01*
X100838817Y-110651183D01*
X100704059Y-110540589D01*
X100550313Y-110458411D01*
X100383490Y-110407805D01*
X100348072Y-110404317D01*
X100348072Y-109780000D01*
X100335812Y-109655518D01*
X100299502Y-109535820D01*
X100240537Y-109425506D01*
X100161185Y-109328815D01*
X100064494Y-109249463D01*
X99954180Y-109190498D01*
X99834482Y-109154188D01*
X99710000Y-109141928D01*
X99599650Y-109141928D01*
X109173578Y-99568000D01*
X115439928Y-99568000D01*
X115443000Y-100044250D01*
X115601750Y-100203000D01*
X116713000Y-100203000D01*
X116713000Y-99091750D01*
X116554250Y-98933000D01*
X116078000Y-98929928D01*
X115953518Y-98942188D01*
X115833820Y-98978498D01*
X115723506Y-99037463D01*
X115626815Y-99116815D01*
X115547463Y-99213506D01*
X115488498Y-99323820D01*
X115452188Y-99443518D01*
X115439928Y-99568000D01*
X109173578Y-99568000D01*
X110375051Y-98366528D01*
X110408817Y-98338817D01*
X110440108Y-98300690D01*
X110519411Y-98204059D01*
X110522072Y-98199081D01*
X110601589Y-98050313D01*
X110640544Y-97921898D01*
X110652195Y-97883491D01*
X110653926Y-97865914D01*
X110665000Y-97753477D01*
X110665000Y-97753469D01*
X110669281Y-97710000D01*
X110665000Y-97666531D01*
X110665000Y-86868000D01*
X115439928Y-86868000D01*
X115443000Y-87344250D01*
X115601750Y-87503000D01*
X116713000Y-87503000D01*
X116713000Y-86391750D01*
X116554250Y-86233000D01*
X116078000Y-86229928D01*
X115953518Y-86242188D01*
X115833820Y-86278498D01*
X115723506Y-86337463D01*
X115626815Y-86416815D01*
X115547463Y-86513506D01*
X115488498Y-86623820D01*
X115452188Y-86743518D01*
X115439928Y-86868000D01*
X110665000Y-86868000D01*
X110665000Y-86554625D01*
X110754482Y-86545812D01*
X110874180Y-86509502D01*
X110984494Y-86450537D01*
X111081185Y-86371185D01*
X111160537Y-86274494D01*
X111219502Y-86164180D01*
X111255812Y-86044482D01*
X111268072Y-85920000D01*
X111268072Y-84220000D01*
X111255812Y-84095518D01*
X111219502Y-83975820D01*
X111160537Y-83865506D01*
X111081185Y-83768815D01*
X110984494Y-83689463D01*
X110874180Y-83630498D01*
X110832310Y-83617797D01*
X110933475Y-83516632D01*
X111095990Y-83273411D01*
X111207932Y-83003158D01*
X111265000Y-82716260D01*
X111265000Y-82423740D01*
X111207932Y-82136842D01*
X111095990Y-81866589D01*
X110933475Y-81623368D01*
X110726632Y-81416525D01*
X110483411Y-81254010D01*
X110213158Y-81142068D01*
X109926260Y-81085000D01*
X109633740Y-81085000D01*
X109346842Y-81142068D01*
X109076589Y-81254010D01*
X108833368Y-81416525D01*
X108780000Y-81469893D01*
X108726632Y-81416525D01*
X108483411Y-81254010D01*
X108213158Y-81142068D01*
X107926260Y-81085000D01*
X107633740Y-81085000D01*
X107346842Y-81142068D01*
X107076589Y-81254010D01*
X106833368Y-81416525D01*
X106626525Y-81623368D01*
X106464010Y-81866589D01*
X106352068Y-82136842D01*
X106295000Y-82423740D01*
X106295000Y-82716260D01*
X106352068Y-83003158D01*
X106464010Y-83273411D01*
X106626525Y-83516632D01*
X106833368Y-83723475D01*
X106996410Y-83832416D01*
X106931208Y-84041603D01*
X107780000Y-84890395D01*
X107794143Y-84876253D01*
X107973748Y-85055858D01*
X107959605Y-85070000D01*
X107973748Y-85084143D01*
X107794143Y-85263748D01*
X107780000Y-85249605D01*
X106931208Y-86098397D01*
X107008843Y-86347472D01*
X107272883Y-86473371D01*
X107556411Y-86545339D01*
X107848531Y-86560611D01*
X108138019Y-86518599D01*
X108413747Y-86420919D01*
X108489850Y-86380241D01*
X108575506Y-86450537D01*
X108685820Y-86509502D01*
X108805518Y-86545812D01*
X108895001Y-86554625D01*
X108895000Y-97343421D01*
X97614952Y-108623470D01*
X97581184Y-108651183D01*
X97553471Y-108684951D01*
X97553468Y-108684954D01*
X97470590Y-108785941D01*
X97388412Y-108939687D01*
X97337805Y-109106510D01*
X97334317Y-109141928D01*
X96710000Y-109141928D01*
X96585518Y-109154188D01*
X96465820Y-109190498D01*
X96355506Y-109249463D01*
X96258815Y-109328815D01*
X96179463Y-109425506D01*
X96120498Y-109535820D01*
X96084188Y-109655518D01*
X96071928Y-109780000D01*
X94894000Y-109780000D01*
X94894000Y-102204593D01*
X99465000Y-102204593D01*
X99465000Y-102955408D01*
X99487210Y-103180913D01*
X99574983Y-103470261D01*
X99717519Y-103736927D01*
X99909339Y-103970661D01*
X100143074Y-104162481D01*
X100409740Y-104305017D01*
X100699088Y-104392790D01*
X101000000Y-104422427D01*
X101300913Y-104392790D01*
X101590261Y-104305017D01*
X101856927Y-104162481D01*
X102090661Y-103970661D01*
X102282481Y-103736927D01*
X102425017Y-103470261D01*
X102512790Y-103180912D01*
X102535000Y-102955407D01*
X102535000Y-102204592D01*
X102512790Y-101979087D01*
X102425017Y-101689739D01*
X102282481Y-101423073D01*
X102090661Y-101189339D01*
X101856926Y-100997519D01*
X101590260Y-100854983D01*
X101300912Y-100767210D01*
X101000000Y-100737573D01*
X100699087Y-100767210D01*
X100409739Y-100854983D01*
X100143073Y-100997519D01*
X99909339Y-101189339D01*
X99717519Y-101423074D01*
X99574983Y-101689740D01*
X99487210Y-101979088D01*
X99465000Y-102204593D01*
X94894000Y-102204593D01*
X94894000Y-98444593D01*
X99465000Y-98444593D01*
X99465000Y-99195408D01*
X99487210Y-99420913D01*
X99574983Y-99710261D01*
X99717519Y-99976927D01*
X99909339Y-100210661D01*
X100143074Y-100402481D01*
X100409740Y-100545017D01*
X100699088Y-100632790D01*
X101000000Y-100662427D01*
X101300913Y-100632790D01*
X101590261Y-100545017D01*
X101856927Y-100402481D01*
X102090661Y-100210661D01*
X102282481Y-99976927D01*
X102425017Y-99710261D01*
X102512790Y-99420912D01*
X102535000Y-99195407D01*
X102535000Y-98444592D01*
X102512790Y-98219087D01*
X102425017Y-97929739D01*
X102282481Y-97663073D01*
X102090661Y-97429339D01*
X101856926Y-97237519D01*
X101590260Y-97094983D01*
X101300912Y-97007210D01*
X101000000Y-96977573D01*
X100699087Y-97007210D01*
X100409739Y-97094983D01*
X100143073Y-97237519D01*
X99909339Y-97429339D01*
X99717519Y-97663074D01*
X99574983Y-97929740D01*
X99487210Y-98219088D01*
X99465000Y-98444593D01*
X94894000Y-98444593D01*
X94894000Y-94684593D01*
X99465000Y-94684593D01*
X99465000Y-95435408D01*
X99487210Y-95660913D01*
X99574983Y-95950261D01*
X99717519Y-96216927D01*
X99909339Y-96450661D01*
X100143074Y-96642481D01*
X100409740Y-96785017D01*
X100699088Y-96872790D01*
X101000000Y-96902427D01*
X101300913Y-96872790D01*
X101590261Y-96785017D01*
X101856927Y-96642481D01*
X102090661Y-96450661D01*
X102282481Y-96216927D01*
X102425017Y-95950261D01*
X102512790Y-95660912D01*
X102535000Y-95435407D01*
X102535000Y-94684592D01*
X102512790Y-94459087D01*
X102425017Y-94169739D01*
X102282481Y-93903073D01*
X102090661Y-93669339D01*
X101856926Y-93477519D01*
X101590260Y-93334983D01*
X101300912Y-93247210D01*
X101000000Y-93217573D01*
X100699087Y-93247210D01*
X100409739Y-93334983D01*
X100143073Y-93477519D01*
X99909339Y-93669339D01*
X99717519Y-93903074D01*
X99574983Y-94169740D01*
X99487210Y-94459088D01*
X99465000Y-94684593D01*
X94894000Y-94684593D01*
X94894000Y-91509609D01*
X103579997Y-91509609D01*
X103766073Y-91850766D01*
X104183409Y-92066513D01*
X104634815Y-92196696D01*
X105102946Y-92236313D01*
X105569811Y-92183842D01*
X106017468Y-92041297D01*
X106373927Y-91850766D01*
X106560003Y-91509609D01*
X105070000Y-90019605D01*
X103579997Y-91509609D01*
X94894000Y-91509609D01*
X94894000Y-89872946D01*
X102673687Y-89872946D01*
X102726158Y-90339811D01*
X102868703Y-90787468D01*
X103059234Y-91143927D01*
X103400391Y-91330003D01*
X104890395Y-89840000D01*
X105249605Y-89840000D01*
X106739609Y-91330003D01*
X107080766Y-91143927D01*
X107296513Y-90726591D01*
X107426696Y-90275185D01*
X107466313Y-89807054D01*
X107413842Y-89340189D01*
X107271297Y-88892532D01*
X107080766Y-88536073D01*
X106739609Y-88349997D01*
X105249605Y-89840000D01*
X104890395Y-89840000D01*
X103400391Y-88349997D01*
X103059234Y-88536073D01*
X102843487Y-88953409D01*
X102713304Y-89404815D01*
X102673687Y-89872946D01*
X94894000Y-89872946D01*
X94894000Y-88170391D01*
X103579997Y-88170391D01*
X105070000Y-89660395D01*
X106560003Y-88170391D01*
X106373927Y-87829234D01*
X105956591Y-87613487D01*
X105505185Y-87483304D01*
X105037054Y-87443687D01*
X104570189Y-87496158D01*
X104122532Y-87638703D01*
X103766073Y-87829234D01*
X103579997Y-88170391D01*
X94894000Y-88170391D01*
X94894000Y-85138531D01*
X106289389Y-85138531D01*
X106331401Y-85428019D01*
X106429081Y-85703747D01*
X106502528Y-85841157D01*
X106751603Y-85918792D01*
X107600395Y-85070000D01*
X106751603Y-84221208D01*
X106502528Y-84298843D01*
X106376629Y-84562883D01*
X106304661Y-84846411D01*
X106289389Y-85138531D01*
X94894000Y-85138531D01*
X94894000Y-79469609D01*
X103579997Y-79469609D01*
X103766073Y-79810766D01*
X104183409Y-80026513D01*
X104634815Y-80156696D01*
X105102946Y-80196313D01*
X105569811Y-80143842D01*
X106017468Y-80001297D01*
X106373927Y-79810766D01*
X106560003Y-79469609D01*
X105070000Y-77979605D01*
X103579997Y-79469609D01*
X94894000Y-79469609D01*
X94894000Y-77832946D01*
X102673687Y-77832946D01*
X102726158Y-78299811D01*
X102868703Y-78747468D01*
X103059234Y-79103927D01*
X103400391Y-79290003D01*
X104890395Y-77800000D01*
X105249605Y-77800000D01*
X106739609Y-79290003D01*
X107080766Y-79103927D01*
X107296513Y-78686591D01*
X107426696Y-78235185D01*
X107466313Y-77767054D01*
X107413842Y-77300189D01*
X107271297Y-76852532D01*
X107080766Y-76496073D01*
X106739609Y-76309997D01*
X105249605Y-77800000D01*
X104890395Y-77800000D01*
X103400391Y-76309997D01*
X103059234Y-76496073D01*
X102843487Y-76913409D01*
X102713304Y-77364815D01*
X102673687Y-77832946D01*
X94894000Y-77832946D01*
X94894000Y-76130391D01*
X103579997Y-76130391D01*
X105070000Y-77620395D01*
X106560003Y-76130391D01*
X106373927Y-75789234D01*
X105956591Y-75573487D01*
X105505185Y-75443304D01*
X105037054Y-75403687D01*
X104570189Y-75456158D01*
X104122532Y-75598703D01*
X103766073Y-75789234D01*
X103579997Y-76130391D01*
X94894000Y-76130391D01*
X94894000Y-71280881D01*
X96538724Y-71280881D01*
X96898912Y-71770548D01*
X97562882Y-72130849D01*
X98284385Y-72354694D01*
X99035695Y-72433480D01*
X99787938Y-72364178D01*
X100512208Y-72149452D01*
X101180670Y-71797555D01*
X101221088Y-71770548D01*
X101581276Y-71280881D01*
X99060000Y-68759605D01*
X96538724Y-71280881D01*
X94894000Y-71280881D01*
X94894000Y-68555695D01*
X95206520Y-68555695D01*
X95275822Y-69307938D01*
X95490548Y-70032208D01*
X95842445Y-70700670D01*
X95869452Y-70741088D01*
X96359119Y-71101276D01*
X98880395Y-68580000D01*
X99239605Y-68580000D01*
X101760881Y-71101276D01*
X101954346Y-70958967D01*
X109975000Y-70958967D01*
X109975000Y-71281033D01*
X110037832Y-71596912D01*
X110161082Y-71894463D01*
X110340013Y-72162252D01*
X110567748Y-72389987D01*
X110835537Y-72568918D01*
X111133088Y-72692168D01*
X111448967Y-72755000D01*
X111771033Y-72755000D01*
X112086912Y-72692168D01*
X112384463Y-72568918D01*
X112652252Y-72389987D01*
X112879987Y-72162252D01*
X113058918Y-71894463D01*
X113182168Y-71596912D01*
X113245000Y-71281033D01*
X113245000Y-70958967D01*
X116475000Y-70958967D01*
X116475000Y-71281033D01*
X116537832Y-71596912D01*
X116661082Y-71894463D01*
X116840013Y-72162252D01*
X117067748Y-72389987D01*
X117335537Y-72568918D01*
X117633088Y-72692168D01*
X117948967Y-72755000D01*
X118271033Y-72755000D01*
X118586912Y-72692168D01*
X118884463Y-72568918D01*
X119152252Y-72389987D01*
X119379987Y-72162252D01*
X119558918Y-71894463D01*
X119564080Y-71882000D01*
X120519928Y-71882000D01*
X120532188Y-72006482D01*
X120568498Y-72126180D01*
X120627463Y-72236494D01*
X120706815Y-72333185D01*
X120803506Y-72412537D01*
X120913820Y-72471502D01*
X121033518Y-72507812D01*
X121158000Y-72520072D01*
X121634250Y-72517000D01*
X121793000Y-72358250D01*
X121793000Y-71247000D01*
X120681750Y-71247000D01*
X120523000Y-71405750D01*
X120519928Y-71882000D01*
X119564080Y-71882000D01*
X119682168Y-71596912D01*
X119745000Y-71281033D01*
X119745000Y-70958967D01*
X119682168Y-70643088D01*
X119558918Y-70345537D01*
X119379987Y-70077748D01*
X119152252Y-69850013D01*
X118884463Y-69671082D01*
X118586912Y-69547832D01*
X118271033Y-69485000D01*
X117948967Y-69485000D01*
X117633088Y-69547832D01*
X117335537Y-69671082D01*
X117067748Y-69850013D01*
X116840013Y-70077748D01*
X116661082Y-70345537D01*
X116537832Y-70643088D01*
X116475000Y-70958967D01*
X113245000Y-70958967D01*
X113182168Y-70643088D01*
X113058918Y-70345537D01*
X112879987Y-70077748D01*
X112652252Y-69850013D01*
X112384463Y-69671082D01*
X112086912Y-69547832D01*
X111771033Y-69485000D01*
X111448967Y-69485000D01*
X111133088Y-69547832D01*
X110835537Y-69671082D01*
X110567748Y-69850013D01*
X110340013Y-70077748D01*
X110161082Y-70345537D01*
X110037832Y-70643088D01*
X109975000Y-70958967D01*
X101954346Y-70958967D01*
X102250548Y-70741088D01*
X102610849Y-70077118D01*
X102834694Y-69355615D01*
X102836121Y-69342000D01*
X120519928Y-69342000D01*
X120532188Y-69466482D01*
X120568498Y-69586180D01*
X120627463Y-69696494D01*
X120706815Y-69793185D01*
X120776044Y-69850000D01*
X120706815Y-69906815D01*
X120627463Y-70003506D01*
X120568498Y-70113820D01*
X120532188Y-70233518D01*
X120519928Y-70358000D01*
X120523000Y-70834250D01*
X120681750Y-70993000D01*
X121793000Y-70993000D01*
X121793000Y-69881750D01*
X121761250Y-69850000D01*
X121793000Y-69818250D01*
X121793000Y-68707000D01*
X120681750Y-68707000D01*
X120523000Y-68865750D01*
X120519928Y-69342000D01*
X102836121Y-69342000D01*
X102913480Y-68604305D01*
X102844178Y-67852062D01*
X102815525Y-67755413D01*
X110654192Y-67755413D01*
X110749956Y-68019814D01*
X111039571Y-68160704D01*
X111351108Y-68242384D01*
X111672595Y-68261718D01*
X111991675Y-68217961D01*
X112296088Y-68112795D01*
X112470044Y-68019814D01*
X112565808Y-67755413D01*
X117154192Y-67755413D01*
X117249956Y-68019814D01*
X117539571Y-68160704D01*
X117851108Y-68242384D01*
X118172595Y-68261718D01*
X118491675Y-68217961D01*
X118796088Y-68112795D01*
X118970044Y-68019814D01*
X119043139Y-67818000D01*
X120519928Y-67818000D01*
X120523000Y-68294250D01*
X120681750Y-68453000D01*
X121793000Y-68453000D01*
X121793000Y-67341750D01*
X121634250Y-67183000D01*
X121158000Y-67179928D01*
X121033518Y-67192188D01*
X120913820Y-67228498D01*
X120803506Y-67287463D01*
X120706815Y-67366815D01*
X120627463Y-67463506D01*
X120568498Y-67573820D01*
X120532188Y-67693518D01*
X120519928Y-67818000D01*
X119043139Y-67818000D01*
X119065808Y-67755413D01*
X118110000Y-66799605D01*
X117154192Y-67755413D01*
X112565808Y-67755413D01*
X111610000Y-66799605D01*
X110654192Y-67755413D01*
X102815525Y-67755413D01*
X102629452Y-67127792D01*
X102395088Y-66682595D01*
X109968282Y-66682595D01*
X110012039Y-67001675D01*
X110117205Y-67306088D01*
X110210186Y-67480044D01*
X110474587Y-67575808D01*
X111430395Y-66620000D01*
X111789605Y-66620000D01*
X112745413Y-67575808D01*
X113009814Y-67480044D01*
X113150704Y-67190429D01*
X113232384Y-66878892D01*
X113244189Y-66682595D01*
X116468282Y-66682595D01*
X116512039Y-67001675D01*
X116617205Y-67306088D01*
X116710186Y-67480044D01*
X116974587Y-67575808D01*
X117930395Y-66620000D01*
X118289605Y-66620000D01*
X119245413Y-67575808D01*
X119509814Y-67480044D01*
X119650704Y-67190429D01*
X119732384Y-66878892D01*
X119751718Y-66557405D01*
X119707961Y-66238325D01*
X119602795Y-65933912D01*
X119509814Y-65759956D01*
X119245413Y-65664192D01*
X118289605Y-66620000D01*
X117930395Y-66620000D01*
X116974587Y-65664192D01*
X116710186Y-65759956D01*
X116569296Y-66049571D01*
X116487616Y-66361108D01*
X116468282Y-66682595D01*
X113244189Y-66682595D01*
X113251718Y-66557405D01*
X113207961Y-66238325D01*
X113102795Y-65933912D01*
X113009814Y-65759956D01*
X112745413Y-65664192D01*
X111789605Y-66620000D01*
X111430395Y-66620000D01*
X110474587Y-65664192D01*
X110210186Y-65759956D01*
X110069296Y-66049571D01*
X109987616Y-66361108D01*
X109968282Y-66682595D01*
X102395088Y-66682595D01*
X102277555Y-66459330D01*
X102250548Y-66418912D01*
X101760881Y-66058724D01*
X99239605Y-68580000D01*
X98880395Y-68580000D01*
X96359119Y-66058724D01*
X95869452Y-66418912D01*
X95509151Y-67082882D01*
X95285306Y-67804385D01*
X95206520Y-68555695D01*
X94894000Y-68555695D01*
X94894000Y-65879119D01*
X96538724Y-65879119D01*
X99060000Y-68400395D01*
X101581276Y-65879119D01*
X101291068Y-65484587D01*
X110654192Y-65484587D01*
X111610000Y-66440395D01*
X112565808Y-65484587D01*
X117154192Y-65484587D01*
X118110000Y-66440395D01*
X119065808Y-65484587D01*
X118970044Y-65220186D01*
X118680429Y-65079296D01*
X118368892Y-64997616D01*
X118047405Y-64978282D01*
X117728325Y-65022039D01*
X117423912Y-65127205D01*
X117249956Y-65220186D01*
X117154192Y-65484587D01*
X112565808Y-65484587D01*
X112470044Y-65220186D01*
X112180429Y-65079296D01*
X111868892Y-64997616D01*
X111547405Y-64978282D01*
X111228325Y-65022039D01*
X110923912Y-65127205D01*
X110749956Y-65220186D01*
X110654192Y-65484587D01*
X101291068Y-65484587D01*
X101221088Y-65389452D01*
X100557118Y-65029151D01*
X99835615Y-64805306D01*
X99084305Y-64726520D01*
X98332062Y-64795822D01*
X97607792Y-65010548D01*
X96939330Y-65362445D01*
X96898912Y-65389452D01*
X96538724Y-65879119D01*
X94894000Y-65879119D01*
X94894000Y-64414000D01*
X194666000Y-64414000D01*
X194666001Y-136246000D01*
G36*
X149100000Y-128139928D02*
G01*
X149098000Y-128139928D01*
X148973518Y-128152188D01*
X148853820Y-128188498D01*
X148743506Y-128247463D01*
X148646815Y-128326815D01*
X148590000Y-128396044D01*
X148533185Y-128326815D01*
X148436494Y-128247463D01*
X148326180Y-128188498D01*
X148206482Y-128152188D01*
X148082000Y-128139928D01*
X148080000Y-128139928D01*
X148080000Y-112735000D01*
X148201939Y-112735000D01*
X148401898Y-112695226D01*
X148590256Y-112617205D01*
X148759774Y-112503937D01*
X148903937Y-112359774D01*
X149017205Y-112190256D01*
X149095226Y-112001898D01*
X149100001Y-111977895D01*
X149100000Y-128139928D01*
X149100000Y-128139928D01*
G37*
X149100000Y-128139928D02*
X149098000Y-128139928D01*
X148973518Y-128152188D01*
X148853820Y-128188498D01*
X148743506Y-128247463D01*
X148646815Y-128326815D01*
X148590000Y-128396044D01*
X148533185Y-128326815D01*
X148436494Y-128247463D01*
X148326180Y-128188498D01*
X148206482Y-128152188D01*
X148082000Y-128139928D01*
X148080000Y-128139928D01*
X148080000Y-112735000D01*
X148201939Y-112735000D01*
X148401898Y-112695226D01*
X148590256Y-112617205D01*
X148759774Y-112503937D01*
X148903937Y-112359774D01*
X149017205Y-112190256D01*
X149095226Y-112001898D01*
X149100001Y-111977895D01*
X149100000Y-128139928D01*
G36*
X151640001Y-99853675D02*
G01*
X151640000Y-128139928D01*
X151638000Y-128139928D01*
X151513518Y-128152188D01*
X151393820Y-128188498D01*
X151283506Y-128247463D01*
X151186815Y-128326815D01*
X151130000Y-128396044D01*
X151073185Y-128326815D01*
X150976494Y-128247463D01*
X150866180Y-128188498D01*
X150746482Y-128152188D01*
X150622000Y-128139928D01*
X150620000Y-128139928D01*
X150620000Y-98833674D01*
X151640001Y-99853675D01*
X151640001Y-99853675D01*
G37*
X151640001Y-99853675D02*
X151640000Y-128139928D01*
X151638000Y-128139928D01*
X151513518Y-128152188D01*
X151393820Y-128188498D01*
X151283506Y-128247463D01*
X151186815Y-128326815D01*
X151130000Y-128396044D01*
X151073185Y-128326815D01*
X150976494Y-128247463D01*
X150866180Y-128188498D01*
X150746482Y-128152188D01*
X150622000Y-128139928D01*
X150620000Y-128139928D01*
X150620000Y-98833674D01*
X151640001Y-99853675D01*
G36*
X133860000Y-128139928D02*
G01*
X133858000Y-128139928D01*
X133733518Y-128152188D01*
X133613820Y-128188498D01*
X133503506Y-128247463D01*
X133406815Y-128326815D01*
X133350000Y-128396044D01*
X133293185Y-128326815D01*
X133196494Y-128247463D01*
X133086180Y-128188498D01*
X132966482Y-128152188D01*
X132842000Y-128139928D01*
X131318000Y-128139928D01*
X131193518Y-128152188D01*
X131073820Y-128188498D01*
X130963506Y-128247463D01*
X130866815Y-128326815D01*
X130810000Y-128396044D01*
X130753185Y-128326815D01*
X130656494Y-128247463D01*
X130546180Y-128188498D01*
X130426482Y-128152188D01*
X130302000Y-128139928D01*
X128778000Y-128139928D01*
X128653518Y-128152188D01*
X128533820Y-128188498D01*
X128423506Y-128247463D01*
X128326815Y-128326815D01*
X128270000Y-128396044D01*
X128213185Y-128326815D01*
X128116494Y-128247463D01*
X128006180Y-128188498D01*
X127886482Y-128152188D01*
X127762000Y-128139928D01*
X127760000Y-128139928D01*
X127760000Y-123997325D01*
X127763676Y-123960000D01*
X127760000Y-123922675D01*
X127760000Y-123864801D01*
X133860001Y-117764800D01*
X133860000Y-128139928D01*
X133860000Y-128139928D01*
G37*
X133860000Y-128139928D02*
X133858000Y-128139928D01*
X133733518Y-128152188D01*
X133613820Y-128188498D01*
X133503506Y-128247463D01*
X133406815Y-128326815D01*
X133350000Y-128396044D01*
X133293185Y-128326815D01*
X133196494Y-128247463D01*
X133086180Y-128188498D01*
X132966482Y-128152188D01*
X132842000Y-128139928D01*
X131318000Y-128139928D01*
X131193518Y-128152188D01*
X131073820Y-128188498D01*
X130963506Y-128247463D01*
X130866815Y-128326815D01*
X130810000Y-128396044D01*
X130753185Y-128326815D01*
X130656494Y-128247463D01*
X130546180Y-128188498D01*
X130426482Y-128152188D01*
X130302000Y-128139928D01*
X128778000Y-128139928D01*
X128653518Y-128152188D01*
X128533820Y-128188498D01*
X128423506Y-128247463D01*
X128326815Y-128326815D01*
X128270000Y-128396044D01*
X128213185Y-128326815D01*
X128116494Y-128247463D01*
X128006180Y-128188498D01*
X127886482Y-128152188D01*
X127762000Y-128139928D01*
X127760000Y-128139928D01*
X127760000Y-123997325D01*
X127763676Y-123960000D01*
X127760000Y-123922675D01*
X127760000Y-123864801D01*
X133860001Y-117764800D01*
X133860000Y-128139928D01*
G36*
X126240000Y-128139928D02*
G01*
X126238000Y-128139928D01*
X126113518Y-128152188D01*
X125993820Y-128188498D01*
X125883506Y-128247463D01*
X125786815Y-128326815D01*
X125730000Y-128396044D01*
X125673185Y-128326815D01*
X125576494Y-128247463D01*
X125466180Y-128188498D01*
X125346482Y-128152188D01*
X125336797Y-128151234D01*
X125332195Y-128104510D01*
X125281589Y-127937687D01*
X125199411Y-127783941D01*
X125088817Y-127649183D01*
X125055050Y-127621471D01*
X122203578Y-124770000D01*
X126240001Y-124770000D01*
X126240000Y-128139928D01*
X126240000Y-128139928D01*
G37*
X126240000Y-128139928D02*
X126238000Y-128139928D01*
X126113518Y-128152188D01*
X125993820Y-128188498D01*
X125883506Y-128247463D01*
X125786815Y-128326815D01*
X125730000Y-128396044D01*
X125673185Y-128326815D01*
X125576494Y-128247463D01*
X125466180Y-128188498D01*
X125346482Y-128152188D01*
X125336797Y-128151234D01*
X125332195Y-128104510D01*
X125281589Y-127937687D01*
X125199411Y-127783941D01*
X125088817Y-127649183D01*
X125055050Y-127621471D01*
X122203578Y-124770000D01*
X126240001Y-124770000D01*
X126240000Y-128139928D01*
G36*
X143990034Y-120623164D02*
G01*
X136648998Y-127964201D01*
X136620000Y-127987999D01*
X136596202Y-128016997D01*
X136596201Y-128016998D01*
X136525026Y-128103724D01*
X136505674Y-128139928D01*
X136398000Y-128139928D01*
X136273518Y-128152188D01*
X136153820Y-128188498D01*
X136043506Y-128247463D01*
X135946815Y-128326815D01*
X135890000Y-128396044D01*
X135833185Y-128326815D01*
X135736494Y-128247463D01*
X135626180Y-128188498D01*
X135506482Y-128152188D01*
X135382000Y-128139928D01*
X135380000Y-128139928D01*
X135380000Y-117270121D01*
X140462463Y-112187660D01*
X140524599Y-112187660D01*
X140724558Y-112147886D01*
X140912916Y-112069865D01*
X141082434Y-111956597D01*
X141226597Y-111812434D01*
X141339865Y-111642916D01*
X141417886Y-111454558D01*
X141457660Y-111254599D01*
X141457660Y-111050721D01*
X141417886Y-110850762D01*
X141339865Y-110662404D01*
X141226597Y-110492886D01*
X141179256Y-110445545D01*
X143990035Y-107634767D01*
X143990034Y-120623164D01*
X143990034Y-120623164D01*
G37*
X143990034Y-120623164D02*
X136648998Y-127964201D01*
X136620000Y-127987999D01*
X136596202Y-128016997D01*
X136596201Y-128016998D01*
X136525026Y-128103724D01*
X136505674Y-128139928D01*
X136398000Y-128139928D01*
X136273518Y-128152188D01*
X136153820Y-128188498D01*
X136043506Y-128247463D01*
X135946815Y-128326815D01*
X135890000Y-128396044D01*
X135833185Y-128326815D01*
X135736494Y-128247463D01*
X135626180Y-128188498D01*
X135506482Y-128152188D01*
X135382000Y-128139928D01*
X135380000Y-128139928D01*
X135380000Y-117270121D01*
X140462463Y-112187660D01*
X140524599Y-112187660D01*
X140724558Y-112147886D01*
X140912916Y-112069865D01*
X141082434Y-111956597D01*
X141226597Y-111812434D01*
X141339865Y-111642916D01*
X141417886Y-111454558D01*
X141457660Y-111254599D01*
X141457660Y-111050721D01*
X141417886Y-110850762D01*
X141339865Y-110662404D01*
X141226597Y-110492886D01*
X141179256Y-110445545D01*
X143990035Y-107634767D01*
X143990034Y-120623164D01*
G36*
X154180001Y-101757265D02*
G01*
X154180000Y-128139928D01*
X154178000Y-128139928D01*
X154053518Y-128152188D01*
X153933820Y-128188498D01*
X153823506Y-128247463D01*
X153726815Y-128326815D01*
X153670000Y-128396044D01*
X153613185Y-128326815D01*
X153516494Y-128247463D01*
X153406180Y-128188498D01*
X153286482Y-128152188D01*
X153162000Y-128139928D01*
X153160000Y-128139928D01*
X153160000Y-100737264D01*
X154180001Y-101757265D01*
X154180001Y-101757265D01*
G37*
X154180001Y-101757265D02*
X154180000Y-128139928D01*
X154178000Y-128139928D01*
X154053518Y-128152188D01*
X153933820Y-128188498D01*
X153823506Y-128247463D01*
X153726815Y-128326815D01*
X153670000Y-128396044D01*
X153613185Y-128326815D01*
X153516494Y-128247463D01*
X153406180Y-128188498D01*
X153286482Y-128152188D01*
X153162000Y-128139928D01*
X153160000Y-128139928D01*
X153160000Y-100737264D01*
X154180001Y-101757265D01*
G36*
X127335000Y-99192804D02*
G01*
X127335000Y-99321939D01*
X127374774Y-99521898D01*
X127452795Y-99710256D01*
X127566063Y-99879774D01*
X127710226Y-100023937D01*
X127879744Y-100137205D01*
X128068102Y-100215226D01*
X128268061Y-100255000D01*
X128471939Y-100255000D01*
X128671898Y-100215226D01*
X128860256Y-100137205D01*
X129029774Y-100023937D01*
X129173937Y-99879774D01*
X129287205Y-99710256D01*
X129365226Y-99521898D01*
X129405000Y-99321939D01*
X129405000Y-99118061D01*
X129365226Y-98918102D01*
X129287205Y-98729744D01*
X129173937Y-98560226D01*
X129029774Y-98416063D01*
X128860256Y-98302795D01*
X128671898Y-98224774D01*
X128478007Y-98186207D01*
X126361819Y-96070019D01*
X129474981Y-96070019D01*
X129474982Y-107203470D01*
X129471305Y-107240803D01*
X129474982Y-107278136D01*
X129485979Y-107389789D01*
X129490601Y-107405026D01*
X129529435Y-107533049D01*
X129600007Y-107665079D01*
X129644262Y-107719003D01*
X129694981Y-107780804D01*
X129723979Y-107804602D01*
X130824396Y-108905020D01*
X129479822Y-108905020D01*
X127485000Y-106910199D01*
X127485000Y-106848061D01*
X127445226Y-106648102D01*
X127367205Y-106459744D01*
X127253937Y-106290226D01*
X127109774Y-106146063D01*
X126940256Y-106032795D01*
X126751898Y-105954774D01*
X126551939Y-105915000D01*
X126348061Y-105915000D01*
X126148102Y-105954774D01*
X125959744Y-106032795D01*
X125790226Y-106146063D01*
X125646063Y-106290226D01*
X125532795Y-106459744D01*
X125527250Y-106473131D01*
X124630807Y-105576688D01*
X124630807Y-105514550D01*
X124591033Y-105314591D01*
X124513012Y-105126233D01*
X124399744Y-104956715D01*
X124255581Y-104812552D01*
X124086063Y-104699284D01*
X123897705Y-104621263D01*
X123697746Y-104581489D01*
X123493868Y-104581489D01*
X123293909Y-104621263D01*
X123105551Y-104699284D01*
X122936033Y-104812552D01*
X122791870Y-104956715D01*
X122686108Y-105115000D01*
X122648061Y-105115000D01*
X122448102Y-105154774D01*
X122259744Y-105232795D01*
X122090226Y-105346063D01*
X121946063Y-105490226D01*
X121832795Y-105659744D01*
X121754774Y-105848102D01*
X121715000Y-106048061D01*
X121715000Y-106251939D01*
X121754774Y-106451898D01*
X121832795Y-106640256D01*
X121946063Y-106809774D01*
X122090226Y-106953937D01*
X122259744Y-107067205D01*
X122448102Y-107145226D01*
X122648061Y-107185000D01*
X122710199Y-107185000D01*
X124625744Y-109100545D01*
X124486063Y-109240226D01*
X124372795Y-109409744D01*
X124294774Y-109598102D01*
X124255000Y-109798061D01*
X124255000Y-110001939D01*
X124294774Y-110201898D01*
X124372795Y-110390256D01*
X124486063Y-110559774D01*
X124630226Y-110703937D01*
X124799744Y-110817205D01*
X124988102Y-110895226D01*
X125188061Y-110935000D01*
X125250199Y-110935000D01*
X126576223Y-112261025D01*
X126600021Y-112290023D01*
X126715746Y-112384996D01*
X126847775Y-112455568D01*
X126991036Y-112499025D01*
X127102689Y-112510022D01*
X127102698Y-112510022D01*
X127140021Y-112513698D01*
X127177344Y-112510022D01*
X136965176Y-112510022D01*
X126489002Y-122986197D01*
X126459999Y-123009999D01*
X126365026Y-123125724D01*
X126298598Y-123250000D01*
X119921800Y-123250000D01*
X117600000Y-120928201D01*
X117600000Y-119510072D01*
X117602000Y-119510072D01*
X117726482Y-119497812D01*
X117846180Y-119461502D01*
X117956494Y-119402537D01*
X118053185Y-119323185D01*
X118110000Y-119253956D01*
X118166815Y-119323185D01*
X118263506Y-119402537D01*
X118373820Y-119461502D01*
X118493518Y-119497812D01*
X118618000Y-119510072D01*
X119094250Y-119507000D01*
X119253000Y-119348250D01*
X119253000Y-118237000D01*
X119507000Y-118237000D01*
X119507000Y-119348250D01*
X119665750Y-119507000D01*
X120142000Y-119510072D01*
X120266482Y-119497812D01*
X120386180Y-119461502D01*
X120496494Y-119402537D01*
X120593185Y-119323185D01*
X120672537Y-119226494D01*
X120731502Y-119116180D01*
X120767812Y-118996482D01*
X120780072Y-118872000D01*
X120777000Y-118395750D01*
X120618250Y-118237000D01*
X119507000Y-118237000D01*
X119253000Y-118237000D01*
X119233000Y-118237000D01*
X119233000Y-117983000D01*
X119253000Y-117983000D01*
X119253000Y-117963000D01*
X119507000Y-117963000D01*
X119507000Y-117983000D01*
X120618250Y-117983000D01*
X120777000Y-117824250D01*
X120780072Y-117348000D01*
X120767812Y-117223518D01*
X120731502Y-117103820D01*
X120672537Y-116993506D01*
X120593185Y-116896815D01*
X120523956Y-116840000D01*
X120593185Y-116783185D01*
X120672537Y-116686494D01*
X120731502Y-116576180D01*
X120767812Y-116456482D01*
X120780072Y-116332000D01*
X120780072Y-114808000D01*
X120767812Y-114683518D01*
X120731502Y-114563820D01*
X120672537Y-114453506D01*
X120593185Y-114356815D01*
X120523956Y-114300000D01*
X120593185Y-114243185D01*
X120672537Y-114146494D01*
X120731502Y-114036180D01*
X120767812Y-113916482D01*
X120780072Y-113792000D01*
X120780072Y-112268000D01*
X120767812Y-112143518D01*
X120731502Y-112023820D01*
X120672537Y-111913506D01*
X120593185Y-111816815D01*
X120587461Y-111812117D01*
X121187051Y-111212528D01*
X121220818Y-111184816D01*
X121250415Y-111148753D01*
X121331411Y-111050059D01*
X121331412Y-111050058D01*
X121413590Y-110896312D01*
X121464196Y-110729489D01*
X121477001Y-110599476D01*
X121477001Y-110599466D01*
X121481282Y-110556000D01*
X121477001Y-110512534D01*
X121477001Y-101585466D01*
X121481282Y-101542000D01*
X121477001Y-101498534D01*
X121477001Y-101498524D01*
X121464196Y-101368511D01*
X121413590Y-101201688D01*
X121331412Y-101047942D01*
X121290031Y-100997519D01*
X121248533Y-100946954D01*
X121248531Y-100946952D01*
X121220818Y-100913184D01*
X121187050Y-100885471D01*
X120780072Y-100478493D01*
X120780072Y-100161506D01*
X120967080Y-99974499D01*
X121014413Y-100021832D01*
X121183931Y-100135100D01*
X121372289Y-100213121D01*
X121572248Y-100252895D01*
X121634386Y-100252895D01*
X125672200Y-104290710D01*
X125701373Y-104437372D01*
X125779394Y-104625730D01*
X125892662Y-104795248D01*
X126036825Y-104939411D01*
X126206343Y-105052679D01*
X126394701Y-105130700D01*
X126594660Y-105170474D01*
X126798538Y-105170474D01*
X126998497Y-105130700D01*
X127186855Y-105052679D01*
X127356373Y-104939411D01*
X127500536Y-104795248D01*
X127613804Y-104625730D01*
X127691825Y-104437372D01*
X127731599Y-104237413D01*
X127731599Y-104033535D01*
X127723067Y-103990644D01*
X127853937Y-103859774D01*
X127967205Y-103690256D01*
X128045226Y-103501898D01*
X128085000Y-103301939D01*
X128085000Y-103098061D01*
X128045226Y-102898102D01*
X127967205Y-102709744D01*
X127853937Y-102540226D01*
X127709774Y-102396063D01*
X127540256Y-102282795D01*
X127351898Y-102204774D01*
X127151939Y-102165000D01*
X127109802Y-102165000D01*
X123435000Y-98490199D01*
X123435000Y-98428061D01*
X123395226Y-98228102D01*
X123317205Y-98039744D01*
X123203937Y-97870226D01*
X123059774Y-97726063D01*
X122890256Y-97612795D01*
X122705000Y-97536059D01*
X122705000Y-94562803D01*
X127335000Y-99192804D01*
X127335000Y-99192804D01*
G37*
X127335000Y-99192804D02*
X127335000Y-99321939D01*
X127374774Y-99521898D01*
X127452795Y-99710256D01*
X127566063Y-99879774D01*
X127710226Y-100023937D01*
X127879744Y-100137205D01*
X128068102Y-100215226D01*
X128268061Y-100255000D01*
X128471939Y-100255000D01*
X128671898Y-100215226D01*
X128860256Y-100137205D01*
X129029774Y-100023937D01*
X129173937Y-99879774D01*
X129287205Y-99710256D01*
X129365226Y-99521898D01*
X129405000Y-99321939D01*
X129405000Y-99118061D01*
X129365226Y-98918102D01*
X129287205Y-98729744D01*
X129173937Y-98560226D01*
X129029774Y-98416063D01*
X128860256Y-98302795D01*
X128671898Y-98224774D01*
X128478007Y-98186207D01*
X126361819Y-96070019D01*
X129474981Y-96070019D01*
X129474982Y-107203470D01*
X129471305Y-107240803D01*
X129474982Y-107278136D01*
X129485979Y-107389789D01*
X129490601Y-107405026D01*
X129529435Y-107533049D01*
X129600007Y-107665079D01*
X129644262Y-107719003D01*
X129694981Y-107780804D01*
X129723979Y-107804602D01*
X130824396Y-108905020D01*
X129479822Y-108905020D01*
X127485000Y-106910199D01*
X127485000Y-106848061D01*
X127445226Y-106648102D01*
X127367205Y-106459744D01*
X127253937Y-106290226D01*
X127109774Y-106146063D01*
X126940256Y-106032795D01*
X126751898Y-105954774D01*
X126551939Y-105915000D01*
X126348061Y-105915000D01*
X126148102Y-105954774D01*
X125959744Y-106032795D01*
X125790226Y-106146063D01*
X125646063Y-106290226D01*
X125532795Y-106459744D01*
X125527250Y-106473131D01*
X124630807Y-105576688D01*
X124630807Y-105514550D01*
X124591033Y-105314591D01*
X124513012Y-105126233D01*
X124399744Y-104956715D01*
X124255581Y-104812552D01*
X124086063Y-104699284D01*
X123897705Y-104621263D01*
X123697746Y-104581489D01*
X123493868Y-104581489D01*
X123293909Y-104621263D01*
X123105551Y-104699284D01*
X122936033Y-104812552D01*
X122791870Y-104956715D01*
X122686108Y-105115000D01*
X122648061Y-105115000D01*
X122448102Y-105154774D01*
X122259744Y-105232795D01*
X122090226Y-105346063D01*
X121946063Y-105490226D01*
X121832795Y-105659744D01*
X121754774Y-105848102D01*
X121715000Y-106048061D01*
X121715000Y-106251939D01*
X121754774Y-106451898D01*
X121832795Y-106640256D01*
X121946063Y-106809774D01*
X122090226Y-106953937D01*
X122259744Y-107067205D01*
X122448102Y-107145226D01*
X122648061Y-107185000D01*
X122710199Y-107185000D01*
X124625744Y-109100545D01*
X124486063Y-109240226D01*
X124372795Y-109409744D01*
X124294774Y-109598102D01*
X124255000Y-109798061D01*
X124255000Y-110001939D01*
X124294774Y-110201898D01*
X124372795Y-110390256D01*
X124486063Y-110559774D01*
X124630226Y-110703937D01*
X124799744Y-110817205D01*
X124988102Y-110895226D01*
X125188061Y-110935000D01*
X125250199Y-110935000D01*
X126576223Y-112261025D01*
X126600021Y-112290023D01*
X126715746Y-112384996D01*
X126847775Y-112455568D01*
X126991036Y-112499025D01*
X127102689Y-112510022D01*
X127102698Y-112510022D01*
X127140021Y-112513698D01*
X127177344Y-112510022D01*
X136965176Y-112510022D01*
X126489002Y-122986197D01*
X126459999Y-123009999D01*
X126365026Y-123125724D01*
X126298598Y-123250000D01*
X119921800Y-123250000D01*
X117600000Y-120928201D01*
X117600000Y-119510072D01*
X117602000Y-119510072D01*
X117726482Y-119497812D01*
X117846180Y-119461502D01*
X117956494Y-119402537D01*
X118053185Y-119323185D01*
X118110000Y-119253956D01*
X118166815Y-119323185D01*
X118263506Y-119402537D01*
X118373820Y-119461502D01*
X118493518Y-119497812D01*
X118618000Y-119510072D01*
X119094250Y-119507000D01*
X119253000Y-119348250D01*
X119253000Y-118237000D01*
X119507000Y-118237000D01*
X119507000Y-119348250D01*
X119665750Y-119507000D01*
X120142000Y-119510072D01*
X120266482Y-119497812D01*
X120386180Y-119461502D01*
X120496494Y-119402537D01*
X120593185Y-119323185D01*
X120672537Y-119226494D01*
X120731502Y-119116180D01*
X120767812Y-118996482D01*
X120780072Y-118872000D01*
X120777000Y-118395750D01*
X120618250Y-118237000D01*
X119507000Y-118237000D01*
X119253000Y-118237000D01*
X119233000Y-118237000D01*
X119233000Y-117983000D01*
X119253000Y-117983000D01*
X119253000Y-117963000D01*
X119507000Y-117963000D01*
X119507000Y-117983000D01*
X120618250Y-117983000D01*
X120777000Y-117824250D01*
X120780072Y-117348000D01*
X120767812Y-117223518D01*
X120731502Y-117103820D01*
X120672537Y-116993506D01*
X120593185Y-116896815D01*
X120523956Y-116840000D01*
X120593185Y-116783185D01*
X120672537Y-116686494D01*
X120731502Y-116576180D01*
X120767812Y-116456482D01*
X120780072Y-116332000D01*
X120780072Y-114808000D01*
X120767812Y-114683518D01*
X120731502Y-114563820D01*
X120672537Y-114453506D01*
X120593185Y-114356815D01*
X120523956Y-114300000D01*
X120593185Y-114243185D01*
X120672537Y-114146494D01*
X120731502Y-114036180D01*
X120767812Y-113916482D01*
X120780072Y-113792000D01*
X120780072Y-112268000D01*
X120767812Y-112143518D01*
X120731502Y-112023820D01*
X120672537Y-111913506D01*
X120593185Y-111816815D01*
X120587461Y-111812117D01*
X121187051Y-111212528D01*
X121220818Y-111184816D01*
X121250415Y-111148753D01*
X121331411Y-111050059D01*
X121331412Y-111050058D01*
X121413590Y-110896312D01*
X121464196Y-110729489D01*
X121477001Y-110599476D01*
X121477001Y-110599466D01*
X121481282Y-110556000D01*
X121477001Y-110512534D01*
X121477001Y-101585466D01*
X121481282Y-101542000D01*
X121477001Y-101498534D01*
X121477001Y-101498524D01*
X121464196Y-101368511D01*
X121413590Y-101201688D01*
X121331412Y-101047942D01*
X121290031Y-100997519D01*
X121248533Y-100946954D01*
X121248531Y-100946952D01*
X121220818Y-100913184D01*
X121187050Y-100885471D01*
X120780072Y-100478493D01*
X120780072Y-100161506D01*
X120967080Y-99974499D01*
X121014413Y-100021832D01*
X121183931Y-100135100D01*
X121372289Y-100213121D01*
X121572248Y-100252895D01*
X121634386Y-100252895D01*
X125672200Y-104290710D01*
X125701373Y-104437372D01*
X125779394Y-104625730D01*
X125892662Y-104795248D01*
X126036825Y-104939411D01*
X126206343Y-105052679D01*
X126394701Y-105130700D01*
X126594660Y-105170474D01*
X126798538Y-105170474D01*
X126998497Y-105130700D01*
X127186855Y-105052679D01*
X127356373Y-104939411D01*
X127500536Y-104795248D01*
X127613804Y-104625730D01*
X127691825Y-104437372D01*
X127731599Y-104237413D01*
X127731599Y-104033535D01*
X127723067Y-103990644D01*
X127853937Y-103859774D01*
X127967205Y-103690256D01*
X128045226Y-103501898D01*
X128085000Y-103301939D01*
X128085000Y-103098061D01*
X128045226Y-102898102D01*
X127967205Y-102709744D01*
X127853937Y-102540226D01*
X127709774Y-102396063D01*
X127540256Y-102282795D01*
X127351898Y-102204774D01*
X127151939Y-102165000D01*
X127109802Y-102165000D01*
X123435000Y-98490199D01*
X123435000Y-98428061D01*
X123395226Y-98228102D01*
X123317205Y-98039744D01*
X123203937Y-97870226D01*
X123059774Y-97726063D01*
X122890256Y-97612795D01*
X122705000Y-97536059D01*
X122705000Y-94562803D01*
X127335000Y-99192804D01*
G36*
X191340000Y-106655198D02*
G01*
X184165000Y-113830199D01*
X184165000Y-113693439D01*
X184115619Y-113445179D01*
X184018753Y-113211324D01*
X183878125Y-113000860D01*
X183699140Y-112821875D01*
X183488676Y-112681247D01*
X183254821Y-112584381D01*
X183006561Y-112535000D01*
X182753439Y-112535000D01*
X182505179Y-112584381D01*
X182271324Y-112681247D01*
X182060860Y-112821875D01*
X181881875Y-113000860D01*
X181741247Y-113211324D01*
X181644381Y-113445179D01*
X181595000Y-113693439D01*
X181595000Y-113946561D01*
X181644381Y-114194821D01*
X181741247Y-114428676D01*
X181881875Y-114639140D01*
X182060860Y-114818125D01*
X182271324Y-114958753D01*
X182505179Y-115055619D01*
X182753439Y-115105000D01*
X182890199Y-115105000D01*
X181125199Y-116870000D01*
X179796105Y-116870000D01*
X179692012Y-116618698D01*
X179458363Y-116269017D01*
X179160983Y-115971637D01*
X178811302Y-115737988D01*
X178779946Y-115725000D01*
X178811302Y-115712012D01*
X179160983Y-115478363D01*
X179458363Y-115180983D01*
X179692012Y-114831302D01*
X179852953Y-114442756D01*
X179935000Y-114030279D01*
X179935000Y-114011801D01*
X191011003Y-102935799D01*
X191040001Y-102912001D01*
X191134974Y-102796276D01*
X191154326Y-102760072D01*
X191262000Y-102760072D01*
X191340000Y-102752390D01*
X191340000Y-106655198D01*
X191340000Y-106655198D01*
G37*
X191340000Y-106655198D02*
X184165000Y-113830199D01*
X184165000Y-113693439D01*
X184115619Y-113445179D01*
X184018753Y-113211324D01*
X183878125Y-113000860D01*
X183699140Y-112821875D01*
X183488676Y-112681247D01*
X183254821Y-112584381D01*
X183006561Y-112535000D01*
X182753439Y-112535000D01*
X182505179Y-112584381D01*
X182271324Y-112681247D01*
X182060860Y-112821875D01*
X181881875Y-113000860D01*
X181741247Y-113211324D01*
X181644381Y-113445179D01*
X181595000Y-113693439D01*
X181595000Y-113946561D01*
X181644381Y-114194821D01*
X181741247Y-114428676D01*
X181881875Y-114639140D01*
X182060860Y-114818125D01*
X182271324Y-114958753D01*
X182505179Y-115055619D01*
X182753439Y-115105000D01*
X182890199Y-115105000D01*
X181125199Y-116870000D01*
X179796105Y-116870000D01*
X179692012Y-116618698D01*
X179458363Y-116269017D01*
X179160983Y-115971637D01*
X178811302Y-115737988D01*
X178779946Y-115725000D01*
X178811302Y-115712012D01*
X179160983Y-115478363D01*
X179458363Y-115180983D01*
X179692012Y-114831302D01*
X179852953Y-114442756D01*
X179935000Y-114030279D01*
X179935000Y-114011801D01*
X191011003Y-102935799D01*
X191040001Y-102912001D01*
X191134974Y-102796276D01*
X191154326Y-102760072D01*
X191262000Y-102760072D01*
X191340000Y-102752390D01*
X191340000Y-106655198D01*
G36*
X189099928Y-99582000D02*
G01*
X189112188Y-99706482D01*
X189148498Y-99826180D01*
X189207463Y-99936494D01*
X189286815Y-100033185D01*
X189356044Y-100090000D01*
X189286815Y-100146815D01*
X189207463Y-100243506D01*
X189148498Y-100353820D01*
X189112188Y-100473518D01*
X189099928Y-100598000D01*
X189099928Y-102122000D01*
X189112188Y-102246482D01*
X189148498Y-102366180D01*
X189207463Y-102476494D01*
X189258507Y-102538691D01*
X179398272Y-112398926D01*
X179160983Y-112161637D01*
X178811302Y-111927988D01*
X178779946Y-111915000D01*
X178811302Y-111902012D01*
X179160983Y-111668363D01*
X179458363Y-111370983D01*
X179692012Y-111021302D01*
X179852953Y-110632756D01*
X179935000Y-110220279D01*
X179935000Y-109799721D01*
X179852953Y-109387244D01*
X179748860Y-109135941D01*
X183391003Y-105493799D01*
X183420001Y-105470001D01*
X183476553Y-105401092D01*
X183514974Y-105354277D01*
X183585546Y-105222247D01*
X183589000Y-105210860D01*
X183629003Y-105078986D01*
X183640000Y-104967333D01*
X183640000Y-104967323D01*
X183643676Y-104930000D01*
X183640000Y-104892677D01*
X183640000Y-99560000D01*
X189099928Y-99560000D01*
X189099928Y-99582000D01*
X189099928Y-99582000D01*
G37*
X189099928Y-99582000D02*
X189112188Y-99706482D01*
X189148498Y-99826180D01*
X189207463Y-99936494D01*
X189286815Y-100033185D01*
X189356044Y-100090000D01*
X189286815Y-100146815D01*
X189207463Y-100243506D01*
X189148498Y-100353820D01*
X189112188Y-100473518D01*
X189099928Y-100598000D01*
X189099928Y-102122000D01*
X189112188Y-102246482D01*
X189148498Y-102366180D01*
X189207463Y-102476494D01*
X189258507Y-102538691D01*
X179398272Y-112398926D01*
X179160983Y-112161637D01*
X178811302Y-111927988D01*
X178779946Y-111915000D01*
X178811302Y-111902012D01*
X179160983Y-111668363D01*
X179458363Y-111370983D01*
X179692012Y-111021302D01*
X179852953Y-110632756D01*
X179935000Y-110220279D01*
X179935000Y-109799721D01*
X179852953Y-109387244D01*
X179748860Y-109135941D01*
X183391003Y-105493799D01*
X183420001Y-105470001D01*
X183476553Y-105401092D01*
X183514974Y-105354277D01*
X183585546Y-105222247D01*
X183589000Y-105210860D01*
X183629003Y-105078986D01*
X183640000Y-104967333D01*
X183640000Y-104967323D01*
X183643676Y-104930000D01*
X183640000Y-104892677D01*
X183640000Y-99560000D01*
X189099928Y-99560000D01*
X189099928Y-99582000D01*
G36*
X149100001Y-111422106D02*
G01*
X149095226Y-111398102D01*
X149017205Y-111209744D01*
X148903937Y-111040226D01*
X148860000Y-110996289D01*
X148860000Y-105103711D01*
X149003937Y-104959774D01*
X149100001Y-104816004D01*
X149100001Y-111422106D01*
X149100001Y-111422106D01*
G37*
X149100001Y-111422106D02*
X149095226Y-111398102D01*
X149017205Y-111209744D01*
X148903937Y-111040226D01*
X148860000Y-110996289D01*
X148860000Y-105103711D01*
X149003937Y-104959774D01*
X149100001Y-104816004D01*
X149100001Y-111422106D01*
G36*
X139210341Y-98054311D02*
G01*
X139323609Y-98223829D01*
X139365000Y-98265220D01*
X139365000Y-98661447D01*
X139361203Y-98700000D01*
X139365000Y-98738553D01*
X139365000Y-98738560D01*
X139376359Y-98853886D01*
X139421246Y-99001859D01*
X139494138Y-99138232D01*
X139592236Y-99257764D01*
X139622190Y-99282347D01*
X140803502Y-100463659D01*
X140803501Y-102577061D01*
X140814860Y-102692387D01*
X140828502Y-102737358D01*
X140828502Y-103812340D01*
X140761561Y-103812340D01*
X140561602Y-103852114D01*
X140373244Y-103930135D01*
X140264272Y-104002947D01*
X140171745Y-103964621D01*
X139971786Y-103924847D01*
X139767908Y-103924847D01*
X139567949Y-103964621D01*
X139379591Y-104042642D01*
X139210073Y-104155910D01*
X139065910Y-104300073D01*
X138952642Y-104469591D01*
X138874621Y-104657949D01*
X138834847Y-104857908D01*
X138834847Y-104920045D01*
X136135892Y-107619001D01*
X136107205Y-107549744D01*
X135993937Y-107380226D01*
X135849774Y-107236063D01*
X135680256Y-107122795D01*
X135491898Y-107044774D01*
X135291939Y-107005000D01*
X135088061Y-107005000D01*
X134888102Y-107044774D01*
X134699744Y-107122795D01*
X134530226Y-107236063D01*
X134486289Y-107280000D01*
X132621800Y-107280000D01*
X132592755Y-107250956D01*
X132663937Y-107179774D01*
X132777205Y-107010256D01*
X132855226Y-106821898D01*
X132895000Y-106621939D01*
X132895000Y-106418061D01*
X132855226Y-106218102D01*
X132777205Y-106029744D01*
X132663937Y-105860226D01*
X132620000Y-105816289D01*
X132620000Y-104404801D01*
X139140090Y-97884712D01*
X139210341Y-98054311D01*
X139210341Y-98054311D01*
G37*
X139210341Y-98054311D02*
X139323609Y-98223829D01*
X139365000Y-98265220D01*
X139365000Y-98661447D01*
X139361203Y-98700000D01*
X139365000Y-98738553D01*
X139365000Y-98738560D01*
X139376359Y-98853886D01*
X139421246Y-99001859D01*
X139494138Y-99138232D01*
X139592236Y-99257764D01*
X139622190Y-99282347D01*
X140803502Y-100463659D01*
X140803501Y-102577061D01*
X140814860Y-102692387D01*
X140828502Y-102737358D01*
X140828502Y-103812340D01*
X140761561Y-103812340D01*
X140561602Y-103852114D01*
X140373244Y-103930135D01*
X140264272Y-104002947D01*
X140171745Y-103964621D01*
X139971786Y-103924847D01*
X139767908Y-103924847D01*
X139567949Y-103964621D01*
X139379591Y-104042642D01*
X139210073Y-104155910D01*
X139065910Y-104300073D01*
X138952642Y-104469591D01*
X138874621Y-104657949D01*
X138834847Y-104857908D01*
X138834847Y-104920045D01*
X136135892Y-107619001D01*
X136107205Y-107549744D01*
X135993937Y-107380226D01*
X135849774Y-107236063D01*
X135680256Y-107122795D01*
X135491898Y-107044774D01*
X135291939Y-107005000D01*
X135088061Y-107005000D01*
X134888102Y-107044774D01*
X134699744Y-107122795D01*
X134530226Y-107236063D01*
X134486289Y-107280000D01*
X132621800Y-107280000D01*
X132592755Y-107250956D01*
X132663937Y-107179774D01*
X132777205Y-107010256D01*
X132855226Y-106821898D01*
X132895000Y-106621939D01*
X132895000Y-106418061D01*
X132855226Y-106218102D01*
X132777205Y-106029744D01*
X132663937Y-105860226D01*
X132620000Y-105816289D01*
X132620000Y-104404801D01*
X139140090Y-97884712D01*
X139210341Y-98054311D01*
G36*
X151186815Y-72333185D02*
G01*
X151283506Y-72412537D01*
X151393820Y-72471502D01*
X151513518Y-72507812D01*
X151638000Y-72520072D01*
X151640000Y-72520072D01*
X151640001Y-92335197D01*
X149770199Y-94205000D01*
X149708061Y-94205000D01*
X149508102Y-94244774D01*
X149319744Y-94322795D01*
X149150226Y-94436063D01*
X149079314Y-94506975D01*
X145351311Y-90778972D01*
X145327508Y-90749968D01*
X145211783Y-90654995D01*
X145079754Y-90584423D01*
X144936493Y-90540966D01*
X144824840Y-90529969D01*
X144824829Y-90529969D01*
X144787507Y-90526293D01*
X144750185Y-90529969D01*
X140593739Y-90529969D01*
X140556416Y-90526293D01*
X140519093Y-90529969D01*
X140519084Y-90529969D01*
X140407431Y-90540966D01*
X140264170Y-90584423D01*
X140132141Y-90654995D01*
X140016416Y-90749968D01*
X139992618Y-90778966D01*
X136908392Y-93863193D01*
X136846254Y-93863193D01*
X136646295Y-93902967D01*
X136457937Y-93980988D01*
X136288419Y-94094256D01*
X136144256Y-94238419D01*
X136030988Y-94407937D01*
X135952967Y-94596295D01*
X135913193Y-94796254D01*
X135913193Y-95000132D01*
X135952967Y-95200091D01*
X136030988Y-95388449D01*
X136144256Y-95557967D01*
X136191590Y-95605301D01*
X132753868Y-99043023D01*
X132691730Y-99043023D01*
X132491771Y-99082797D01*
X132303413Y-99160818D01*
X132133895Y-99274086D01*
X131989732Y-99418249D01*
X131894999Y-99560027D01*
X131894999Y-91872804D01*
X150371003Y-73396801D01*
X150400001Y-73373003D01*
X150494974Y-73257278D01*
X150565546Y-73125249D01*
X150609003Y-72981988D01*
X150620000Y-72870335D01*
X150620000Y-72870326D01*
X150623676Y-72833003D01*
X150620000Y-72795680D01*
X150620000Y-72520072D01*
X150622000Y-72520072D01*
X150746482Y-72507812D01*
X150866180Y-72471502D01*
X150976494Y-72412537D01*
X151073185Y-72333185D01*
X151130000Y-72263956D01*
X151186815Y-72333185D01*
X151186815Y-72333185D01*
G37*
X151186815Y-72333185D02*
X151283506Y-72412537D01*
X151393820Y-72471502D01*
X151513518Y-72507812D01*
X151638000Y-72520072D01*
X151640000Y-72520072D01*
X151640001Y-92335197D01*
X149770199Y-94205000D01*
X149708061Y-94205000D01*
X149508102Y-94244774D01*
X149319744Y-94322795D01*
X149150226Y-94436063D01*
X149079314Y-94506975D01*
X145351311Y-90778972D01*
X145327508Y-90749968D01*
X145211783Y-90654995D01*
X145079754Y-90584423D01*
X144936493Y-90540966D01*
X144824840Y-90529969D01*
X144824829Y-90529969D01*
X144787507Y-90526293D01*
X144750185Y-90529969D01*
X140593739Y-90529969D01*
X140556416Y-90526293D01*
X140519093Y-90529969D01*
X140519084Y-90529969D01*
X140407431Y-90540966D01*
X140264170Y-90584423D01*
X140132141Y-90654995D01*
X140016416Y-90749968D01*
X139992618Y-90778966D01*
X136908392Y-93863193D01*
X136846254Y-93863193D01*
X136646295Y-93902967D01*
X136457937Y-93980988D01*
X136288419Y-94094256D01*
X136144256Y-94238419D01*
X136030988Y-94407937D01*
X135952967Y-94596295D01*
X135913193Y-94796254D01*
X135913193Y-95000132D01*
X135952967Y-95200091D01*
X136030988Y-95388449D01*
X136144256Y-95557967D01*
X136191590Y-95605301D01*
X132753868Y-99043023D01*
X132691730Y-99043023D01*
X132491771Y-99082797D01*
X132303413Y-99160818D01*
X132133895Y-99274086D01*
X131989732Y-99418249D01*
X131894999Y-99560027D01*
X131894999Y-91872804D01*
X150371003Y-73396801D01*
X150400001Y-73373003D01*
X150494974Y-73257278D01*
X150565546Y-73125249D01*
X150609003Y-72981988D01*
X150620000Y-72870335D01*
X150620000Y-72870326D01*
X150623676Y-72833003D01*
X150620000Y-72795680D01*
X150620000Y-72520072D01*
X150622000Y-72520072D01*
X150746482Y-72507812D01*
X150866180Y-72471502D01*
X150976494Y-72412537D01*
X151073185Y-72333185D01*
X151130000Y-72263956D01*
X151186815Y-72333185D01*
G36*
X125049668Y-73080001D02*
G01*
X125044455Y-73089753D01*
X125000998Y-73233014D01*
X124990001Y-73344667D01*
X124990001Y-73344677D01*
X124986325Y-73381999D01*
X124990001Y-73419321D01*
X124990002Y-92722661D01*
X124986325Y-92759994D01*
X124990002Y-92797327D01*
X125000999Y-92908980D01*
X125008056Y-92932245D01*
X125044455Y-93052240D01*
X125115027Y-93184270D01*
X125186202Y-93270996D01*
X125210001Y-93299995D01*
X125238999Y-93323793D01*
X126083242Y-94168038D01*
X126107036Y-94197031D01*
X126136029Y-94220825D01*
X126136033Y-94220829D01*
X126178171Y-94255410D01*
X126222761Y-94292004D01*
X126354790Y-94362576D01*
X126497998Y-94406017D01*
X126552948Y-94460967D01*
X126611394Y-94500019D01*
X126314603Y-94500019D01*
X126269572Y-94486359D01*
X126236847Y-94483136D01*
X126209774Y-94456063D01*
X126040256Y-94342795D01*
X125851898Y-94264774D01*
X125651939Y-94225000D01*
X125448061Y-94225000D01*
X125248102Y-94264774D01*
X125059744Y-94342795D01*
X124890226Y-94456063D01*
X124819044Y-94527245D01*
X123930000Y-93638201D01*
X123930000Y-77523711D01*
X123973937Y-77479774D01*
X124087205Y-77310256D01*
X124165226Y-77121898D01*
X124205000Y-76921939D01*
X124205000Y-76718061D01*
X124165226Y-76518102D01*
X124087205Y-76329744D01*
X123973937Y-76160226D01*
X123829774Y-76016063D01*
X123660256Y-75902795D01*
X123471898Y-75824774D01*
X123271939Y-75785000D01*
X123068061Y-75785000D01*
X122868102Y-75824774D01*
X122705000Y-75892334D01*
X122705000Y-75386578D01*
X125055049Y-73036530D01*
X125086856Y-73010426D01*
X125049668Y-73080001D01*
X125049668Y-73080001D01*
G37*
X125049668Y-73080001D02*
X125044455Y-73089753D01*
X125000998Y-73233014D01*
X124990001Y-73344667D01*
X124990001Y-73344677D01*
X124986325Y-73381999D01*
X124990001Y-73419321D01*
X124990002Y-92722661D01*
X124986325Y-92759994D01*
X124990002Y-92797327D01*
X125000999Y-92908980D01*
X125008056Y-92932245D01*
X125044455Y-93052240D01*
X125115027Y-93184270D01*
X125186202Y-93270996D01*
X125210001Y-93299995D01*
X125238999Y-93323793D01*
X126083242Y-94168038D01*
X126107036Y-94197031D01*
X126136029Y-94220825D01*
X126136033Y-94220829D01*
X126178171Y-94255410D01*
X126222761Y-94292004D01*
X126354790Y-94362576D01*
X126497998Y-94406017D01*
X126552948Y-94460967D01*
X126611394Y-94500019D01*
X126314603Y-94500019D01*
X126269572Y-94486359D01*
X126236847Y-94483136D01*
X126209774Y-94456063D01*
X126040256Y-94342795D01*
X125851898Y-94264774D01*
X125651939Y-94225000D01*
X125448061Y-94225000D01*
X125248102Y-94264774D01*
X125059744Y-94342795D01*
X124890226Y-94456063D01*
X124819044Y-94527245D01*
X123930000Y-93638201D01*
X123930000Y-77523711D01*
X123973937Y-77479774D01*
X124087205Y-77310256D01*
X124165226Y-77121898D01*
X124205000Y-76921939D01*
X124205000Y-76718061D01*
X124165226Y-76518102D01*
X124087205Y-76329744D01*
X123973937Y-76160226D01*
X123829774Y-76016063D01*
X123660256Y-75902795D01*
X123471898Y-75824774D01*
X123271939Y-75785000D01*
X123068061Y-75785000D01*
X122868102Y-75824774D01*
X122705000Y-75892334D01*
X122705000Y-75386578D01*
X125055049Y-73036530D01*
X125086856Y-73010426D01*
X125049668Y-73080001D01*
G36*
X143566815Y-72333185D02*
G01*
X143663506Y-72412537D01*
X143773820Y-72471502D01*
X143893518Y-72507812D01*
X144018000Y-72520072D01*
X144020000Y-72520072D01*
X144020001Y-74838201D01*
X130047653Y-88810550D01*
X129973937Y-88700226D01*
X129930000Y-88656289D01*
X129930000Y-82976801D01*
X140211003Y-72695799D01*
X140240001Y-72672001D01*
X140334974Y-72556276D01*
X140354326Y-72520072D01*
X140462000Y-72520072D01*
X140586482Y-72507812D01*
X140706180Y-72471502D01*
X140816494Y-72412537D01*
X140913185Y-72333185D01*
X140970000Y-72263956D01*
X141026815Y-72333185D01*
X141123506Y-72412537D01*
X141233820Y-72471502D01*
X141353518Y-72507812D01*
X141478000Y-72520072D01*
X141480001Y-72520072D01*
X141480001Y-73331892D01*
X132250585Y-82561309D01*
X132188447Y-82561309D01*
X131988488Y-82601083D01*
X131800130Y-82679104D01*
X131630612Y-82792372D01*
X131486449Y-82936535D01*
X131373181Y-83106053D01*
X131295160Y-83294411D01*
X131255386Y-83494370D01*
X131255386Y-83698248D01*
X131295160Y-83898207D01*
X131373181Y-84086565D01*
X131486449Y-84256083D01*
X131630612Y-84400246D01*
X131800130Y-84513514D01*
X131988488Y-84591535D01*
X132188447Y-84631309D01*
X132392325Y-84631309D01*
X132592284Y-84591535D01*
X132780642Y-84513514D01*
X132950160Y-84400246D01*
X133094323Y-84256083D01*
X133207591Y-84086565D01*
X133285612Y-83898207D01*
X133325386Y-83698248D01*
X133325386Y-83636110D01*
X142751003Y-74210494D01*
X142780001Y-74186696D01*
X142825941Y-74130718D01*
X142874974Y-74070972D01*
X142945546Y-73938942D01*
X142962616Y-73882668D01*
X142989003Y-73795681D01*
X143000000Y-73684028D01*
X143000000Y-73684019D01*
X143003676Y-73646696D01*
X143000000Y-73609373D01*
X143000000Y-72520072D01*
X143002000Y-72520072D01*
X143126482Y-72507812D01*
X143246180Y-72471502D01*
X143356494Y-72412537D01*
X143453185Y-72333185D01*
X143510000Y-72263956D01*
X143566815Y-72333185D01*
X143566815Y-72333185D01*
G37*
X143566815Y-72333185D02*
X143663506Y-72412537D01*
X143773820Y-72471502D01*
X143893518Y-72507812D01*
X144018000Y-72520072D01*
X144020000Y-72520072D01*
X144020001Y-74838201D01*
X130047653Y-88810550D01*
X129973937Y-88700226D01*
X129930000Y-88656289D01*
X129930000Y-82976801D01*
X140211003Y-72695799D01*
X140240001Y-72672001D01*
X140334974Y-72556276D01*
X140354326Y-72520072D01*
X140462000Y-72520072D01*
X140586482Y-72507812D01*
X140706180Y-72471502D01*
X140816494Y-72412537D01*
X140913185Y-72333185D01*
X140970000Y-72263956D01*
X141026815Y-72333185D01*
X141123506Y-72412537D01*
X141233820Y-72471502D01*
X141353518Y-72507812D01*
X141478000Y-72520072D01*
X141480001Y-72520072D01*
X141480001Y-73331892D01*
X132250585Y-82561309D01*
X132188447Y-82561309D01*
X131988488Y-82601083D01*
X131800130Y-82679104D01*
X131630612Y-82792372D01*
X131486449Y-82936535D01*
X131373181Y-83106053D01*
X131295160Y-83294411D01*
X131255386Y-83494370D01*
X131255386Y-83698248D01*
X131295160Y-83898207D01*
X131373181Y-84086565D01*
X131486449Y-84256083D01*
X131630612Y-84400246D01*
X131800130Y-84513514D01*
X131988488Y-84591535D01*
X132188447Y-84631309D01*
X132392325Y-84631309D01*
X132592284Y-84591535D01*
X132780642Y-84513514D01*
X132950160Y-84400246D01*
X133094323Y-84256083D01*
X133207591Y-84086565D01*
X133285612Y-83898207D01*
X133325386Y-83698248D01*
X133325386Y-83636110D01*
X142751003Y-74210494D01*
X142780001Y-74186696D01*
X142825941Y-74130718D01*
X142874974Y-74070972D01*
X142945546Y-73938942D01*
X142962616Y-73882668D01*
X142989003Y-73795681D01*
X143000000Y-73684028D01*
X143000000Y-73684019D01*
X143003676Y-73646696D01*
X143000000Y-73609373D01*
X143000000Y-72520072D01*
X143002000Y-72520072D01*
X143126482Y-72507812D01*
X143246180Y-72471502D01*
X143356494Y-72412537D01*
X143453185Y-72333185D01*
X143510000Y-72263956D01*
X143566815Y-72333185D01*
G36*
X138458507Y-72298691D02*
G01*
X129174998Y-81582201D01*
X129174998Y-81191803D01*
X137671008Y-72695795D01*
X137700001Y-72672001D01*
X137723795Y-72643008D01*
X137723799Y-72643004D01*
X137794973Y-72556277D01*
X137801606Y-72543868D01*
X137814326Y-72520072D01*
X137922000Y-72520072D01*
X138046482Y-72507812D01*
X138166180Y-72471502D01*
X138276494Y-72412537D01*
X138373185Y-72333185D01*
X138430000Y-72263956D01*
X138458507Y-72298691D01*
X138458507Y-72298691D01*
G37*
X138458507Y-72298691D02*
X129174998Y-81582201D01*
X129174998Y-81191803D01*
X137671008Y-72695795D01*
X137700001Y-72672001D01*
X137723795Y-72643008D01*
X137723799Y-72643004D01*
X137794973Y-72556277D01*
X137801606Y-72543868D01*
X137814326Y-72520072D01*
X137922000Y-72520072D01*
X138046482Y-72507812D01*
X138166180Y-72471502D01*
X138276494Y-72412537D01*
X138373185Y-72333185D01*
X138430000Y-72263956D01*
X138458507Y-72298691D01*
G36*
X135918506Y-72298691D02*
G01*
X128537241Y-79679958D01*
X128537241Y-79289560D01*
X135131003Y-72695799D01*
X135160001Y-72672001D01*
X135254974Y-72556276D01*
X135274326Y-72520072D01*
X135382000Y-72520072D01*
X135506482Y-72507812D01*
X135626180Y-72471502D01*
X135736494Y-72412537D01*
X135833185Y-72333185D01*
X135890000Y-72263956D01*
X135918506Y-72298691D01*
X135918506Y-72298691D01*
G37*
X135918506Y-72298691D02*
X128537241Y-79679958D01*
X128537241Y-79289560D01*
X135131003Y-72695799D01*
X135160001Y-72672001D01*
X135254974Y-72556276D01*
X135274326Y-72520072D01*
X135382000Y-72520072D01*
X135506482Y-72507812D01*
X135626180Y-72471502D01*
X135736494Y-72412537D01*
X135833185Y-72333185D01*
X135890000Y-72263956D01*
X135918506Y-72298691D01*
M02*
