G04 #@! TF.GenerationSoftware,KiCad,Pcbnew,5.1.2+dfsg1-1*
G04 #@! TF.CreationDate,2019-07-22T14:37:20+02:00*
G04 #@! TF.ProjectId,art_controller_3200,6172745f-636f-46e7-9472-6f6c6c65725f,A*
G04 #@! TF.SameCoordinates,Original*
G04 #@! TF.FileFunction,Other,Fab,Bot*
%FSLAX46Y46*%
G04 Gerber Fmt 4.6, Leading zero omitted, Abs format (unit mm)*
G04 Created by KiCad (PCBNEW 5.1.2+dfsg1-1) date 2019-07-22 14:37:20*
%MOMM*%
%LPD*%
G04 APERTURE LIST*
%ADD10C,0.050000*%
%ADD11C,0.100000*%
%ADD12C,0.150000*%
%ADD13C,0.080000*%
%ADD14C,0.120000*%
G04 APERTURE END LIST*
D10*
X195326000Y-63754000D02*
X94234000Y-63754000D01*
X94234000Y-136906000D02*
X94234000Y-63754000D01*
X195326000Y-136906000D02*
X94234000Y-136906000D01*
X195326000Y-63754000D02*
X195326000Y-136906000D01*
D11*
X162175000Y-106140000D02*
X156825000Y-106140000D01*
X156825000Y-106140000D02*
X156825000Y-116300000D01*
X156825000Y-116300000D02*
X163175000Y-116300000D01*
X163175000Y-116300000D02*
X163175000Y-107140000D01*
X163175000Y-107140000D02*
X162175000Y-106140000D01*
X142790000Y-109990000D02*
X142790000Y-111190000D01*
X142790000Y-111190000D02*
X144790000Y-111190000D01*
X144790000Y-111190000D02*
X144790000Y-109990000D01*
X144790000Y-109990000D02*
X142790000Y-109990000D01*
X151300000Y-109980000D02*
X149300000Y-109980000D01*
X151300000Y-111180000D02*
X151300000Y-109980000D01*
X149300000Y-111180000D02*
X151300000Y-111180000D01*
X149300000Y-109980000D02*
X149300000Y-111180000D01*
X107260000Y-124760000D02*
X108860000Y-124760000D01*
X108860000Y-124760000D02*
X108860000Y-121560000D01*
X108860000Y-121560000D02*
X107260000Y-121560000D01*
X107260000Y-121560000D02*
X107260000Y-124760000D01*
X141630000Y-88145000D02*
X141630000Y-90145000D01*
X142830000Y-88145000D02*
X141630000Y-88145000D01*
X142830000Y-90145000D02*
X142830000Y-88145000D01*
X141630000Y-90145000D02*
X142830000Y-90145000D01*
X125010000Y-100690000D02*
X126210000Y-100690000D01*
X126210000Y-100690000D02*
X126210000Y-98690000D01*
X126210000Y-98690000D02*
X125010000Y-98690000D01*
X125010000Y-98690000D02*
X125010000Y-100690000D01*
X132960000Y-88620000D02*
X134960000Y-88620000D01*
X132960000Y-87420000D02*
X132960000Y-88620000D01*
X134960000Y-87420000D02*
X132960000Y-87420000D01*
X134960000Y-88620000D02*
X134960000Y-87420000D01*
X168700000Y-83210000D02*
X170700000Y-83210000D01*
X168700000Y-82010000D02*
X168700000Y-83210000D01*
X170700000Y-82010000D02*
X168700000Y-82010000D01*
X170700000Y-83210000D02*
X170700000Y-82010000D01*
X170700000Y-91380000D02*
X170700000Y-90180000D01*
X170700000Y-90180000D02*
X168700000Y-90180000D01*
X168700000Y-90180000D02*
X168700000Y-91380000D01*
X168700000Y-91380000D02*
X170700000Y-91380000D01*
X170700000Y-109350000D02*
X168700000Y-109350000D01*
X170700000Y-110550000D02*
X170700000Y-109350000D01*
X168700000Y-110550000D02*
X170700000Y-110550000D01*
X168700000Y-109350000D02*
X168700000Y-110550000D01*
X185550000Y-102030000D02*
X185550000Y-103230000D01*
X185550000Y-103230000D02*
X187550000Y-103230000D01*
X187550000Y-103230000D02*
X187550000Y-102030000D01*
X187550000Y-102030000D02*
X185550000Y-102030000D01*
X112930000Y-124600000D02*
X112930000Y-121800000D01*
X112930000Y-121800000D02*
X111130000Y-121800000D01*
X111130000Y-121800000D02*
X111130000Y-124600000D01*
X111130000Y-124600000D02*
X112930000Y-124600000D01*
X112030000Y-123950000D02*
X112030000Y-123550000D01*
X112030000Y-123550000D02*
X112580000Y-123550000D01*
X112030000Y-123550000D02*
X111480000Y-123550000D01*
X112030000Y-123550000D02*
X112430000Y-122950000D01*
X112430000Y-122950000D02*
X111630000Y-122950000D01*
X111630000Y-122950000D02*
X112030000Y-123550000D01*
X112030000Y-122950000D02*
X112030000Y-122450000D01*
X116440000Y-124500000D02*
X116440000Y-122700000D01*
X116440000Y-122700000D02*
X115040000Y-122700000D01*
X115040000Y-122700000D02*
X115040000Y-124500000D01*
X115040000Y-124500000D02*
X116440000Y-124500000D01*
X116090000Y-123900000D02*
X115390000Y-123900000D01*
X115740000Y-123900000D02*
X115740000Y-124100000D01*
X115740000Y-123900000D02*
X116090000Y-123400000D01*
X116090000Y-123400000D02*
X115390000Y-123400000D01*
X115390000Y-123400000D02*
X115740000Y-123900000D01*
X115740000Y-123400000D02*
X115740000Y-123150000D01*
X102600000Y-94260000D02*
X102600000Y-95860000D01*
X99400000Y-94260000D02*
X102600000Y-94260000D01*
X99400000Y-95460000D02*
X99400000Y-94260000D01*
X99800000Y-95860000D02*
X99400000Y-95460000D01*
X102600000Y-95860000D02*
X99800000Y-95860000D01*
X102600000Y-99620000D02*
X99800000Y-99620000D01*
X99800000Y-99620000D02*
X99400000Y-99220000D01*
X99400000Y-99220000D02*
X99400000Y-98020000D01*
X99400000Y-98020000D02*
X102600000Y-98020000D01*
X102600000Y-98020000D02*
X102600000Y-99620000D01*
X103420000Y-121580000D02*
X103420000Y-124780000D01*
X105020000Y-121580000D02*
X103420000Y-121580000D01*
X105020000Y-124780000D02*
X105020000Y-121580000D01*
X103420000Y-124780000D02*
X105020000Y-124780000D01*
X134950000Y-85030000D02*
X132950000Y-85030000D01*
X134950000Y-86230000D02*
X134950000Y-85030000D01*
X132950000Y-86230000D02*
X134950000Y-86230000D01*
X132950000Y-85030000D02*
X132950000Y-86230000D01*
X106230000Y-129520000D02*
X106230000Y-130720000D01*
X106230000Y-130720000D02*
X108230000Y-130720000D01*
X108230000Y-130720000D02*
X108230000Y-129520000D01*
X108230000Y-129520000D02*
X106230000Y-129520000D01*
X113840000Y-80340000D02*
X115840000Y-80340000D01*
X113840000Y-79140000D02*
X113840000Y-80340000D01*
X115840000Y-79140000D02*
X113840000Y-79140000D01*
X115840000Y-80340000D02*
X115840000Y-79140000D01*
X115740000Y-81980000D02*
X115740000Y-83180000D01*
X115740000Y-83180000D02*
X117740000Y-83180000D01*
X117740000Y-83180000D02*
X117740000Y-81980000D01*
X117740000Y-81980000D02*
X115740000Y-81980000D01*
X108330000Y-94470000D02*
X108330000Y-95670000D01*
X108330000Y-95670000D02*
X110330000Y-95670000D01*
X110330000Y-95670000D02*
X110330000Y-94470000D01*
X110330000Y-94470000D02*
X108330000Y-94470000D01*
X110330000Y-98230000D02*
X108330000Y-98230000D01*
X110330000Y-99430000D02*
X110330000Y-98230000D01*
X108330000Y-99430000D02*
X110330000Y-99430000D01*
X108330000Y-98230000D02*
X108330000Y-99430000D01*
X149310000Y-112290000D02*
X149310000Y-113490000D01*
X149310000Y-113490000D02*
X151310000Y-113490000D01*
X151310000Y-113490000D02*
X151310000Y-112290000D01*
X151310000Y-112290000D02*
X149310000Y-112290000D01*
X149580000Y-98140000D02*
X151580000Y-98140000D01*
X149580000Y-96940000D02*
X149580000Y-98140000D01*
X151580000Y-96940000D02*
X149580000Y-96940000D01*
X151580000Y-98140000D02*
X151580000Y-96940000D01*
X149580000Y-85750000D02*
X151580000Y-85750000D01*
X149580000Y-84550000D02*
X149580000Y-85750000D01*
X151580000Y-84550000D02*
X149580000Y-84550000D01*
X151580000Y-85750000D02*
X151580000Y-84550000D01*
X125300000Y-90540000D02*
X125300000Y-89340000D01*
X125300000Y-89340000D02*
X123300000Y-89340000D01*
X123300000Y-89340000D02*
X123300000Y-90540000D01*
X123300000Y-90540000D02*
X125300000Y-90540000D01*
X123290000Y-87990000D02*
X125290000Y-87990000D01*
X123290000Y-86790000D02*
X123290000Y-87990000D01*
X125290000Y-86790000D02*
X123290000Y-86790000D01*
X125290000Y-87990000D02*
X125290000Y-86790000D01*
X174200000Y-107250000D02*
X174200000Y-106050000D01*
X174200000Y-106050000D02*
X172200000Y-106050000D01*
X172200000Y-106050000D02*
X172200000Y-107250000D01*
X172200000Y-107250000D02*
X174200000Y-107250000D01*
X168700000Y-100700000D02*
X170700000Y-100700000D01*
X168700000Y-99500000D02*
X168700000Y-100700000D01*
X170700000Y-99500000D02*
X168700000Y-99500000D01*
X170700000Y-100700000D02*
X170700000Y-99500000D01*
X168700000Y-95610000D02*
X170700000Y-95610000D01*
X168700000Y-94410000D02*
X168700000Y-95610000D01*
X170700000Y-94410000D02*
X168700000Y-94410000D01*
X170700000Y-95610000D02*
X170700000Y-94410000D01*
X175840000Y-125000000D02*
X175840000Y-126200000D01*
X175840000Y-126200000D02*
X177840000Y-126200000D01*
X177840000Y-126200000D02*
X177840000Y-125000000D01*
X177840000Y-125000000D02*
X175840000Y-125000000D01*
X177800000Y-122290000D02*
X175800000Y-122290000D01*
X177800000Y-123490000D02*
X177800000Y-122290000D01*
X175800000Y-123490000D02*
X177800000Y-123490000D01*
X175800000Y-122290000D02*
X175800000Y-123490000D01*
X175825000Y-127720000D02*
X175825000Y-128920000D01*
X175825000Y-128920000D02*
X177825000Y-128920000D01*
X177825000Y-128920000D02*
X177825000Y-127720000D01*
X177825000Y-127720000D02*
X175825000Y-127720000D01*
D12*
X136877107Y-92456039D02*
X135462893Y-92456039D01*
X143241068Y-98820000D02*
X136877107Y-92456039D01*
X136170000Y-105891068D02*
X143241068Y-98820000D01*
X129098932Y-98820000D02*
X136170000Y-105891068D01*
X135462893Y-92456039D02*
X129098932Y-98820000D01*
D11*
X156825000Y-102900000D02*
X157825000Y-103900000D01*
X156825000Y-93740000D02*
X156825000Y-102900000D01*
X163175000Y-93740000D02*
X156825000Y-93740000D01*
X163175000Y-103900000D02*
X163175000Y-93740000D01*
X157825000Y-103900000D02*
X163175000Y-103900000D01*
X156825000Y-90500000D02*
X157825000Y-91500000D01*
X156825000Y-81340000D02*
X156825000Y-90500000D01*
X163175000Y-81340000D02*
X156825000Y-81340000D01*
X163175000Y-91500000D02*
X163175000Y-81340000D01*
X157825000Y-91500000D02*
X163175000Y-91500000D01*
X183130000Y-103960000D02*
X172970000Y-103960000D01*
X183130000Y-93680000D02*
X183130000Y-103960000D01*
X172970000Y-93680000D02*
X183130000Y-93680000D01*
X172970000Y-103960000D02*
X172970000Y-93680000D01*
X174875000Y-102900000D02*
X175875000Y-103900000D01*
X174875000Y-93740000D02*
X174875000Y-102900000D01*
X181225000Y-93740000D02*
X174875000Y-93740000D01*
X181225000Y-103900000D02*
X181225000Y-93740000D01*
X175875000Y-103900000D02*
X181225000Y-103900000D01*
X141910000Y-109160000D02*
X141910000Y-105660000D01*
X141910000Y-105660000D02*
X147910000Y-105660000D01*
X147910000Y-109160000D02*
X147910000Y-105660000D01*
X141910000Y-109160000D02*
X147910000Y-109160000D01*
X148700000Y-101850000D02*
X148700000Y-103450000D01*
X148700000Y-103450000D02*
X151900000Y-103450000D01*
X151900000Y-103450000D02*
X151900000Y-101850000D01*
X151900000Y-101850000D02*
X148700000Y-101850000D01*
X102600000Y-103380000D02*
X99800000Y-103380000D01*
X99800000Y-103380000D02*
X99400000Y-102980000D01*
X99400000Y-102980000D02*
X99400000Y-101780000D01*
X99400000Y-101780000D02*
X102600000Y-101780000D01*
X102600000Y-101780000D02*
X102600000Y-103380000D01*
X108330000Y-101970000D02*
X108330000Y-103170000D01*
X108330000Y-103170000D02*
X110330000Y-103170000D01*
X110330000Y-103170000D02*
X110330000Y-101970000D01*
X110330000Y-101970000D02*
X108330000Y-101970000D01*
X120200000Y-75590000D02*
X120200000Y-74390000D01*
X120200000Y-74390000D02*
X118200000Y-74390000D01*
X118200000Y-74390000D02*
X118200000Y-75590000D01*
X118200000Y-75590000D02*
X120200000Y-75590000D01*
D12*
X162809523Y-116812380D02*
X163000000Y-116812380D01*
X163095238Y-116860000D01*
X163142857Y-116907619D01*
X163238095Y-117050476D01*
X163285714Y-117240952D01*
X163285714Y-117621904D01*
X163238095Y-117717142D01*
X163190476Y-117764761D01*
X163095238Y-117812380D01*
X162904761Y-117812380D01*
X162809523Y-117764761D01*
X162761904Y-117717142D01*
X162714285Y-117621904D01*
X162714285Y-117383809D01*
X162761904Y-117288571D01*
X162809523Y-117240952D01*
X162904761Y-117193333D01*
X163095238Y-117193333D01*
X163190476Y-117240952D01*
X163238095Y-117288571D01*
X163285714Y-117383809D01*
X162285714Y-117812380D02*
X162285714Y-116812380D01*
X161714285Y-117812380D01*
X161714285Y-116812380D01*
X160714285Y-117812380D02*
X161285714Y-117812380D01*
X161000000Y-117812380D02*
X161000000Y-116812380D01*
X161095238Y-116955238D01*
X161190476Y-117050476D01*
X161285714Y-117098095D01*
X160380952Y-116812380D02*
X159761904Y-116812380D01*
X160095238Y-117193333D01*
X159952380Y-117193333D01*
X159857142Y-117240952D01*
X159809523Y-117288571D01*
X159761904Y-117383809D01*
X159761904Y-117621904D01*
X159809523Y-117717142D01*
X159857142Y-117764761D01*
X159952380Y-117812380D01*
X160238095Y-117812380D01*
X160333333Y-117764761D01*
X160380952Y-117717142D01*
X159428571Y-116812380D02*
X158761904Y-116812380D01*
X159190476Y-117812380D01*
X158428571Y-117764761D02*
X158285714Y-117812380D01*
X158047619Y-117812380D01*
X157952380Y-117764761D01*
X157904761Y-117717142D01*
X157857142Y-117621904D01*
X157857142Y-117526666D01*
X157904761Y-117431428D01*
X157952380Y-117383809D01*
X158047619Y-117336190D01*
X158238095Y-117288571D01*
X158333333Y-117240952D01*
X158380952Y-117193333D01*
X158428571Y-117098095D01*
X158428571Y-117002857D01*
X158380952Y-116907619D01*
X158333333Y-116860000D01*
X158238095Y-116812380D01*
X158000000Y-116812380D01*
X157857142Y-116860000D01*
X157428571Y-117812380D02*
X157428571Y-116812380D01*
X157095238Y-117526666D01*
X156761904Y-116812380D01*
X156761904Y-117812380D01*
X160761904Y-110672380D02*
X160761904Y-111481904D01*
X160714285Y-111577142D01*
X160666666Y-111624761D01*
X160571428Y-111672380D01*
X160380952Y-111672380D01*
X160285714Y-111624761D01*
X160238095Y-111577142D01*
X160190476Y-111481904D01*
X160190476Y-110672380D01*
X159809523Y-110672380D02*
X159190476Y-110672380D01*
X159523809Y-111053333D01*
X159380952Y-111053333D01*
X159285714Y-111100952D01*
X159238095Y-111148571D01*
X159190476Y-111243809D01*
X159190476Y-111481904D01*
X159238095Y-111577142D01*
X159285714Y-111624761D01*
X159380952Y-111672380D01*
X159666666Y-111672380D01*
X159761904Y-111624761D01*
X159809523Y-111577142D01*
X145004285Y-111847619D02*
X144956666Y-111800000D01*
X144861428Y-111752380D01*
X144623333Y-111752380D01*
X144528095Y-111800000D01*
X144480476Y-111847619D01*
X144432857Y-111942857D01*
X144432857Y-112038095D01*
X144480476Y-112180952D01*
X145051904Y-112752380D01*
X144432857Y-112752380D01*
X144051904Y-111847619D02*
X144004285Y-111800000D01*
X143909047Y-111752380D01*
X143670952Y-111752380D01*
X143575714Y-111800000D01*
X143528095Y-111847619D01*
X143480476Y-111942857D01*
X143480476Y-112038095D01*
X143528095Y-112180952D01*
X144099523Y-112752380D01*
X143480476Y-112752380D01*
X143051904Y-112085714D02*
X143051904Y-113085714D01*
X143051904Y-112133333D02*
X142956666Y-112085714D01*
X142766190Y-112085714D01*
X142670952Y-112133333D01*
X142623333Y-112180952D01*
X142575714Y-112276190D01*
X142575714Y-112561904D01*
X142623333Y-112657142D01*
X142670952Y-112704761D01*
X142766190Y-112752380D01*
X142956666Y-112752380D01*
X143051904Y-112704761D01*
D13*
X143873333Y-110768571D02*
X143897142Y-110792380D01*
X143968571Y-110816190D01*
X144016190Y-110816190D01*
X144087619Y-110792380D01*
X144135238Y-110744761D01*
X144159047Y-110697142D01*
X144182857Y-110601904D01*
X144182857Y-110530476D01*
X144159047Y-110435238D01*
X144135238Y-110387619D01*
X144087619Y-110340000D01*
X144016190Y-110316190D01*
X143968571Y-110316190D01*
X143897142Y-110340000D01*
X143873333Y-110363809D01*
X143397142Y-110816190D02*
X143682857Y-110816190D01*
X143540000Y-110816190D02*
X143540000Y-110316190D01*
X143587619Y-110387619D01*
X143635238Y-110435238D01*
X143682857Y-110459047D01*
D12*
X148114285Y-110147619D02*
X148066666Y-110100000D01*
X147971428Y-110052380D01*
X147733333Y-110052380D01*
X147638095Y-110100000D01*
X147590476Y-110147619D01*
X147542857Y-110242857D01*
X147542857Y-110338095D01*
X147590476Y-110480952D01*
X148161904Y-111052380D01*
X147542857Y-111052380D01*
X147161904Y-110147619D02*
X147114285Y-110100000D01*
X147019047Y-110052380D01*
X146780952Y-110052380D01*
X146685714Y-110100000D01*
X146638095Y-110147619D01*
X146590476Y-110242857D01*
X146590476Y-110338095D01*
X146638095Y-110480952D01*
X147209523Y-111052380D01*
X146590476Y-111052380D01*
X146161904Y-110385714D02*
X146161904Y-111385714D01*
X146161904Y-110433333D02*
X146066666Y-110385714D01*
X145876190Y-110385714D01*
X145780952Y-110433333D01*
X145733333Y-110480952D01*
X145685714Y-110576190D01*
X145685714Y-110861904D01*
X145733333Y-110957142D01*
X145780952Y-111004761D01*
X145876190Y-111052380D01*
X146066666Y-111052380D01*
X146161904Y-111004761D01*
D13*
X150383333Y-110758571D02*
X150407142Y-110782380D01*
X150478571Y-110806190D01*
X150526190Y-110806190D01*
X150597619Y-110782380D01*
X150645238Y-110734761D01*
X150669047Y-110687142D01*
X150692857Y-110591904D01*
X150692857Y-110520476D01*
X150669047Y-110425238D01*
X150645238Y-110377619D01*
X150597619Y-110330000D01*
X150526190Y-110306190D01*
X150478571Y-110306190D01*
X150407142Y-110330000D01*
X150383333Y-110353809D01*
X150192857Y-110353809D02*
X150169047Y-110330000D01*
X150121428Y-110306190D01*
X150002380Y-110306190D01*
X149954761Y-110330000D01*
X149930952Y-110353809D01*
X149907142Y-110401428D01*
X149907142Y-110449047D01*
X149930952Y-110520476D01*
X150216666Y-110806190D01*
X149907142Y-110806190D01*
D12*
X106692380Y-120612380D02*
X106692380Y-120040952D01*
X106692380Y-120326666D02*
X105692380Y-120326666D01*
X105835238Y-120231428D01*
X105930476Y-120136190D01*
X105978095Y-120040952D01*
X105692380Y-121231428D02*
X105692380Y-121326666D01*
X105740000Y-121421904D01*
X105787619Y-121469523D01*
X105882857Y-121517142D01*
X106073333Y-121564761D01*
X106311428Y-121564761D01*
X106501904Y-121517142D01*
X106597142Y-121469523D01*
X106644761Y-121421904D01*
X106692380Y-121326666D01*
X106692380Y-121231428D01*
X106644761Y-121136190D01*
X106597142Y-121088571D01*
X106501904Y-121040952D01*
X106311428Y-120993333D01*
X106073333Y-120993333D01*
X105882857Y-121040952D01*
X105787619Y-121088571D01*
X105740000Y-121136190D01*
X105692380Y-121231428D01*
X106025714Y-122421904D02*
X106692380Y-122421904D01*
X106025714Y-121993333D02*
X106549523Y-121993333D01*
X106644761Y-122040952D01*
X106692380Y-122136190D01*
X106692380Y-122279047D01*
X106644761Y-122374285D01*
X106597142Y-122421904D01*
X105644761Y-123612380D02*
X106930476Y-122755238D01*
X105692380Y-124374285D02*
X105692380Y-124183809D01*
X105740000Y-124088571D01*
X105787619Y-124040952D01*
X105930476Y-123945714D01*
X106120952Y-123898095D01*
X106501904Y-123898095D01*
X106597142Y-123945714D01*
X106644761Y-123993333D01*
X106692380Y-124088571D01*
X106692380Y-124279047D01*
X106644761Y-124374285D01*
X106597142Y-124421904D01*
X106501904Y-124469523D01*
X106263809Y-124469523D01*
X106168571Y-124421904D01*
X106120952Y-124374285D01*
X106073333Y-124279047D01*
X106073333Y-124088571D01*
X106120952Y-123993333D01*
X106168571Y-123945714D01*
X106263809Y-123898095D01*
X105692380Y-124755238D02*
X106692380Y-125088571D01*
X105692380Y-125421904D01*
X105692380Y-125660000D02*
X105692380Y-126279047D01*
X106073333Y-125945714D01*
X106073333Y-126088571D01*
X106120952Y-126183809D01*
X106168571Y-126231428D01*
X106263809Y-126279047D01*
X106501904Y-126279047D01*
X106597142Y-126231428D01*
X106644761Y-126183809D01*
X106692380Y-126088571D01*
X106692380Y-125802857D01*
X106644761Y-125707619D01*
X106597142Y-125660000D01*
D14*
X108345714Y-123026666D02*
X108383809Y-122988571D01*
X108421904Y-122874285D01*
X108421904Y-122798095D01*
X108383809Y-122683809D01*
X108307619Y-122607619D01*
X108231428Y-122569523D01*
X108079047Y-122531428D01*
X107964761Y-122531428D01*
X107812380Y-122569523D01*
X107736190Y-122607619D01*
X107660000Y-122683809D01*
X107621904Y-122798095D01*
X107621904Y-122874285D01*
X107660000Y-122988571D01*
X107698095Y-123026666D01*
X107621904Y-123293333D02*
X107621904Y-123788571D01*
X107926666Y-123521904D01*
X107926666Y-123636190D01*
X107964761Y-123712380D01*
X108002857Y-123750476D01*
X108079047Y-123788571D01*
X108269523Y-123788571D01*
X108345714Y-123750476D01*
X108383809Y-123712380D01*
X108421904Y-123636190D01*
X108421904Y-123407619D01*
X108383809Y-123331428D01*
X108345714Y-123293333D01*
D12*
X141032380Y-88978333D02*
X141032380Y-88406904D01*
X141032380Y-88692619D02*
X140032380Y-88692619D01*
X140175238Y-88597380D01*
X140270476Y-88502142D01*
X140318095Y-88406904D01*
X140365714Y-89835476D02*
X141032380Y-89835476D01*
X140365714Y-89406904D02*
X140889523Y-89406904D01*
X140984761Y-89454523D01*
X141032380Y-89549761D01*
X141032380Y-89692619D01*
X140984761Y-89787857D01*
X140937142Y-89835476D01*
D13*
X142408571Y-89061666D02*
X142432380Y-89037857D01*
X142456190Y-88966428D01*
X142456190Y-88918809D01*
X142432380Y-88847380D01*
X142384761Y-88799761D01*
X142337142Y-88775952D01*
X142241904Y-88752142D01*
X142170476Y-88752142D01*
X142075238Y-88775952D01*
X142027619Y-88799761D01*
X141980000Y-88847380D01*
X141956190Y-88918809D01*
X141956190Y-88966428D01*
X141980000Y-89037857D01*
X142003809Y-89061666D01*
X142122857Y-89490238D02*
X142456190Y-89490238D01*
X141932380Y-89371190D02*
X142289523Y-89252142D01*
X142289523Y-89561666D01*
D12*
X124412380Y-98570952D02*
X124412380Y-97999523D01*
X124412380Y-98285238D02*
X123412380Y-98285238D01*
X123555238Y-98190000D01*
X123650476Y-98094761D01*
X123698095Y-97999523D01*
X123412380Y-99190000D02*
X123412380Y-99285238D01*
X123460000Y-99380476D01*
X123507619Y-99428095D01*
X123602857Y-99475714D01*
X123793333Y-99523333D01*
X124031428Y-99523333D01*
X124221904Y-99475714D01*
X124317142Y-99428095D01*
X124364761Y-99380476D01*
X124412380Y-99285238D01*
X124412380Y-99190000D01*
X124364761Y-99094761D01*
X124317142Y-99047142D01*
X124221904Y-98999523D01*
X124031428Y-98951904D01*
X123793333Y-98951904D01*
X123602857Y-98999523D01*
X123507619Y-99047142D01*
X123460000Y-99094761D01*
X123412380Y-99190000D01*
X123412380Y-100142380D02*
X123412380Y-100237619D01*
X123460000Y-100332857D01*
X123507619Y-100380476D01*
X123602857Y-100428095D01*
X123793333Y-100475714D01*
X124031428Y-100475714D01*
X124221904Y-100428095D01*
X124317142Y-100380476D01*
X124364761Y-100332857D01*
X124412380Y-100237619D01*
X124412380Y-100142380D01*
X124364761Y-100047142D01*
X124317142Y-99999523D01*
X124221904Y-99951904D01*
X124031428Y-99904285D01*
X123793333Y-99904285D01*
X123602857Y-99951904D01*
X123507619Y-99999523D01*
X123460000Y-100047142D01*
X123412380Y-100142380D01*
X123745714Y-100904285D02*
X124412380Y-100904285D01*
X123840952Y-100904285D02*
X123793333Y-100951904D01*
X123745714Y-101047142D01*
X123745714Y-101190000D01*
X123793333Y-101285238D01*
X123888571Y-101332857D01*
X124412380Y-101332857D01*
D13*
X125788571Y-99606666D02*
X125812380Y-99582857D01*
X125836190Y-99511428D01*
X125836190Y-99463809D01*
X125812380Y-99392380D01*
X125764761Y-99344761D01*
X125717142Y-99320952D01*
X125621904Y-99297142D01*
X125550476Y-99297142D01*
X125455238Y-99320952D01*
X125407619Y-99344761D01*
X125360000Y-99392380D01*
X125336190Y-99463809D01*
X125336190Y-99511428D01*
X125360000Y-99582857D01*
X125383809Y-99606666D01*
X125336190Y-100059047D02*
X125336190Y-99820952D01*
X125574285Y-99797142D01*
X125550476Y-99820952D01*
X125526666Y-99868571D01*
X125526666Y-99987619D01*
X125550476Y-100035238D01*
X125574285Y-100059047D01*
X125621904Y-100082857D01*
X125740952Y-100082857D01*
X125788571Y-100059047D01*
X125812380Y-100035238D01*
X125836190Y-99987619D01*
X125836190Y-99868571D01*
X125812380Y-99820952D01*
X125788571Y-99797142D01*
D12*
X135079047Y-90122380D02*
X135650476Y-90122380D01*
X135364761Y-90122380D02*
X135364761Y-89122380D01*
X135460000Y-89265238D01*
X135555238Y-89360476D01*
X135650476Y-89408095D01*
X134460000Y-89122380D02*
X134364761Y-89122380D01*
X134269523Y-89170000D01*
X134221904Y-89217619D01*
X134174285Y-89312857D01*
X134126666Y-89503333D01*
X134126666Y-89741428D01*
X134174285Y-89931904D01*
X134221904Y-90027142D01*
X134269523Y-90074761D01*
X134364761Y-90122380D01*
X134460000Y-90122380D01*
X134555238Y-90074761D01*
X134602857Y-90027142D01*
X134650476Y-89931904D01*
X134698095Y-89741428D01*
X134698095Y-89503333D01*
X134650476Y-89312857D01*
X134602857Y-89217619D01*
X134555238Y-89170000D01*
X134460000Y-89122380D01*
X133507619Y-89122380D02*
X133412380Y-89122380D01*
X133317142Y-89170000D01*
X133269523Y-89217619D01*
X133221904Y-89312857D01*
X133174285Y-89503333D01*
X133174285Y-89741428D01*
X133221904Y-89931904D01*
X133269523Y-90027142D01*
X133317142Y-90074761D01*
X133412380Y-90122380D01*
X133507619Y-90122380D01*
X133602857Y-90074761D01*
X133650476Y-90027142D01*
X133698095Y-89931904D01*
X133745714Y-89741428D01*
X133745714Y-89503333D01*
X133698095Y-89312857D01*
X133650476Y-89217619D01*
X133602857Y-89170000D01*
X133507619Y-89122380D01*
X132745714Y-89455714D02*
X132745714Y-90122380D01*
X132745714Y-89550952D02*
X132698095Y-89503333D01*
X132602857Y-89455714D01*
X132459999Y-89455714D01*
X132364761Y-89503333D01*
X132317142Y-89598571D01*
X132317142Y-90122380D01*
D13*
X134043333Y-88198571D02*
X134067142Y-88222380D01*
X134138571Y-88246190D01*
X134186190Y-88246190D01*
X134257619Y-88222380D01*
X134305238Y-88174761D01*
X134329047Y-88127142D01*
X134352857Y-88031904D01*
X134352857Y-87960476D01*
X134329047Y-87865238D01*
X134305238Y-87817619D01*
X134257619Y-87770000D01*
X134186190Y-87746190D01*
X134138571Y-87746190D01*
X134067142Y-87770000D01*
X134043333Y-87793809D01*
X133876666Y-87746190D02*
X133543333Y-87746190D01*
X133757619Y-88246190D01*
D12*
X170819047Y-84712380D02*
X171390476Y-84712380D01*
X171104761Y-84712380D02*
X171104761Y-83712380D01*
X171200000Y-83855238D01*
X171295238Y-83950476D01*
X171390476Y-83998095D01*
X170200000Y-83712380D02*
X170104761Y-83712380D01*
X170009523Y-83760000D01*
X169961904Y-83807619D01*
X169914285Y-83902857D01*
X169866666Y-84093333D01*
X169866666Y-84331428D01*
X169914285Y-84521904D01*
X169961904Y-84617142D01*
X170009523Y-84664761D01*
X170104761Y-84712380D01*
X170200000Y-84712380D01*
X170295238Y-84664761D01*
X170342857Y-84617142D01*
X170390476Y-84521904D01*
X170438095Y-84331428D01*
X170438095Y-84093333D01*
X170390476Y-83902857D01*
X170342857Y-83807619D01*
X170295238Y-83760000D01*
X170200000Y-83712380D01*
X169247619Y-83712380D02*
X169152380Y-83712380D01*
X169057142Y-83760000D01*
X169009523Y-83807619D01*
X168961904Y-83902857D01*
X168914285Y-84093333D01*
X168914285Y-84331428D01*
X168961904Y-84521904D01*
X169009523Y-84617142D01*
X169057142Y-84664761D01*
X169152380Y-84712380D01*
X169247619Y-84712380D01*
X169342857Y-84664761D01*
X169390476Y-84617142D01*
X169438095Y-84521904D01*
X169485714Y-84331428D01*
X169485714Y-84093333D01*
X169438095Y-83902857D01*
X169390476Y-83807619D01*
X169342857Y-83760000D01*
X169247619Y-83712380D01*
X168485714Y-84045714D02*
X168485714Y-84712380D01*
X168485714Y-84140952D02*
X168438095Y-84093333D01*
X168342857Y-84045714D01*
X168200000Y-84045714D01*
X168104761Y-84093333D01*
X168057142Y-84188571D01*
X168057142Y-84712380D01*
D13*
X169783333Y-82788571D02*
X169807142Y-82812380D01*
X169878571Y-82836190D01*
X169926190Y-82836190D01*
X169997619Y-82812380D01*
X170045238Y-82764761D01*
X170069047Y-82717142D01*
X170092857Y-82621904D01*
X170092857Y-82550476D01*
X170069047Y-82455238D01*
X170045238Y-82407619D01*
X169997619Y-82360000D01*
X169926190Y-82336190D01*
X169878571Y-82336190D01*
X169807142Y-82360000D01*
X169783333Y-82383809D01*
X169497619Y-82550476D02*
X169545238Y-82526666D01*
X169569047Y-82502857D01*
X169592857Y-82455238D01*
X169592857Y-82431428D01*
X169569047Y-82383809D01*
X169545238Y-82360000D01*
X169497619Y-82336190D01*
X169402380Y-82336190D01*
X169354761Y-82360000D01*
X169330952Y-82383809D01*
X169307142Y-82431428D01*
X169307142Y-82455238D01*
X169330952Y-82502857D01*
X169354761Y-82526666D01*
X169402380Y-82550476D01*
X169497619Y-82550476D01*
X169545238Y-82574285D01*
X169569047Y-82598095D01*
X169592857Y-82645714D01*
X169592857Y-82740952D01*
X169569047Y-82788571D01*
X169545238Y-82812380D01*
X169497619Y-82836190D01*
X169402380Y-82836190D01*
X169354761Y-82812380D01*
X169330952Y-82788571D01*
X169307142Y-82740952D01*
X169307142Y-82645714D01*
X169330952Y-82598095D01*
X169354761Y-82574285D01*
X169402380Y-82550476D01*
D12*
X170819047Y-92882380D02*
X171390476Y-92882380D01*
X171104761Y-92882380D02*
X171104761Y-91882380D01*
X171200000Y-92025238D01*
X171295238Y-92120476D01*
X171390476Y-92168095D01*
X170200000Y-91882380D02*
X170104761Y-91882380D01*
X170009523Y-91930000D01*
X169961904Y-91977619D01*
X169914285Y-92072857D01*
X169866666Y-92263333D01*
X169866666Y-92501428D01*
X169914285Y-92691904D01*
X169961904Y-92787142D01*
X170009523Y-92834761D01*
X170104761Y-92882380D01*
X170200000Y-92882380D01*
X170295238Y-92834761D01*
X170342857Y-92787142D01*
X170390476Y-92691904D01*
X170438095Y-92501428D01*
X170438095Y-92263333D01*
X170390476Y-92072857D01*
X170342857Y-91977619D01*
X170295238Y-91930000D01*
X170200000Y-91882380D01*
X169247619Y-91882380D02*
X169152380Y-91882380D01*
X169057142Y-91930000D01*
X169009523Y-91977619D01*
X168961904Y-92072857D01*
X168914285Y-92263333D01*
X168914285Y-92501428D01*
X168961904Y-92691904D01*
X169009523Y-92787142D01*
X169057142Y-92834761D01*
X169152380Y-92882380D01*
X169247619Y-92882380D01*
X169342857Y-92834761D01*
X169390476Y-92787142D01*
X169438095Y-92691904D01*
X169485714Y-92501428D01*
X169485714Y-92263333D01*
X169438095Y-92072857D01*
X169390476Y-91977619D01*
X169342857Y-91930000D01*
X169247619Y-91882380D01*
X168485714Y-92215714D02*
X168485714Y-92882380D01*
X168485714Y-92310952D02*
X168438095Y-92263333D01*
X168342857Y-92215714D01*
X168200000Y-92215714D01*
X168104761Y-92263333D01*
X168057142Y-92358571D01*
X168057142Y-92882380D01*
D13*
X169783333Y-90958571D02*
X169807142Y-90982380D01*
X169878571Y-91006190D01*
X169926190Y-91006190D01*
X169997619Y-90982380D01*
X170045238Y-90934761D01*
X170069047Y-90887142D01*
X170092857Y-90791904D01*
X170092857Y-90720476D01*
X170069047Y-90625238D01*
X170045238Y-90577619D01*
X169997619Y-90530000D01*
X169926190Y-90506190D01*
X169878571Y-90506190D01*
X169807142Y-90530000D01*
X169783333Y-90553809D01*
X169545238Y-91006190D02*
X169450000Y-91006190D01*
X169402380Y-90982380D01*
X169378571Y-90958571D01*
X169330952Y-90887142D01*
X169307142Y-90791904D01*
X169307142Y-90601428D01*
X169330952Y-90553809D01*
X169354761Y-90530000D01*
X169402380Y-90506190D01*
X169497619Y-90506190D01*
X169545238Y-90530000D01*
X169569047Y-90553809D01*
X169592857Y-90601428D01*
X169592857Y-90720476D01*
X169569047Y-90768095D01*
X169545238Y-90791904D01*
X169497619Y-90815714D01*
X169402380Y-90815714D01*
X169354761Y-90791904D01*
X169330952Y-90768095D01*
X169307142Y-90720476D01*
D12*
X170819047Y-108752380D02*
X171390476Y-108752380D01*
X171104761Y-108752380D02*
X171104761Y-107752380D01*
X171200000Y-107895238D01*
X171295238Y-107990476D01*
X171390476Y-108038095D01*
X170200000Y-107752380D02*
X170104761Y-107752380D01*
X170009523Y-107800000D01*
X169961904Y-107847619D01*
X169914285Y-107942857D01*
X169866666Y-108133333D01*
X169866666Y-108371428D01*
X169914285Y-108561904D01*
X169961904Y-108657142D01*
X170009523Y-108704761D01*
X170104761Y-108752380D01*
X170200000Y-108752380D01*
X170295238Y-108704761D01*
X170342857Y-108657142D01*
X170390476Y-108561904D01*
X170438095Y-108371428D01*
X170438095Y-108133333D01*
X170390476Y-107942857D01*
X170342857Y-107847619D01*
X170295238Y-107800000D01*
X170200000Y-107752380D01*
X169247619Y-107752380D02*
X169152380Y-107752380D01*
X169057142Y-107800000D01*
X169009523Y-107847619D01*
X168961904Y-107942857D01*
X168914285Y-108133333D01*
X168914285Y-108371428D01*
X168961904Y-108561904D01*
X169009523Y-108657142D01*
X169057142Y-108704761D01*
X169152380Y-108752380D01*
X169247619Y-108752380D01*
X169342857Y-108704761D01*
X169390476Y-108657142D01*
X169438095Y-108561904D01*
X169485714Y-108371428D01*
X169485714Y-108133333D01*
X169438095Y-107942857D01*
X169390476Y-107847619D01*
X169342857Y-107800000D01*
X169247619Y-107752380D01*
X168485714Y-108085714D02*
X168485714Y-108752380D01*
X168485714Y-108180952D02*
X168438095Y-108133333D01*
X168342857Y-108085714D01*
X168200000Y-108085714D01*
X168104761Y-108133333D01*
X168057142Y-108228571D01*
X168057142Y-108752380D01*
D13*
X170021428Y-110128571D02*
X170045238Y-110152380D01*
X170116666Y-110176190D01*
X170164285Y-110176190D01*
X170235714Y-110152380D01*
X170283333Y-110104761D01*
X170307142Y-110057142D01*
X170330952Y-109961904D01*
X170330952Y-109890476D01*
X170307142Y-109795238D01*
X170283333Y-109747619D01*
X170235714Y-109700000D01*
X170164285Y-109676190D01*
X170116666Y-109676190D01*
X170045238Y-109700000D01*
X170021428Y-109723809D01*
X169545238Y-110176190D02*
X169830952Y-110176190D01*
X169688095Y-110176190D02*
X169688095Y-109676190D01*
X169735714Y-109747619D01*
X169783333Y-109795238D01*
X169830952Y-109819047D01*
X169235714Y-109676190D02*
X169188095Y-109676190D01*
X169140476Y-109700000D01*
X169116666Y-109723809D01*
X169092857Y-109771428D01*
X169069047Y-109866666D01*
X169069047Y-109985714D01*
X169092857Y-110080952D01*
X169116666Y-110128571D01*
X169140476Y-110152380D01*
X169188095Y-110176190D01*
X169235714Y-110176190D01*
X169283333Y-110152380D01*
X169307142Y-110128571D01*
X169330952Y-110080952D01*
X169354761Y-109985714D01*
X169354761Y-109866666D01*
X169330952Y-109771428D01*
X169307142Y-109723809D01*
X169283333Y-109700000D01*
X169235714Y-109676190D01*
D12*
X187669047Y-101432380D02*
X188240476Y-101432380D01*
X187954761Y-101432380D02*
X187954761Y-100432380D01*
X188050000Y-100575238D01*
X188145238Y-100670476D01*
X188240476Y-100718095D01*
X187050000Y-100432380D02*
X186954761Y-100432380D01*
X186859523Y-100480000D01*
X186811904Y-100527619D01*
X186764285Y-100622857D01*
X186716666Y-100813333D01*
X186716666Y-101051428D01*
X186764285Y-101241904D01*
X186811904Y-101337142D01*
X186859523Y-101384761D01*
X186954761Y-101432380D01*
X187050000Y-101432380D01*
X187145238Y-101384761D01*
X187192857Y-101337142D01*
X187240476Y-101241904D01*
X187288095Y-101051428D01*
X187288095Y-100813333D01*
X187240476Y-100622857D01*
X187192857Y-100527619D01*
X187145238Y-100480000D01*
X187050000Y-100432380D01*
X186097619Y-100432380D02*
X186002380Y-100432380D01*
X185907142Y-100480000D01*
X185859523Y-100527619D01*
X185811904Y-100622857D01*
X185764285Y-100813333D01*
X185764285Y-101051428D01*
X185811904Y-101241904D01*
X185859523Y-101337142D01*
X185907142Y-101384761D01*
X186002380Y-101432380D01*
X186097619Y-101432380D01*
X186192857Y-101384761D01*
X186240476Y-101337142D01*
X186288095Y-101241904D01*
X186335714Y-101051428D01*
X186335714Y-100813333D01*
X186288095Y-100622857D01*
X186240476Y-100527619D01*
X186192857Y-100480000D01*
X186097619Y-100432380D01*
X185335714Y-100765714D02*
X185335714Y-101432380D01*
X185335714Y-100860952D02*
X185288095Y-100813333D01*
X185192857Y-100765714D01*
X185050000Y-100765714D01*
X184954761Y-100813333D01*
X184907142Y-100908571D01*
X184907142Y-101432380D01*
D13*
X186871428Y-102808571D02*
X186895238Y-102832380D01*
X186966666Y-102856190D01*
X187014285Y-102856190D01*
X187085714Y-102832380D01*
X187133333Y-102784761D01*
X187157142Y-102737142D01*
X187180952Y-102641904D01*
X187180952Y-102570476D01*
X187157142Y-102475238D01*
X187133333Y-102427619D01*
X187085714Y-102380000D01*
X187014285Y-102356190D01*
X186966666Y-102356190D01*
X186895238Y-102380000D01*
X186871428Y-102403809D01*
X186395238Y-102856190D02*
X186680952Y-102856190D01*
X186538095Y-102856190D02*
X186538095Y-102356190D01*
X186585714Y-102427619D01*
X186633333Y-102475238D01*
X186680952Y-102499047D01*
X185919047Y-102856190D02*
X186204761Y-102856190D01*
X186061904Y-102856190D02*
X186061904Y-102356190D01*
X186109523Y-102427619D01*
X186157142Y-102475238D01*
X186204761Y-102499047D01*
D12*
X110334761Y-121033333D02*
X110382380Y-121176190D01*
X110382380Y-121414285D01*
X110334761Y-121509523D01*
X110287142Y-121557142D01*
X110191904Y-121604761D01*
X110096666Y-121604761D01*
X110001428Y-121557142D01*
X109953809Y-121509523D01*
X109906190Y-121414285D01*
X109858571Y-121223809D01*
X109810952Y-121128571D01*
X109763333Y-121080952D01*
X109668095Y-121033333D01*
X109572857Y-121033333D01*
X109477619Y-121080952D01*
X109430000Y-121128571D01*
X109382380Y-121223809D01*
X109382380Y-121461904D01*
X109430000Y-121604761D01*
X110382380Y-122557142D02*
X110382380Y-121985714D01*
X110382380Y-122271428D02*
X109382380Y-122271428D01*
X109525238Y-122176190D01*
X109620476Y-122080952D01*
X109668095Y-121985714D01*
X110382380Y-122985714D02*
X109382380Y-122985714D01*
X110096666Y-123319047D01*
X109382380Y-123652380D01*
X110382380Y-123652380D01*
X109858571Y-124461904D02*
X109858571Y-124128571D01*
X110382380Y-124128571D02*
X109382380Y-124128571D01*
X109382380Y-124604761D01*
X110382380Y-125461904D02*
X110382380Y-124985714D01*
X109382380Y-124985714D01*
X114387380Y-122588904D02*
X113387380Y-122588904D01*
X113387380Y-122827000D01*
X113435000Y-122969857D01*
X113530238Y-123065095D01*
X113625476Y-123112714D01*
X113815952Y-123160333D01*
X113958809Y-123160333D01*
X114149285Y-123112714D01*
X114244523Y-123065095D01*
X114339761Y-122969857D01*
X114387380Y-122827000D01*
X114387380Y-122588904D01*
X114387380Y-124112714D02*
X114387380Y-123541285D01*
X114387380Y-123827000D02*
X113387380Y-123827000D01*
X113530238Y-123731761D01*
X113625476Y-123636523D01*
X113673095Y-123541285D01*
X113292380Y-122595238D02*
X113292380Y-122119047D01*
X113768571Y-122071428D01*
X113720952Y-122119047D01*
X113673333Y-122214285D01*
X113673333Y-122452380D01*
X113720952Y-122547619D01*
X113768571Y-122595238D01*
X113863809Y-122642857D01*
X114101904Y-122642857D01*
X114197142Y-122595238D01*
X114244761Y-122547619D01*
X114292380Y-122452380D01*
X114292380Y-122214285D01*
X114244761Y-122119047D01*
X114197142Y-122071428D01*
X114197142Y-123071428D02*
X114244761Y-123119047D01*
X114292380Y-123071428D01*
X114244761Y-123023809D01*
X114197142Y-123071428D01*
X114292380Y-123071428D01*
X113292380Y-123976190D02*
X113292380Y-123785714D01*
X113340000Y-123690476D01*
X113387619Y-123642857D01*
X113530476Y-123547619D01*
X113720952Y-123500000D01*
X114101904Y-123500000D01*
X114197142Y-123547619D01*
X114244761Y-123595238D01*
X114292380Y-123690476D01*
X114292380Y-123880952D01*
X114244761Y-123976190D01*
X114197142Y-124023809D01*
X114101904Y-124071428D01*
X113863809Y-124071428D01*
X113768571Y-124023809D01*
X113720952Y-123976190D01*
X113673333Y-123880952D01*
X113673333Y-123690476D01*
X113720952Y-123595238D01*
X113768571Y-123547619D01*
X113863809Y-123500000D01*
X113292380Y-124357142D02*
X114292380Y-124690476D01*
X113292380Y-125023809D01*
X118042380Y-122861904D02*
X117042380Y-122861904D01*
X117042380Y-123100000D01*
X117090000Y-123242857D01*
X117185238Y-123338095D01*
X117280476Y-123385714D01*
X117470952Y-123433333D01*
X117613809Y-123433333D01*
X117804285Y-123385714D01*
X117899523Y-123338095D01*
X117994761Y-123242857D01*
X118042380Y-123100000D01*
X118042380Y-122861904D01*
X117137619Y-123814285D02*
X117090000Y-123861904D01*
X117042380Y-123957142D01*
X117042380Y-124195238D01*
X117090000Y-124290476D01*
X117137619Y-124338095D01*
X117232857Y-124385714D01*
X117328095Y-124385714D01*
X117470952Y-124338095D01*
X118042380Y-123766666D01*
X118042380Y-124385714D01*
X101642857Y-93367380D02*
X101976190Y-92891190D01*
X102214285Y-93367380D02*
X102214285Y-92367380D01*
X101833333Y-92367380D01*
X101738095Y-92415000D01*
X101690476Y-92462619D01*
X101642857Y-92557857D01*
X101642857Y-92700714D01*
X101690476Y-92795952D01*
X101738095Y-92843571D01*
X101833333Y-92891190D01*
X102214285Y-92891190D01*
X101214285Y-92843571D02*
X100880952Y-92843571D01*
X100738095Y-93367380D02*
X101214285Y-93367380D01*
X101214285Y-92367380D01*
X100738095Y-92367380D01*
X100309523Y-93367380D02*
X100309523Y-92367380D01*
X100071428Y-92367380D01*
X99928571Y-92415000D01*
X99833333Y-92510238D01*
X99785714Y-92605476D01*
X99738095Y-92795952D01*
X99738095Y-92938809D01*
X99785714Y-93129285D01*
X99833333Y-93224523D01*
X99928571Y-93319761D01*
X100071428Y-93367380D01*
X100309523Y-93367380D01*
D14*
X101590476Y-95421904D02*
X101590476Y-94621904D01*
X101400000Y-94621904D01*
X101285714Y-94660000D01*
X101209523Y-94736190D01*
X101171428Y-94812380D01*
X101133333Y-94964761D01*
X101133333Y-95079047D01*
X101171428Y-95231428D01*
X101209523Y-95307619D01*
X101285714Y-95383809D01*
X101400000Y-95421904D01*
X101590476Y-95421904D01*
X100866666Y-94621904D02*
X100371428Y-94621904D01*
X100638095Y-94926666D01*
X100523809Y-94926666D01*
X100447619Y-94964761D01*
X100409523Y-95002857D01*
X100371428Y-95079047D01*
X100371428Y-95269523D01*
X100409523Y-95345714D01*
X100447619Y-95383809D01*
X100523809Y-95421904D01*
X100752380Y-95421904D01*
X100828571Y-95383809D01*
X100866666Y-95345714D01*
D12*
X102666666Y-96175000D02*
X102761904Y-96127380D01*
X102904761Y-96127380D01*
X103047619Y-96175000D01*
X103142857Y-96270238D01*
X103190476Y-96365476D01*
X103238095Y-96555952D01*
X103238095Y-96698809D01*
X103190476Y-96889285D01*
X103142857Y-96984523D01*
X103047619Y-97079761D01*
X102904761Y-97127380D01*
X102809523Y-97127380D01*
X102666666Y-97079761D01*
X102619047Y-97032142D01*
X102619047Y-96698809D01*
X102809523Y-96698809D01*
X101619047Y-97127380D02*
X101952380Y-96651190D01*
X102190476Y-97127380D02*
X102190476Y-96127380D01*
X101809523Y-96127380D01*
X101714285Y-96175000D01*
X101666666Y-96222619D01*
X101619047Y-96317857D01*
X101619047Y-96460714D01*
X101666666Y-96555952D01*
X101714285Y-96603571D01*
X101809523Y-96651190D01*
X102190476Y-96651190D01*
X101190476Y-96603571D02*
X100857142Y-96603571D01*
X100714285Y-97127380D02*
X101190476Y-97127380D01*
X101190476Y-96127380D01*
X100714285Y-96127380D01*
X100285714Y-96603571D02*
X99952380Y-96603571D01*
X99809523Y-97127380D02*
X100285714Y-97127380D01*
X100285714Y-96127380D01*
X99809523Y-96127380D01*
X99380952Y-97127380D02*
X99380952Y-96127380D01*
X98809523Y-97127380D01*
X98809523Y-96127380D01*
D14*
X101590476Y-99181904D02*
X101590476Y-98381904D01*
X101400000Y-98381904D01*
X101285714Y-98420000D01*
X101209523Y-98496190D01*
X101171428Y-98572380D01*
X101133333Y-98724761D01*
X101133333Y-98839047D01*
X101171428Y-98991428D01*
X101209523Y-99067619D01*
X101285714Y-99143809D01*
X101400000Y-99181904D01*
X101590476Y-99181904D01*
X100447619Y-98648571D02*
X100447619Y-99181904D01*
X100638095Y-98343809D02*
X100828571Y-98915238D01*
X100333333Y-98915238D01*
D12*
X101852380Y-121799047D02*
X101852380Y-121322857D01*
X102328571Y-121275238D01*
X102280952Y-121322857D01*
X102233333Y-121418095D01*
X102233333Y-121656190D01*
X102280952Y-121751428D01*
X102328571Y-121799047D01*
X102423809Y-121846666D01*
X102661904Y-121846666D01*
X102757142Y-121799047D01*
X102804761Y-121751428D01*
X102852380Y-121656190D01*
X102852380Y-121418095D01*
X102804761Y-121322857D01*
X102757142Y-121275238D01*
X101852380Y-122465714D02*
X101852380Y-122560952D01*
X101900000Y-122656190D01*
X101947619Y-122703809D01*
X102042857Y-122751428D01*
X102233333Y-122799047D01*
X102471428Y-122799047D01*
X102661904Y-122751428D01*
X102757142Y-122703809D01*
X102804761Y-122656190D01*
X102852380Y-122560952D01*
X102852380Y-122465714D01*
X102804761Y-122370476D01*
X102757142Y-122322857D01*
X102661904Y-122275238D01*
X102471428Y-122227619D01*
X102233333Y-122227619D01*
X102042857Y-122275238D01*
X101947619Y-122322857D01*
X101900000Y-122370476D01*
X101852380Y-122465714D01*
X101852380Y-123418095D02*
X101852380Y-123513333D01*
X101900000Y-123608571D01*
X101947619Y-123656190D01*
X102042857Y-123703809D01*
X102233333Y-123751428D01*
X102471428Y-123751428D01*
X102661904Y-123703809D01*
X102757142Y-123656190D01*
X102804761Y-123608571D01*
X102852380Y-123513333D01*
X102852380Y-123418095D01*
X102804761Y-123322857D01*
X102757142Y-123275238D01*
X102661904Y-123227619D01*
X102471428Y-123180000D01*
X102233333Y-123180000D01*
X102042857Y-123227619D01*
X101947619Y-123275238D01*
X101900000Y-123322857D01*
X101852380Y-123418095D01*
X102852380Y-124180000D02*
X102185714Y-124180000D01*
X102280952Y-124180000D02*
X102233333Y-124227619D01*
X102185714Y-124322857D01*
X102185714Y-124465714D01*
X102233333Y-124560952D01*
X102328571Y-124608571D01*
X102852380Y-124608571D01*
X102328571Y-124608571D02*
X102233333Y-124656190D01*
X102185714Y-124751428D01*
X102185714Y-124894285D01*
X102233333Y-124989523D01*
X102328571Y-125037142D01*
X102852380Y-125037142D01*
D14*
X104162857Y-122913333D02*
X104162857Y-122646666D01*
X104581904Y-122646666D02*
X103781904Y-122646666D01*
X103781904Y-123027619D01*
X104581904Y-123751428D02*
X104581904Y-123294285D01*
X104581904Y-123522857D02*
X103781904Y-123522857D01*
X103896190Y-123446666D01*
X103972380Y-123370476D01*
X104010476Y-123294285D01*
D12*
X134592857Y-84432380D02*
X135164285Y-84432380D01*
X134878571Y-84432380D02*
X134878571Y-83432380D01*
X134973809Y-83575238D01*
X135069047Y-83670476D01*
X135164285Y-83718095D01*
X133973809Y-83432380D02*
X133878571Y-83432380D01*
X133783333Y-83480000D01*
X133735714Y-83527619D01*
X133688095Y-83622857D01*
X133640476Y-83813333D01*
X133640476Y-84051428D01*
X133688095Y-84241904D01*
X133735714Y-84337142D01*
X133783333Y-84384761D01*
X133878571Y-84432380D01*
X133973809Y-84432380D01*
X134069047Y-84384761D01*
X134116666Y-84337142D01*
X134164285Y-84241904D01*
X134211904Y-84051428D01*
X134211904Y-83813333D01*
X134164285Y-83622857D01*
X134116666Y-83527619D01*
X134069047Y-83480000D01*
X133973809Y-83432380D01*
X132783333Y-83765714D02*
X132783333Y-84432380D01*
X133211904Y-83765714D02*
X133211904Y-84289523D01*
X133164285Y-84384761D01*
X133069047Y-84432380D01*
X132926190Y-84432380D01*
X132830952Y-84384761D01*
X132783333Y-84337142D01*
D13*
X134033333Y-85856190D02*
X134271428Y-85856190D01*
X134271428Y-85356190D01*
X133604761Y-85856190D02*
X133890476Y-85856190D01*
X133747619Y-85856190D02*
X133747619Y-85356190D01*
X133795238Y-85427619D01*
X133842857Y-85475238D01*
X133890476Y-85499047D01*
D12*
X107825238Y-128922380D02*
X108396666Y-128922380D01*
X108110952Y-128922380D02*
X108110952Y-127922380D01*
X108206190Y-128065238D01*
X108301428Y-128160476D01*
X108396666Y-128208095D01*
X107206190Y-127922380D02*
X107110952Y-127922380D01*
X107015714Y-127970000D01*
X106968095Y-128017619D01*
X106920476Y-128112857D01*
X106872857Y-128303333D01*
X106872857Y-128541428D01*
X106920476Y-128731904D01*
X106968095Y-128827142D01*
X107015714Y-128874761D01*
X107110952Y-128922380D01*
X107206190Y-128922380D01*
X107301428Y-128874761D01*
X107349047Y-128827142D01*
X107396666Y-128731904D01*
X107444285Y-128541428D01*
X107444285Y-128303333D01*
X107396666Y-128112857D01*
X107349047Y-128017619D01*
X107301428Y-127970000D01*
X107206190Y-127922380D01*
X106444285Y-128922380D02*
X106444285Y-127922380D01*
X106349047Y-128541428D02*
X106063333Y-128922380D01*
X106063333Y-128255714D02*
X106444285Y-128636666D01*
D13*
X107313333Y-130346190D02*
X107480000Y-130108095D01*
X107599047Y-130346190D02*
X107599047Y-129846190D01*
X107408571Y-129846190D01*
X107360952Y-129870000D01*
X107337142Y-129893809D01*
X107313333Y-129941428D01*
X107313333Y-130012857D01*
X107337142Y-130060476D01*
X107360952Y-130084285D01*
X107408571Y-130108095D01*
X107599047Y-130108095D01*
X106837142Y-130346190D02*
X107122857Y-130346190D01*
X106980000Y-130346190D02*
X106980000Y-129846190D01*
X107027619Y-129917619D01*
X107075238Y-129965238D01*
X107122857Y-129989047D01*
D12*
X118861904Y-79247619D02*
X118814285Y-79200000D01*
X118719047Y-79152380D01*
X118480952Y-79152380D01*
X118385714Y-79200000D01*
X118338095Y-79247619D01*
X118290476Y-79342857D01*
X118290476Y-79438095D01*
X118338095Y-79580952D01*
X118909523Y-80152380D01*
X118290476Y-80152380D01*
X117909523Y-79247619D02*
X117861904Y-79200000D01*
X117766666Y-79152380D01*
X117528571Y-79152380D01*
X117433333Y-79200000D01*
X117385714Y-79247619D01*
X117338095Y-79342857D01*
X117338095Y-79438095D01*
X117385714Y-79580952D01*
X117957142Y-80152380D01*
X117338095Y-80152380D01*
D13*
X114923333Y-79966190D02*
X115090000Y-79728095D01*
X115209047Y-79966190D02*
X115209047Y-79466190D01*
X115018571Y-79466190D01*
X114970952Y-79490000D01*
X114947142Y-79513809D01*
X114923333Y-79561428D01*
X114923333Y-79632857D01*
X114947142Y-79680476D01*
X114970952Y-79704285D01*
X115018571Y-79728095D01*
X115209047Y-79728095D01*
X114732857Y-79513809D02*
X114709047Y-79490000D01*
X114661428Y-79466190D01*
X114542380Y-79466190D01*
X114494761Y-79490000D01*
X114470952Y-79513809D01*
X114447142Y-79561428D01*
X114447142Y-79609047D01*
X114470952Y-79680476D01*
X114756666Y-79966190D01*
X114447142Y-79966190D01*
D12*
X120761904Y-82147619D02*
X120714285Y-82100000D01*
X120619047Y-82052380D01*
X120380952Y-82052380D01*
X120285714Y-82100000D01*
X120238095Y-82147619D01*
X120190476Y-82242857D01*
X120190476Y-82338095D01*
X120238095Y-82480952D01*
X120809523Y-83052380D01*
X120190476Y-83052380D01*
X119809523Y-82147619D02*
X119761904Y-82100000D01*
X119666666Y-82052380D01*
X119428571Y-82052380D01*
X119333333Y-82100000D01*
X119285714Y-82147619D01*
X119238095Y-82242857D01*
X119238095Y-82338095D01*
X119285714Y-82480952D01*
X119857142Y-83052380D01*
X119238095Y-83052380D01*
D13*
X116823333Y-82806190D02*
X116990000Y-82568095D01*
X117109047Y-82806190D02*
X117109047Y-82306190D01*
X116918571Y-82306190D01*
X116870952Y-82330000D01*
X116847142Y-82353809D01*
X116823333Y-82401428D01*
X116823333Y-82472857D01*
X116847142Y-82520476D01*
X116870952Y-82544285D01*
X116918571Y-82568095D01*
X117109047Y-82568095D01*
X116656666Y-82306190D02*
X116347142Y-82306190D01*
X116513809Y-82496666D01*
X116442380Y-82496666D01*
X116394761Y-82520476D01*
X116370952Y-82544285D01*
X116347142Y-82591904D01*
X116347142Y-82710952D01*
X116370952Y-82758571D01*
X116394761Y-82782380D01*
X116442380Y-82806190D01*
X116585238Y-82806190D01*
X116632857Y-82782380D01*
X116656666Y-82758571D01*
D12*
X110496666Y-92967619D02*
X110449047Y-92920000D01*
X110353809Y-92872380D01*
X110115714Y-92872380D01*
X110020476Y-92920000D01*
X109972857Y-92967619D01*
X109925238Y-93062857D01*
X109925238Y-93158095D01*
X109972857Y-93300952D01*
X110544285Y-93872380D01*
X109925238Y-93872380D01*
X109496666Y-93872380D02*
X109496666Y-92872380D01*
X109401428Y-93491428D02*
X109115714Y-93872380D01*
X109115714Y-93205714D02*
X109496666Y-93586666D01*
X108734761Y-92967619D02*
X108687142Y-92920000D01*
X108591904Y-92872380D01*
X108353809Y-92872380D01*
X108258571Y-92920000D01*
X108210952Y-92967619D01*
X108163333Y-93062857D01*
X108163333Y-93158095D01*
X108210952Y-93300952D01*
X108782380Y-93872380D01*
X108163333Y-93872380D01*
D13*
X109413333Y-95296190D02*
X109580000Y-95058095D01*
X109699047Y-95296190D02*
X109699047Y-94796190D01*
X109508571Y-94796190D01*
X109460952Y-94820000D01*
X109437142Y-94843809D01*
X109413333Y-94891428D01*
X109413333Y-94962857D01*
X109437142Y-95010476D01*
X109460952Y-95034285D01*
X109508571Y-95058095D01*
X109699047Y-95058095D01*
X108984761Y-94962857D02*
X108984761Y-95296190D01*
X109103809Y-94772380D02*
X109222857Y-95129523D01*
X108913333Y-95129523D01*
D12*
X109996666Y-97632380D02*
X110568095Y-97632380D01*
X110282380Y-97632380D02*
X110282380Y-96632380D01*
X110377619Y-96775238D01*
X110472857Y-96870476D01*
X110568095Y-96918095D01*
X109091904Y-96632380D02*
X109568095Y-96632380D01*
X109615714Y-97108571D01*
X109568095Y-97060952D01*
X109472857Y-97013333D01*
X109234761Y-97013333D01*
X109139523Y-97060952D01*
X109091904Y-97108571D01*
X109044285Y-97203809D01*
X109044285Y-97441904D01*
X109091904Y-97537142D01*
X109139523Y-97584761D01*
X109234761Y-97632380D01*
X109472857Y-97632380D01*
X109568095Y-97584761D01*
X109615714Y-97537142D01*
X108425238Y-96632380D02*
X108330000Y-96632380D01*
X108234761Y-96680000D01*
X108187142Y-96727619D01*
X108139523Y-96822857D01*
X108091904Y-97013333D01*
X108091904Y-97251428D01*
X108139523Y-97441904D01*
X108187142Y-97537142D01*
X108234761Y-97584761D01*
X108330000Y-97632380D01*
X108425238Y-97632380D01*
X108520476Y-97584761D01*
X108568095Y-97537142D01*
X108615714Y-97441904D01*
X108663333Y-97251428D01*
X108663333Y-97013333D01*
X108615714Y-96822857D01*
X108568095Y-96727619D01*
X108520476Y-96680000D01*
X108425238Y-96632380D01*
D13*
X109413333Y-99056190D02*
X109580000Y-98818095D01*
X109699047Y-99056190D02*
X109699047Y-98556190D01*
X109508571Y-98556190D01*
X109460952Y-98580000D01*
X109437142Y-98603809D01*
X109413333Y-98651428D01*
X109413333Y-98722857D01*
X109437142Y-98770476D01*
X109460952Y-98794285D01*
X109508571Y-98818095D01*
X109699047Y-98818095D01*
X108960952Y-98556190D02*
X109199047Y-98556190D01*
X109222857Y-98794285D01*
X109199047Y-98770476D01*
X109151428Y-98746666D01*
X109032380Y-98746666D01*
X108984761Y-98770476D01*
X108960952Y-98794285D01*
X108937142Y-98841904D01*
X108937142Y-98960952D01*
X108960952Y-99008571D01*
X108984761Y-99032380D01*
X109032380Y-99056190D01*
X109151428Y-99056190D01*
X109199047Y-99032380D01*
X109222857Y-99008571D01*
D12*
X147590476Y-112685714D02*
X147590476Y-113352380D01*
X147828571Y-112304761D02*
X148066666Y-113019047D01*
X147447619Y-113019047D01*
X147066666Y-113352380D02*
X147066666Y-112352380D01*
X146971428Y-112971428D02*
X146685714Y-113352380D01*
X146685714Y-112685714D02*
X147066666Y-113066666D01*
X146352380Y-112352380D02*
X145685714Y-112352380D01*
X146114285Y-113352380D01*
D13*
X150393333Y-113116190D02*
X150560000Y-112878095D01*
X150679047Y-113116190D02*
X150679047Y-112616190D01*
X150488571Y-112616190D01*
X150440952Y-112640000D01*
X150417142Y-112663809D01*
X150393333Y-112711428D01*
X150393333Y-112782857D01*
X150417142Y-112830476D01*
X150440952Y-112854285D01*
X150488571Y-112878095D01*
X150679047Y-112878095D01*
X149964761Y-112616190D02*
X150060000Y-112616190D01*
X150107619Y-112640000D01*
X150131428Y-112663809D01*
X150179047Y-112735238D01*
X150202857Y-112830476D01*
X150202857Y-113020952D01*
X150179047Y-113068571D01*
X150155238Y-113092380D01*
X150107619Y-113116190D01*
X150012380Y-113116190D01*
X149964761Y-113092380D01*
X149940952Y-113068571D01*
X149917142Y-113020952D01*
X149917142Y-112901904D01*
X149940952Y-112854285D01*
X149964761Y-112830476D01*
X150012380Y-112806666D01*
X150107619Y-112806666D01*
X150155238Y-112830476D01*
X150179047Y-112854285D01*
X150202857Y-112901904D01*
D12*
X151341904Y-98975714D02*
X151341904Y-99642380D01*
X151580000Y-98594761D02*
X151818095Y-99309047D01*
X151199047Y-99309047D01*
X150913333Y-98642380D02*
X150246666Y-98642380D01*
X150675238Y-99642380D01*
X149675238Y-98642380D02*
X149580000Y-98642380D01*
X149484761Y-98690000D01*
X149437142Y-98737619D01*
X149389523Y-98832857D01*
X149341904Y-99023333D01*
X149341904Y-99261428D01*
X149389523Y-99451904D01*
X149437142Y-99547142D01*
X149484761Y-99594761D01*
X149580000Y-99642380D01*
X149675238Y-99642380D01*
X149770476Y-99594761D01*
X149818095Y-99547142D01*
X149865714Y-99451904D01*
X149913333Y-99261428D01*
X149913333Y-99023333D01*
X149865714Y-98832857D01*
X149818095Y-98737619D01*
X149770476Y-98690000D01*
X149675238Y-98642380D01*
D13*
X150663333Y-97766190D02*
X150830000Y-97528095D01*
X150949047Y-97766190D02*
X150949047Y-97266190D01*
X150758571Y-97266190D01*
X150710952Y-97290000D01*
X150687142Y-97313809D01*
X150663333Y-97361428D01*
X150663333Y-97432857D01*
X150687142Y-97480476D01*
X150710952Y-97504285D01*
X150758571Y-97528095D01*
X150949047Y-97528095D01*
X150496666Y-97266190D02*
X150163333Y-97266190D01*
X150377619Y-97766190D01*
D12*
X151341904Y-86585714D02*
X151341904Y-87252380D01*
X151580000Y-86204761D02*
X151818095Y-86919047D01*
X151199047Y-86919047D01*
X150913333Y-86252380D02*
X150246666Y-86252380D01*
X150675238Y-87252380D01*
X149675238Y-86252380D02*
X149580000Y-86252380D01*
X149484761Y-86300000D01*
X149437142Y-86347619D01*
X149389523Y-86442857D01*
X149341904Y-86633333D01*
X149341904Y-86871428D01*
X149389523Y-87061904D01*
X149437142Y-87157142D01*
X149484761Y-87204761D01*
X149580000Y-87252380D01*
X149675238Y-87252380D01*
X149770476Y-87204761D01*
X149818095Y-87157142D01*
X149865714Y-87061904D01*
X149913333Y-86871428D01*
X149913333Y-86633333D01*
X149865714Y-86442857D01*
X149818095Y-86347619D01*
X149770476Y-86300000D01*
X149675238Y-86252380D01*
D13*
X150663333Y-85376190D02*
X150830000Y-85138095D01*
X150949047Y-85376190D02*
X150949047Y-84876190D01*
X150758571Y-84876190D01*
X150710952Y-84900000D01*
X150687142Y-84923809D01*
X150663333Y-84971428D01*
X150663333Y-85042857D01*
X150687142Y-85090476D01*
X150710952Y-85114285D01*
X150758571Y-85138095D01*
X150949047Y-85138095D01*
X150377619Y-85090476D02*
X150425238Y-85066666D01*
X150449047Y-85042857D01*
X150472857Y-84995238D01*
X150472857Y-84971428D01*
X150449047Y-84923809D01*
X150425238Y-84900000D01*
X150377619Y-84876190D01*
X150282380Y-84876190D01*
X150234761Y-84900000D01*
X150210952Y-84923809D01*
X150187142Y-84971428D01*
X150187142Y-84995238D01*
X150210952Y-85042857D01*
X150234761Y-85066666D01*
X150282380Y-85090476D01*
X150377619Y-85090476D01*
X150425238Y-85114285D01*
X150449047Y-85138095D01*
X150472857Y-85185714D01*
X150472857Y-85280952D01*
X150449047Y-85328571D01*
X150425238Y-85352380D01*
X150377619Y-85376190D01*
X150282380Y-85376190D01*
X150234761Y-85352380D01*
X150210952Y-85328571D01*
X150187142Y-85280952D01*
X150187142Y-85185714D01*
X150210952Y-85138095D01*
X150234761Y-85114285D01*
X150282380Y-85090476D01*
D12*
X127495238Y-90252380D02*
X128066666Y-90252380D01*
X127780952Y-90252380D02*
X127780952Y-89252380D01*
X127876190Y-89395238D01*
X127971428Y-89490476D01*
X128066666Y-89538095D01*
X126876190Y-89252380D02*
X126780952Y-89252380D01*
X126685714Y-89300000D01*
X126638095Y-89347619D01*
X126590476Y-89442857D01*
X126542857Y-89633333D01*
X126542857Y-89871428D01*
X126590476Y-90061904D01*
X126638095Y-90157142D01*
X126685714Y-90204761D01*
X126780952Y-90252380D01*
X126876190Y-90252380D01*
X126971428Y-90204761D01*
X127019047Y-90157142D01*
X127066666Y-90061904D01*
X127114285Y-89871428D01*
X127114285Y-89633333D01*
X127066666Y-89442857D01*
X127019047Y-89347619D01*
X126971428Y-89300000D01*
X126876190Y-89252380D01*
X126114285Y-90252380D02*
X126114285Y-89252380D01*
X126019047Y-89871428D02*
X125733333Y-90252380D01*
X125733333Y-89585714D02*
X126114285Y-89966666D01*
D13*
X124383333Y-90166190D02*
X124550000Y-89928095D01*
X124669047Y-90166190D02*
X124669047Y-89666190D01*
X124478571Y-89666190D01*
X124430952Y-89690000D01*
X124407142Y-89713809D01*
X124383333Y-89761428D01*
X124383333Y-89832857D01*
X124407142Y-89880476D01*
X124430952Y-89904285D01*
X124478571Y-89928095D01*
X124669047Y-89928095D01*
X124145238Y-90166190D02*
X124050000Y-90166190D01*
X124002380Y-90142380D01*
X123978571Y-90118571D01*
X123930952Y-90047142D01*
X123907142Y-89951904D01*
X123907142Y-89761428D01*
X123930952Y-89713809D01*
X123954761Y-89690000D01*
X124002380Y-89666190D01*
X124097619Y-89666190D01*
X124145238Y-89690000D01*
X124169047Y-89713809D01*
X124192857Y-89761428D01*
X124192857Y-89880476D01*
X124169047Y-89928095D01*
X124145238Y-89951904D01*
X124097619Y-89975714D01*
X124002380Y-89975714D01*
X123954761Y-89951904D01*
X123930952Y-89928095D01*
X123907142Y-89880476D01*
D12*
X127495238Y-87852380D02*
X128066666Y-87852380D01*
X127780952Y-87852380D02*
X127780952Y-86852380D01*
X127876190Y-86995238D01*
X127971428Y-87090476D01*
X128066666Y-87138095D01*
X126876190Y-86852380D02*
X126780952Y-86852380D01*
X126685714Y-86900000D01*
X126638095Y-86947619D01*
X126590476Y-87042857D01*
X126542857Y-87233333D01*
X126542857Y-87471428D01*
X126590476Y-87661904D01*
X126638095Y-87757142D01*
X126685714Y-87804761D01*
X126780952Y-87852380D01*
X126876190Y-87852380D01*
X126971428Y-87804761D01*
X127019047Y-87757142D01*
X127066666Y-87661904D01*
X127114285Y-87471428D01*
X127114285Y-87233333D01*
X127066666Y-87042857D01*
X127019047Y-86947619D01*
X126971428Y-86900000D01*
X126876190Y-86852380D01*
X126114285Y-87852380D02*
X126114285Y-86852380D01*
X126019047Y-87471428D02*
X125733333Y-87852380D01*
X125733333Y-87185714D02*
X126114285Y-87566666D01*
D13*
X124611428Y-87616190D02*
X124778095Y-87378095D01*
X124897142Y-87616190D02*
X124897142Y-87116190D01*
X124706666Y-87116190D01*
X124659047Y-87140000D01*
X124635238Y-87163809D01*
X124611428Y-87211428D01*
X124611428Y-87282857D01*
X124635238Y-87330476D01*
X124659047Y-87354285D01*
X124706666Y-87378095D01*
X124897142Y-87378095D01*
X124135238Y-87616190D02*
X124420952Y-87616190D01*
X124278095Y-87616190D02*
X124278095Y-87116190D01*
X124325714Y-87187619D01*
X124373333Y-87235238D01*
X124420952Y-87259047D01*
X123825714Y-87116190D02*
X123778095Y-87116190D01*
X123730476Y-87140000D01*
X123706666Y-87163809D01*
X123682857Y-87211428D01*
X123659047Y-87306666D01*
X123659047Y-87425714D01*
X123682857Y-87520952D01*
X123706666Y-87568571D01*
X123730476Y-87592380D01*
X123778095Y-87616190D01*
X123825714Y-87616190D01*
X123873333Y-87592380D01*
X123897142Y-87568571D01*
X123920952Y-87520952D01*
X123944761Y-87425714D01*
X123944761Y-87306666D01*
X123920952Y-87211428D01*
X123897142Y-87163809D01*
X123873333Y-87140000D01*
X123825714Y-87116190D01*
D12*
X173961904Y-108085714D02*
X173961904Y-108752380D01*
X174200000Y-107704761D02*
X174438095Y-108419047D01*
X173819047Y-108419047D01*
X173533333Y-107752380D02*
X172866666Y-107752380D01*
X173295238Y-108752380D01*
X172295238Y-107752380D02*
X172200000Y-107752380D01*
X172104761Y-107800000D01*
X172057142Y-107847619D01*
X172009523Y-107942857D01*
X171961904Y-108133333D01*
X171961904Y-108371428D01*
X172009523Y-108561904D01*
X172057142Y-108657142D01*
X172104761Y-108704761D01*
X172200000Y-108752380D01*
X172295238Y-108752380D01*
X172390476Y-108704761D01*
X172438095Y-108657142D01*
X172485714Y-108561904D01*
X172533333Y-108371428D01*
X172533333Y-108133333D01*
X172485714Y-107942857D01*
X172438095Y-107847619D01*
X172390476Y-107800000D01*
X172295238Y-107752380D01*
D13*
X173521428Y-106876190D02*
X173688095Y-106638095D01*
X173807142Y-106876190D02*
X173807142Y-106376190D01*
X173616666Y-106376190D01*
X173569047Y-106400000D01*
X173545238Y-106423809D01*
X173521428Y-106471428D01*
X173521428Y-106542857D01*
X173545238Y-106590476D01*
X173569047Y-106614285D01*
X173616666Y-106638095D01*
X173807142Y-106638095D01*
X173045238Y-106876190D02*
X173330952Y-106876190D01*
X173188095Y-106876190D02*
X173188095Y-106376190D01*
X173235714Y-106447619D01*
X173283333Y-106495238D01*
X173330952Y-106519047D01*
X172569047Y-106876190D02*
X172854761Y-106876190D01*
X172711904Y-106876190D02*
X172711904Y-106376190D01*
X172759523Y-106447619D01*
X172807142Y-106495238D01*
X172854761Y-106519047D01*
D12*
X170390476Y-101535714D02*
X170390476Y-102202380D01*
X170628571Y-101154761D02*
X170866666Y-101869047D01*
X170247619Y-101869047D01*
X169866666Y-102202380D02*
X169866666Y-101202380D01*
X169771428Y-101821428D02*
X169485714Y-102202380D01*
X169485714Y-101535714D02*
X169866666Y-101916666D01*
X169152380Y-101202380D02*
X168485714Y-101202380D01*
X168914285Y-102202380D01*
D13*
X170021428Y-100326190D02*
X170188095Y-100088095D01*
X170307142Y-100326190D02*
X170307142Y-99826190D01*
X170116666Y-99826190D01*
X170069047Y-99850000D01*
X170045238Y-99873809D01*
X170021428Y-99921428D01*
X170021428Y-99992857D01*
X170045238Y-100040476D01*
X170069047Y-100064285D01*
X170116666Y-100088095D01*
X170307142Y-100088095D01*
X169545238Y-100326190D02*
X169830952Y-100326190D01*
X169688095Y-100326190D02*
X169688095Y-99826190D01*
X169735714Y-99897619D01*
X169783333Y-99945238D01*
X169830952Y-99969047D01*
X169354761Y-99873809D02*
X169330952Y-99850000D01*
X169283333Y-99826190D01*
X169164285Y-99826190D01*
X169116666Y-99850000D01*
X169092857Y-99873809D01*
X169069047Y-99921428D01*
X169069047Y-99969047D01*
X169092857Y-100040476D01*
X169378571Y-100326190D01*
X169069047Y-100326190D01*
D12*
X170390476Y-96445714D02*
X170390476Y-97112380D01*
X170628571Y-96064761D02*
X170866666Y-96779047D01*
X170247619Y-96779047D01*
X169866666Y-97112380D02*
X169866666Y-96112380D01*
X169771428Y-96731428D02*
X169485714Y-97112380D01*
X169485714Y-96445714D02*
X169866666Y-96826666D01*
X169152380Y-96112380D02*
X168485714Y-96112380D01*
X168914285Y-97112380D01*
D13*
X170021428Y-95236190D02*
X170188095Y-94998095D01*
X170307142Y-95236190D02*
X170307142Y-94736190D01*
X170116666Y-94736190D01*
X170069047Y-94760000D01*
X170045238Y-94783809D01*
X170021428Y-94831428D01*
X170021428Y-94902857D01*
X170045238Y-94950476D01*
X170069047Y-94974285D01*
X170116666Y-94998095D01*
X170307142Y-94998095D01*
X169545238Y-95236190D02*
X169830952Y-95236190D01*
X169688095Y-95236190D02*
X169688095Y-94736190D01*
X169735714Y-94807619D01*
X169783333Y-94855238D01*
X169830952Y-94879047D01*
X169378571Y-94736190D02*
X169069047Y-94736190D01*
X169235714Y-94926666D01*
X169164285Y-94926666D01*
X169116666Y-94950476D01*
X169092857Y-94974285D01*
X169069047Y-95021904D01*
X169069047Y-95140952D01*
X169092857Y-95188571D01*
X169116666Y-95212380D01*
X169164285Y-95236190D01*
X169307142Y-95236190D01*
X169354761Y-95212380D01*
X169378571Y-95188571D01*
D12*
X174114285Y-125052380D02*
X174590476Y-125052380D01*
X174638095Y-125528571D01*
X174590476Y-125480952D01*
X174495238Y-125433333D01*
X174257142Y-125433333D01*
X174161904Y-125480952D01*
X174114285Y-125528571D01*
X174066666Y-125623809D01*
X174066666Y-125861904D01*
X174114285Y-125957142D01*
X174161904Y-126004761D01*
X174257142Y-126052380D01*
X174495238Y-126052380D01*
X174590476Y-126004761D01*
X174638095Y-125957142D01*
X173209523Y-125052380D02*
X173400000Y-125052380D01*
X173495238Y-125100000D01*
X173542857Y-125147619D01*
X173638095Y-125290476D01*
X173685714Y-125480952D01*
X173685714Y-125861904D01*
X173638095Y-125957142D01*
X173590476Y-126004761D01*
X173495238Y-126052380D01*
X173304761Y-126052380D01*
X173209523Y-126004761D01*
X173161904Y-125957142D01*
X173114285Y-125861904D01*
X173114285Y-125623809D01*
X173161904Y-125528571D01*
X173209523Y-125480952D01*
X173304761Y-125433333D01*
X173495238Y-125433333D01*
X173590476Y-125480952D01*
X173638095Y-125528571D01*
X173685714Y-125623809D01*
X172733333Y-125147619D02*
X172685714Y-125100000D01*
X172590476Y-125052380D01*
X172352380Y-125052380D01*
X172257142Y-125100000D01*
X172209523Y-125147619D01*
X172161904Y-125242857D01*
X172161904Y-125338095D01*
X172209523Y-125480952D01*
X172780952Y-126052380D01*
X172161904Y-126052380D01*
D13*
X177161428Y-125826190D02*
X177328095Y-125588095D01*
X177447142Y-125826190D02*
X177447142Y-125326190D01*
X177256666Y-125326190D01*
X177209047Y-125350000D01*
X177185238Y-125373809D01*
X177161428Y-125421428D01*
X177161428Y-125492857D01*
X177185238Y-125540476D01*
X177209047Y-125564285D01*
X177256666Y-125588095D01*
X177447142Y-125588095D01*
X176685238Y-125826190D02*
X176970952Y-125826190D01*
X176828095Y-125826190D02*
X176828095Y-125326190D01*
X176875714Y-125397619D01*
X176923333Y-125445238D01*
X176970952Y-125469047D01*
X176256666Y-125492857D02*
X176256666Y-125826190D01*
X176375714Y-125302380D02*
X176494761Y-125659523D01*
X176185238Y-125659523D01*
D12*
X174066666Y-123352380D02*
X174638095Y-123352380D01*
X174352380Y-123352380D02*
X174352380Y-122352380D01*
X174447619Y-122495238D01*
X174542857Y-122590476D01*
X174638095Y-122638095D01*
X173733333Y-122352380D02*
X173114285Y-122352380D01*
X173447619Y-122733333D01*
X173304761Y-122733333D01*
X173209523Y-122780952D01*
X173161904Y-122828571D01*
X173114285Y-122923809D01*
X173114285Y-123161904D01*
X173161904Y-123257142D01*
X173209523Y-123304761D01*
X173304761Y-123352380D01*
X173590476Y-123352380D01*
X173685714Y-123304761D01*
X173733333Y-123257142D01*
X172780952Y-122352380D02*
X172161904Y-122352380D01*
X172495238Y-122733333D01*
X172352380Y-122733333D01*
X172257142Y-122780952D01*
X172209523Y-122828571D01*
X172161904Y-122923809D01*
X172161904Y-123161904D01*
X172209523Y-123257142D01*
X172257142Y-123304761D01*
X172352380Y-123352380D01*
X172638095Y-123352380D01*
X172733333Y-123304761D01*
X172780952Y-123257142D01*
D13*
X177121428Y-123116190D02*
X177288095Y-122878095D01*
X177407142Y-123116190D02*
X177407142Y-122616190D01*
X177216666Y-122616190D01*
X177169047Y-122640000D01*
X177145238Y-122663809D01*
X177121428Y-122711428D01*
X177121428Y-122782857D01*
X177145238Y-122830476D01*
X177169047Y-122854285D01*
X177216666Y-122878095D01*
X177407142Y-122878095D01*
X176645238Y-123116190D02*
X176930952Y-123116190D01*
X176788095Y-123116190D02*
X176788095Y-122616190D01*
X176835714Y-122687619D01*
X176883333Y-122735238D01*
X176930952Y-122759047D01*
X176192857Y-122616190D02*
X176430952Y-122616190D01*
X176454761Y-122854285D01*
X176430952Y-122830476D01*
X176383333Y-122806666D01*
X176264285Y-122806666D01*
X176216666Y-122830476D01*
X176192857Y-122854285D01*
X176169047Y-122901904D01*
X176169047Y-123020952D01*
X176192857Y-123068571D01*
X176216666Y-123092380D01*
X176264285Y-123116190D01*
X176383333Y-123116190D01*
X176430952Y-123092380D01*
X176454761Y-123068571D01*
D12*
X174114285Y-127752380D02*
X174590476Y-127752380D01*
X174638095Y-128228571D01*
X174590476Y-128180952D01*
X174495238Y-128133333D01*
X174257142Y-128133333D01*
X174161904Y-128180952D01*
X174114285Y-128228571D01*
X174066666Y-128323809D01*
X174066666Y-128561904D01*
X174114285Y-128657142D01*
X174161904Y-128704761D01*
X174257142Y-128752380D01*
X174495238Y-128752380D01*
X174590476Y-128704761D01*
X174638095Y-128657142D01*
X173209523Y-127752380D02*
X173400000Y-127752380D01*
X173495238Y-127800000D01*
X173542857Y-127847619D01*
X173638095Y-127990476D01*
X173685714Y-128180952D01*
X173685714Y-128561904D01*
X173638095Y-128657142D01*
X173590476Y-128704761D01*
X173495238Y-128752380D01*
X173304761Y-128752380D01*
X173209523Y-128704761D01*
X173161904Y-128657142D01*
X173114285Y-128561904D01*
X173114285Y-128323809D01*
X173161904Y-128228571D01*
X173209523Y-128180952D01*
X173304761Y-128133333D01*
X173495238Y-128133333D01*
X173590476Y-128180952D01*
X173638095Y-128228571D01*
X173685714Y-128323809D01*
X172733333Y-127847619D02*
X172685714Y-127800000D01*
X172590476Y-127752380D01*
X172352380Y-127752380D01*
X172257142Y-127800000D01*
X172209523Y-127847619D01*
X172161904Y-127942857D01*
X172161904Y-128038095D01*
X172209523Y-128180952D01*
X172780952Y-128752380D01*
X172161904Y-128752380D01*
D13*
X177146428Y-128546190D02*
X177313095Y-128308095D01*
X177432142Y-128546190D02*
X177432142Y-128046190D01*
X177241666Y-128046190D01*
X177194047Y-128070000D01*
X177170238Y-128093809D01*
X177146428Y-128141428D01*
X177146428Y-128212857D01*
X177170238Y-128260476D01*
X177194047Y-128284285D01*
X177241666Y-128308095D01*
X177432142Y-128308095D01*
X176670238Y-128546190D02*
X176955952Y-128546190D01*
X176813095Y-128546190D02*
X176813095Y-128046190D01*
X176860714Y-128117619D01*
X176908333Y-128165238D01*
X176955952Y-128189047D01*
X176241666Y-128046190D02*
X176336904Y-128046190D01*
X176384523Y-128070000D01*
X176408333Y-128093809D01*
X176455952Y-128165238D01*
X176479761Y-128260476D01*
X176479761Y-128450952D01*
X176455952Y-128498571D01*
X176432142Y-128522380D01*
X176384523Y-128546190D01*
X176289285Y-128546190D01*
X176241666Y-128522380D01*
X176217857Y-128498571D01*
X176194047Y-128450952D01*
X176194047Y-128331904D01*
X176217857Y-128284285D01*
X176241666Y-128260476D01*
X176289285Y-128236666D01*
X176384523Y-128236666D01*
X176432142Y-128260476D01*
X176455952Y-128284285D01*
X176479761Y-128331904D01*
D12*
X145899453Y-99862141D02*
X145562735Y-100198858D01*
X146168827Y-99996828D02*
X145226018Y-99525423D01*
X145697422Y-100468232D01*
X144855628Y-99895812D02*
X144451567Y-100299873D01*
X145360705Y-100804950D02*
X144653598Y-100097843D01*
X144922972Y-101242682D02*
X144451567Y-100771278D01*
X144518911Y-100838621D02*
X144451567Y-100838621D01*
X144350552Y-100872293D01*
X144249537Y-100973308D01*
X144215865Y-101074324D01*
X144249537Y-101175339D01*
X144619926Y-101545728D01*
X144249537Y-101175339D02*
X144148521Y-101141667D01*
X144047506Y-101175339D01*
X143946491Y-101276354D01*
X143912819Y-101377370D01*
X143946491Y-101478385D01*
X144316880Y-101848774D01*
X143677117Y-102421194D02*
X143778132Y-102387522D01*
X143912819Y-102252835D01*
X143946491Y-102151820D01*
X143912819Y-102050805D01*
X143643445Y-101781431D01*
X143542430Y-101747759D01*
X143441415Y-101781431D01*
X143306728Y-101916118D01*
X143273056Y-102017133D01*
X143306728Y-102118148D01*
X143374071Y-102185492D01*
X143778132Y-101916118D01*
X142599621Y-102623224D02*
X143172041Y-103195644D01*
X143273056Y-103229316D01*
X143340399Y-103229316D01*
X143441415Y-103195644D01*
X143542430Y-103094629D01*
X143576102Y-102993614D01*
X143037354Y-103060957D02*
X143138369Y-103027285D01*
X143273056Y-102892598D01*
X143306728Y-102791583D01*
X143306728Y-102724240D01*
X143273056Y-102623224D01*
X143071025Y-102421194D01*
X142970010Y-102387522D01*
X142902667Y-102387522D01*
X142801651Y-102421194D01*
X142666964Y-102555881D01*
X142633293Y-102656896D01*
X142431262Y-103734392D02*
X142060873Y-103364003D01*
X142027201Y-103262988D01*
X142060873Y-103161972D01*
X142195560Y-103027285D01*
X142296575Y-102993614D01*
X142397590Y-103700720D02*
X142498606Y-103667049D01*
X142666964Y-103498690D01*
X142700636Y-103397675D01*
X142666964Y-103296659D01*
X142599621Y-103229316D01*
X142498606Y-103195644D01*
X142397590Y-103229316D01*
X142229232Y-103397675D01*
X142128216Y-103431346D01*
X141454781Y-103296659D02*
X141017049Y-103734392D01*
X141522125Y-103768064D01*
X141421110Y-103869079D01*
X141387438Y-103970094D01*
X141387438Y-104037438D01*
X141421110Y-104138453D01*
X141589468Y-104306812D01*
X141690484Y-104340484D01*
X141757827Y-104340484D01*
X141858842Y-104306812D01*
X142060873Y-104104781D01*
X142094545Y-104003766D01*
X142094545Y-103936423D01*
X140815018Y-104071110D02*
X140747675Y-104071110D01*
X140646659Y-104104781D01*
X140478301Y-104273140D01*
X140444629Y-104374155D01*
X140444629Y-104441499D01*
X140478301Y-104542514D01*
X140545644Y-104609858D01*
X140680331Y-104677201D01*
X141488453Y-104677201D01*
X141050720Y-105114934D01*
X140040568Y-104710873D02*
X140612988Y-105283293D01*
X140646659Y-105384308D01*
X140646659Y-105451651D01*
X140612988Y-105552667D01*
X140478301Y-105687354D01*
X140377285Y-105721025D01*
X140309942Y-105721025D01*
X140208927Y-105687354D01*
X139636507Y-105114934D01*
X139232446Y-105990399D02*
X139703850Y-106461804D01*
X139131431Y-105552667D02*
X139804866Y-105889384D01*
X139367133Y-106327117D01*
X139064087Y-106562819D02*
X138525339Y-107101567D01*
X138289637Y-107471957D02*
X137952919Y-107808674D01*
X138559011Y-107606644D02*
X137616202Y-107135239D01*
X138087606Y-108078048D01*
X137144797Y-107606644D02*
X137717217Y-108179063D01*
X137750889Y-108280079D01*
X137750889Y-108347422D01*
X137717217Y-108448437D01*
X137582530Y-108583124D01*
X137481515Y-108616796D01*
X137414171Y-108616796D01*
X137313156Y-108583124D01*
X136740736Y-108010705D01*
X136321522Y-97894026D02*
X136893942Y-98466446D01*
X136927614Y-98567461D01*
X136927614Y-98634805D01*
X136893942Y-98735820D01*
X136759255Y-98870507D01*
X136658240Y-98904179D01*
X136590896Y-98904179D01*
X136489881Y-98870507D01*
X135917461Y-98298087D01*
X135917461Y-99712301D02*
X136321522Y-99308240D01*
X136119492Y-99510270D02*
X135412385Y-98803164D01*
X135580744Y-98836835D01*
X135715431Y-98836835D01*
X135816446Y-98803164D01*
X162809523Y-92132380D02*
X163000000Y-92132380D01*
X163095238Y-92180000D01*
X163142857Y-92227619D01*
X163238095Y-92370476D01*
X163285714Y-92560952D01*
X163285714Y-92941904D01*
X163238095Y-93037142D01*
X163190476Y-93084761D01*
X163095238Y-93132380D01*
X162904761Y-93132380D01*
X162809523Y-93084761D01*
X162761904Y-93037142D01*
X162714285Y-92941904D01*
X162714285Y-92703809D01*
X162761904Y-92608571D01*
X162809523Y-92560952D01*
X162904761Y-92513333D01*
X163095238Y-92513333D01*
X163190476Y-92560952D01*
X163238095Y-92608571D01*
X163285714Y-92703809D01*
X162285714Y-93132380D02*
X162285714Y-92132380D01*
X161714285Y-93132380D01*
X161714285Y-92132380D01*
X160714285Y-93132380D02*
X161285714Y-93132380D01*
X161000000Y-93132380D02*
X161000000Y-92132380D01*
X161095238Y-92275238D01*
X161190476Y-92370476D01*
X161285714Y-92418095D01*
X160380952Y-92132380D02*
X159761904Y-92132380D01*
X160095238Y-92513333D01*
X159952380Y-92513333D01*
X159857142Y-92560952D01*
X159809523Y-92608571D01*
X159761904Y-92703809D01*
X159761904Y-92941904D01*
X159809523Y-93037142D01*
X159857142Y-93084761D01*
X159952380Y-93132380D01*
X160238095Y-93132380D01*
X160333333Y-93084761D01*
X160380952Y-93037142D01*
X159428571Y-92132380D02*
X158761904Y-92132380D01*
X159190476Y-93132380D01*
X158428571Y-93084761D02*
X158285714Y-93132380D01*
X158047619Y-93132380D01*
X157952380Y-93084761D01*
X157904761Y-93037142D01*
X157857142Y-92941904D01*
X157857142Y-92846666D01*
X157904761Y-92751428D01*
X157952380Y-92703809D01*
X158047619Y-92656190D01*
X158238095Y-92608571D01*
X158333333Y-92560952D01*
X158380952Y-92513333D01*
X158428571Y-92418095D01*
X158428571Y-92322857D01*
X158380952Y-92227619D01*
X158333333Y-92180000D01*
X158238095Y-92132380D01*
X158000000Y-92132380D01*
X157857142Y-92180000D01*
X157428571Y-93132380D02*
X157428571Y-92132380D01*
X157095238Y-92846666D01*
X156761904Y-92132380D01*
X156761904Y-93132380D01*
X160761904Y-98272380D02*
X160761904Y-99081904D01*
X160714285Y-99177142D01*
X160666666Y-99224761D01*
X160571428Y-99272380D01*
X160380952Y-99272380D01*
X160285714Y-99224761D01*
X160238095Y-99177142D01*
X160190476Y-99081904D01*
X160190476Y-98272380D01*
X159285714Y-98605714D02*
X159285714Y-99272380D01*
X159523809Y-98224761D02*
X159761904Y-98939047D01*
X159142857Y-98939047D01*
X162809523Y-79732380D02*
X163000000Y-79732380D01*
X163095238Y-79780000D01*
X163142857Y-79827619D01*
X163238095Y-79970476D01*
X163285714Y-80160952D01*
X163285714Y-80541904D01*
X163238095Y-80637142D01*
X163190476Y-80684761D01*
X163095238Y-80732380D01*
X162904761Y-80732380D01*
X162809523Y-80684761D01*
X162761904Y-80637142D01*
X162714285Y-80541904D01*
X162714285Y-80303809D01*
X162761904Y-80208571D01*
X162809523Y-80160952D01*
X162904761Y-80113333D01*
X163095238Y-80113333D01*
X163190476Y-80160952D01*
X163238095Y-80208571D01*
X163285714Y-80303809D01*
X162285714Y-80732380D02*
X162285714Y-79732380D01*
X161714285Y-80732380D01*
X161714285Y-79732380D01*
X160714285Y-80732380D02*
X161285714Y-80732380D01*
X161000000Y-80732380D02*
X161000000Y-79732380D01*
X161095238Y-79875238D01*
X161190476Y-79970476D01*
X161285714Y-80018095D01*
X160380952Y-79732380D02*
X159761904Y-79732380D01*
X160095238Y-80113333D01*
X159952380Y-80113333D01*
X159857142Y-80160952D01*
X159809523Y-80208571D01*
X159761904Y-80303809D01*
X159761904Y-80541904D01*
X159809523Y-80637142D01*
X159857142Y-80684761D01*
X159952380Y-80732380D01*
X160238095Y-80732380D01*
X160333333Y-80684761D01*
X160380952Y-80637142D01*
X159428571Y-79732380D02*
X158761904Y-79732380D01*
X159190476Y-80732380D01*
X158428571Y-80684761D02*
X158285714Y-80732380D01*
X158047619Y-80732380D01*
X157952380Y-80684761D01*
X157904761Y-80637142D01*
X157857142Y-80541904D01*
X157857142Y-80446666D01*
X157904761Y-80351428D01*
X157952380Y-80303809D01*
X158047619Y-80256190D01*
X158238095Y-80208571D01*
X158333333Y-80160952D01*
X158380952Y-80113333D01*
X158428571Y-80018095D01*
X158428571Y-79922857D01*
X158380952Y-79827619D01*
X158333333Y-79780000D01*
X158238095Y-79732380D01*
X158000000Y-79732380D01*
X157857142Y-79780000D01*
X157428571Y-80732380D02*
X157428571Y-79732380D01*
X157095238Y-80446666D01*
X156761904Y-79732380D01*
X156761904Y-80732380D01*
X160761904Y-85872380D02*
X160761904Y-86681904D01*
X160714285Y-86777142D01*
X160666666Y-86824761D01*
X160571428Y-86872380D01*
X160380952Y-86872380D01*
X160285714Y-86824761D01*
X160238095Y-86777142D01*
X160190476Y-86681904D01*
X160190476Y-85872380D01*
X159238095Y-85872380D02*
X159714285Y-85872380D01*
X159761904Y-86348571D01*
X159714285Y-86300952D01*
X159619047Y-86253333D01*
X159380952Y-86253333D01*
X159285714Y-86300952D01*
X159238095Y-86348571D01*
X159190476Y-86443809D01*
X159190476Y-86681904D01*
X159238095Y-86777142D01*
X159285714Y-86824761D01*
X159380952Y-86872380D01*
X159619047Y-86872380D01*
X159714285Y-86824761D01*
X159761904Y-86777142D01*
X180716666Y-93132380D02*
X180716666Y-92132380D01*
X180383333Y-92846666D01*
X180050000Y-92132380D01*
X180050000Y-93132380D01*
X179621428Y-92846666D02*
X179145238Y-92846666D01*
X179716666Y-93132380D02*
X179383333Y-92132380D01*
X179050000Y-93132380D01*
X178811904Y-92132380D02*
X178145238Y-93132380D01*
X178145238Y-92132380D02*
X178811904Y-93132380D01*
X177335714Y-92465714D02*
X177335714Y-93132380D01*
X177573809Y-92084761D02*
X177811904Y-92799047D01*
X177192857Y-92799047D01*
X176669047Y-92560952D02*
X176764285Y-92513333D01*
X176811904Y-92465714D01*
X176859523Y-92370476D01*
X176859523Y-92322857D01*
X176811904Y-92227619D01*
X176764285Y-92180000D01*
X176669047Y-92132380D01*
X176478571Y-92132380D01*
X176383333Y-92180000D01*
X176335714Y-92227619D01*
X176288095Y-92322857D01*
X176288095Y-92370476D01*
X176335714Y-92465714D01*
X176383333Y-92513333D01*
X176478571Y-92560952D01*
X176669047Y-92560952D01*
X176764285Y-92608571D01*
X176811904Y-92656190D01*
X176859523Y-92751428D01*
X176859523Y-92941904D01*
X176811904Y-93037142D01*
X176764285Y-93084761D01*
X176669047Y-93132380D01*
X176478571Y-93132380D01*
X176383333Y-93084761D01*
X176335714Y-93037142D01*
X176288095Y-92941904D01*
X176288095Y-92751428D01*
X176335714Y-92656190D01*
X176383333Y-92608571D01*
X176478571Y-92560952D01*
X175335714Y-93132380D02*
X175907142Y-93132380D01*
X175621428Y-93132380D02*
X175621428Y-92132380D01*
X175716666Y-92275238D01*
X175811904Y-92370476D01*
X175907142Y-92418095D01*
X178811904Y-98272380D02*
X178811904Y-99081904D01*
X178764285Y-99177142D01*
X178716666Y-99224761D01*
X178621428Y-99272380D01*
X178430952Y-99272380D01*
X178335714Y-99224761D01*
X178288095Y-99177142D01*
X178240476Y-99081904D01*
X178240476Y-98272380D01*
X177335714Y-98272380D02*
X177526190Y-98272380D01*
X177621428Y-98320000D01*
X177669047Y-98367619D01*
X177764285Y-98510476D01*
X177811904Y-98700952D01*
X177811904Y-99081904D01*
X177764285Y-99177142D01*
X177716666Y-99224761D01*
X177621428Y-99272380D01*
X177430952Y-99272380D01*
X177335714Y-99224761D01*
X177288095Y-99177142D01*
X177240476Y-99081904D01*
X177240476Y-98843809D01*
X177288095Y-98748571D01*
X177335714Y-98700952D01*
X177430952Y-98653333D01*
X177621428Y-98653333D01*
X177716666Y-98700952D01*
X177764285Y-98748571D01*
X177811904Y-98843809D01*
X146505238Y-104490952D02*
X146600476Y-104443333D01*
X146648095Y-104395714D01*
X146695714Y-104300476D01*
X146695714Y-104252857D01*
X146648095Y-104157619D01*
X146600476Y-104110000D01*
X146505238Y-104062380D01*
X146314761Y-104062380D01*
X146219523Y-104110000D01*
X146171904Y-104157619D01*
X146124285Y-104252857D01*
X146124285Y-104300476D01*
X146171904Y-104395714D01*
X146219523Y-104443333D01*
X146314761Y-104490952D01*
X146505238Y-104490952D01*
X146600476Y-104538571D01*
X146648095Y-104586190D01*
X146695714Y-104681428D01*
X146695714Y-104871904D01*
X146648095Y-104967142D01*
X146600476Y-105014761D01*
X146505238Y-105062380D01*
X146314761Y-105062380D01*
X146219523Y-105014761D01*
X146171904Y-104967142D01*
X146124285Y-104871904D01*
X146124285Y-104681428D01*
X146171904Y-104586190D01*
X146219523Y-104538571D01*
X146314761Y-104490952D01*
X145695714Y-105062380D02*
X145695714Y-104062380D01*
X145362380Y-104776666D01*
X145029047Y-104062380D01*
X145029047Y-105062380D01*
X144552857Y-105062380D02*
X144552857Y-104062380D01*
X144552857Y-104538571D02*
X143981428Y-104538571D01*
X143981428Y-105062380D02*
X143981428Y-104062380D01*
X143600476Y-104395714D02*
X143076666Y-104395714D01*
X143600476Y-105062380D01*
X143076666Y-105062380D01*
X145376190Y-107376190D02*
X145376190Y-107852380D01*
X145709523Y-106852380D02*
X145376190Y-107376190D01*
X145042857Y-106852380D01*
X144185714Y-107852380D02*
X144757142Y-107852380D01*
X144471428Y-107852380D02*
X144471428Y-106852380D01*
X144566666Y-106995238D01*
X144661904Y-107090476D01*
X144757142Y-107138095D01*
X151276190Y-100615714D02*
X151276190Y-101282380D01*
X151514285Y-100234761D02*
X151752380Y-100949047D01*
X151133333Y-100949047D01*
X150752380Y-101187142D02*
X150704761Y-101234761D01*
X150752380Y-101282380D01*
X150800000Y-101234761D01*
X150752380Y-101187142D01*
X150752380Y-101282380D01*
X150371428Y-100282380D02*
X149704761Y-100282380D01*
X150133333Y-101282380D01*
X148895238Y-100615714D02*
X148895238Y-101282380D01*
X149323809Y-100615714D02*
X149323809Y-101139523D01*
X149276190Y-101234761D01*
X149180952Y-101282380D01*
X149038095Y-101282380D01*
X148942857Y-101234761D01*
X148895238Y-101187142D01*
D14*
X150433333Y-102935714D02*
X150471428Y-102973809D01*
X150585714Y-103011904D01*
X150661904Y-103011904D01*
X150776190Y-102973809D01*
X150852380Y-102897619D01*
X150890476Y-102821428D01*
X150928571Y-102669047D01*
X150928571Y-102554761D01*
X150890476Y-102402380D01*
X150852380Y-102326190D01*
X150776190Y-102250000D01*
X150661904Y-102211904D01*
X150585714Y-102211904D01*
X150471428Y-102250000D01*
X150433333Y-102288095D01*
X149747619Y-102211904D02*
X149900000Y-102211904D01*
X149976190Y-102250000D01*
X150014285Y-102288095D01*
X150090476Y-102402380D01*
X150128571Y-102554761D01*
X150128571Y-102859523D01*
X150090476Y-102935714D01*
X150052380Y-102973809D01*
X149976190Y-103011904D01*
X149823809Y-103011904D01*
X149747619Y-102973809D01*
X149709523Y-102935714D01*
X149671428Y-102859523D01*
X149671428Y-102669047D01*
X149709523Y-102592857D01*
X149747619Y-102554761D01*
X149823809Y-102516666D01*
X149976190Y-102516666D01*
X150052380Y-102554761D01*
X150090476Y-102592857D01*
X150128571Y-102669047D01*
D12*
X102666666Y-99935000D02*
X102761904Y-99887380D01*
X102904761Y-99887380D01*
X103047619Y-99935000D01*
X103142857Y-100030238D01*
X103190476Y-100125476D01*
X103238095Y-100315952D01*
X103238095Y-100458809D01*
X103190476Y-100649285D01*
X103142857Y-100744523D01*
X103047619Y-100839761D01*
X102904761Y-100887380D01*
X102809523Y-100887380D01*
X102666666Y-100839761D01*
X102619047Y-100792142D01*
X102619047Y-100458809D01*
X102809523Y-100458809D01*
X101619047Y-100887380D02*
X101952380Y-100411190D01*
X102190476Y-100887380D02*
X102190476Y-99887380D01*
X101809523Y-99887380D01*
X101714285Y-99935000D01*
X101666666Y-99982619D01*
X101619047Y-100077857D01*
X101619047Y-100220714D01*
X101666666Y-100315952D01*
X101714285Y-100363571D01*
X101809523Y-100411190D01*
X102190476Y-100411190D01*
X101190476Y-100363571D02*
X100857142Y-100363571D01*
X100714285Y-100887380D02*
X101190476Y-100887380D01*
X101190476Y-99887380D01*
X100714285Y-99887380D01*
X100285714Y-100363571D02*
X99952380Y-100363571D01*
X99809523Y-100887380D02*
X100285714Y-100887380D01*
X100285714Y-99887380D01*
X99809523Y-99887380D01*
X99380952Y-100887380D02*
X99380952Y-99887380D01*
X98809523Y-100887380D01*
X98809523Y-99887380D01*
D14*
X101590476Y-102941904D02*
X101590476Y-102141904D01*
X101400000Y-102141904D01*
X101285714Y-102180000D01*
X101209523Y-102256190D01*
X101171428Y-102332380D01*
X101133333Y-102484761D01*
X101133333Y-102599047D01*
X101171428Y-102751428D01*
X101209523Y-102827619D01*
X101285714Y-102903809D01*
X101400000Y-102941904D01*
X101590476Y-102941904D01*
X100409523Y-102141904D02*
X100790476Y-102141904D01*
X100828571Y-102522857D01*
X100790476Y-102484761D01*
X100714285Y-102446666D01*
X100523809Y-102446666D01*
X100447619Y-102484761D01*
X100409523Y-102522857D01*
X100371428Y-102599047D01*
X100371428Y-102789523D01*
X100409523Y-102865714D01*
X100447619Y-102903809D01*
X100523809Y-102941904D01*
X100714285Y-102941904D01*
X100790476Y-102903809D01*
X100828571Y-102865714D01*
D12*
X109996666Y-101372380D02*
X110568095Y-101372380D01*
X110282380Y-101372380D02*
X110282380Y-100372380D01*
X110377619Y-100515238D01*
X110472857Y-100610476D01*
X110568095Y-100658095D01*
X109091904Y-100372380D02*
X109568095Y-100372380D01*
X109615714Y-100848571D01*
X109568095Y-100800952D01*
X109472857Y-100753333D01*
X109234761Y-100753333D01*
X109139523Y-100800952D01*
X109091904Y-100848571D01*
X109044285Y-100943809D01*
X109044285Y-101181904D01*
X109091904Y-101277142D01*
X109139523Y-101324761D01*
X109234761Y-101372380D01*
X109472857Y-101372380D01*
X109568095Y-101324761D01*
X109615714Y-101277142D01*
X108425238Y-100372380D02*
X108330000Y-100372380D01*
X108234761Y-100420000D01*
X108187142Y-100467619D01*
X108139523Y-100562857D01*
X108091904Y-100753333D01*
X108091904Y-100991428D01*
X108139523Y-101181904D01*
X108187142Y-101277142D01*
X108234761Y-101324761D01*
X108330000Y-101372380D01*
X108425238Y-101372380D01*
X108520476Y-101324761D01*
X108568095Y-101277142D01*
X108615714Y-101181904D01*
X108663333Y-100991428D01*
X108663333Y-100753333D01*
X108615714Y-100562857D01*
X108568095Y-100467619D01*
X108520476Y-100420000D01*
X108425238Y-100372380D01*
D13*
X109651428Y-102796190D02*
X109818095Y-102558095D01*
X109937142Y-102796190D02*
X109937142Y-102296190D01*
X109746666Y-102296190D01*
X109699047Y-102320000D01*
X109675238Y-102343809D01*
X109651428Y-102391428D01*
X109651428Y-102462857D01*
X109675238Y-102510476D01*
X109699047Y-102534285D01*
X109746666Y-102558095D01*
X109937142Y-102558095D01*
X109175238Y-102796190D02*
X109460952Y-102796190D01*
X109318095Y-102796190D02*
X109318095Y-102296190D01*
X109365714Y-102367619D01*
X109413333Y-102415238D01*
X109460952Y-102439047D01*
X109008571Y-102296190D02*
X108675238Y-102296190D01*
X108889523Y-102796190D01*
D12*
X119795238Y-77092380D02*
X120366666Y-77092380D01*
X120080952Y-77092380D02*
X120080952Y-76092380D01*
X120176190Y-76235238D01*
X120271428Y-76330476D01*
X120366666Y-76378095D01*
X119176190Y-76092380D02*
X119080952Y-76092380D01*
X118985714Y-76140000D01*
X118938095Y-76187619D01*
X118890476Y-76282857D01*
X118842857Y-76473333D01*
X118842857Y-76711428D01*
X118890476Y-76901904D01*
X118938095Y-76997142D01*
X118985714Y-77044761D01*
X119080952Y-77092380D01*
X119176190Y-77092380D01*
X119271428Y-77044761D01*
X119319047Y-76997142D01*
X119366666Y-76901904D01*
X119414285Y-76711428D01*
X119414285Y-76473333D01*
X119366666Y-76282857D01*
X119319047Y-76187619D01*
X119271428Y-76140000D01*
X119176190Y-76092380D01*
X118414285Y-77092380D02*
X118414285Y-76092380D01*
X118319047Y-76711428D02*
X118033333Y-77092380D01*
X118033333Y-76425714D02*
X118414285Y-76806666D01*
D13*
X119521428Y-75216190D02*
X119688095Y-74978095D01*
X119807142Y-75216190D02*
X119807142Y-74716190D01*
X119616666Y-74716190D01*
X119569047Y-74740000D01*
X119545238Y-74763809D01*
X119521428Y-74811428D01*
X119521428Y-74882857D01*
X119545238Y-74930476D01*
X119569047Y-74954285D01*
X119616666Y-74978095D01*
X119807142Y-74978095D01*
X119045238Y-75216190D02*
X119330952Y-75216190D01*
X119188095Y-75216190D02*
X119188095Y-74716190D01*
X119235714Y-74787619D01*
X119283333Y-74835238D01*
X119330952Y-74859047D01*
X118759523Y-74930476D02*
X118807142Y-74906666D01*
X118830952Y-74882857D01*
X118854761Y-74835238D01*
X118854761Y-74811428D01*
X118830952Y-74763809D01*
X118807142Y-74740000D01*
X118759523Y-74716190D01*
X118664285Y-74716190D01*
X118616666Y-74740000D01*
X118592857Y-74763809D01*
X118569047Y-74811428D01*
X118569047Y-74835238D01*
X118592857Y-74882857D01*
X118616666Y-74906666D01*
X118664285Y-74930476D01*
X118759523Y-74930476D01*
X118807142Y-74954285D01*
X118830952Y-74978095D01*
X118854761Y-75025714D01*
X118854761Y-75120952D01*
X118830952Y-75168571D01*
X118807142Y-75192380D01*
X118759523Y-75216190D01*
X118664285Y-75216190D01*
X118616666Y-75192380D01*
X118592857Y-75168571D01*
X118569047Y-75120952D01*
X118569047Y-75025714D01*
X118592857Y-74978095D01*
X118616666Y-74954285D01*
X118664285Y-74930476D01*
M02*
