M48
; DRILL file {KiCad 5.1.2+dfsg1-1} date Mon 22 Jul 2019 02:19:20 PM CEST
; FORMAT={2:4/ absolute / inch / suppress leading zeros}
; #@! TF.CreationDate,2019-07-22T14:19:20+02:00
; #@! TF.GenerationSoftware,Kicad,Pcbnew,5.1.2+dfsg1-1
FMAT,2
INCH,TZ
T1C0.0157
T2C0.0350
T3C0.0362
T4C0.0394
T5C0.0433
T6C0.0598
T7C0.0709
T8C0.0917
T9C0.1260
T10C0.0512
T11C0.0709
%
G90
G05
T1
X47903Y-39062
X48189Y-38791
X48327Y-41791
X48492Y-30244
X48660Y-41581
X49327Y-43268
X49429Y-37504
X49783Y-42106
X49881Y-40998
X50019Y-36474
X50020Y-40630
X50084Y-36873
X50332Y-36204
X50463Y-35833
X50539Y-39063
X50747Y-35560
X50854Y-35181
X51835Y-35425
X51913Y-41937
X52083Y-32912
X52281Y-39401
X52287Y-39822
X52680Y-39810
X53224Y-42535
X53917Y-37361
X55067Y-41323
X55168Y-38411
X55285Y-43761
X55458Y-41278
X55503Y-38700
X55886Y-38858
X56472Y-36775
X56599Y-37147
X56703Y-40128
X57011Y-37123
X57409Y-37961
X57695Y-38433
X58307Y-43976
X58346Y-41063
X58980Y-37496
X68650Y-33600
X68250Y-36300
X65197Y-26693
X64921Y-36299
X67480Y-47618
X70472Y-47382
X62972Y-38622
X50217Y-40000
X41870Y-47047
X43917Y-30728
X67146Y-49134
X42776Y-39646
X51319Y-48602
X52736Y-44783
X72736Y-36024
X51732Y-30177
X60512Y-31201
X63839Y-27756
X68287Y-43307
X43307Y-48504
X65512Y-31339
X69213Y-30965
X49469Y-48110
X67972Y-30984
X63130Y-43878
X52579Y-42126
X55079Y-45591
X45827Y-49724
X62913Y-34547
X48937Y-33110
X61693Y-48386
X58445Y-45689
X49488Y-49213
X51319Y-45394
X50059Y-44744
X60512Y-41319
X47264Y-31929
X55039Y-30669
X72008Y-48740
X52205Y-47717
X54429Y-35236
X48150Y-44764
X65827Y-44055
X40354Y-42244
X52795Y-38169
X45118Y-39488
X49094Y-30276
X45236Y-50748
X69650Y-36300
X67087Y-46102
X42539Y-36417
X43819Y-36063
X60512Y-48406
X67106Y-34626
X43287Y-49843
X73563Y-39331
X41555Y-45118
X56339Y-47402
X74311Y-35571
X74961Y-33386
X68091Y-45098
X42323Y-50512
X62795Y-36614
X65787Y-37461
X59528Y-45689
X43937Y-31988
X76100Y-41350
X57461Y-33583
X50551Y-41280
X70650Y-28839
X70610Y-38346
X75551Y-35571
X69902Y-39626
X45118Y-38189
X54331Y-40039
X65709Y-38996
X58504Y-48406
X66043Y-42323
X62461Y-32106
X71378Y-36063
X48937Y-31929
X62992Y-41260
X41181Y-49843
X50394Y-48819
X73500Y-43400
X53091Y-40472
X72185Y-42087
X40906Y-39665
X44370Y-41831
X41437Y-38248
X52677Y-30197
X41181Y-50748
X62835Y-45709
X48327Y-40531
X65571Y-46201
X58661Y-42224
X39016Y-41831
X73350Y-31700
X59547Y-39567
X45354Y-47520
X46496Y-38228
X58622Y-31201
X74400Y-44850
X63661Y-31063
X58760Y-35846
X41811Y-48504
X56634Y-44213
X59587Y-41673
X72000Y-32850
X41732Y-40886
X52185Y-32008
X59508Y-48406
X44547Y-32874
X53661Y-35413
X55512Y-33839
X44528Y-34291
X70925Y-48524
X52480Y-35768
X50394Y-37972
X73484Y-38327
X72224Y-46260
X73976Y-47815
X42756Y-46240
X69665Y-35177
X65433Y-48366
X48780Y-38228
X54016Y-30197
X47283Y-49724
X44134Y-47047
X74823Y-41516
T2
X48000Y-51000
X48000Y-52000
X49000Y-51000
X49000Y-52000
X50000Y-51000
X50000Y-52000
X51000Y-51000
X51000Y-52000
X52000Y-51000
X52000Y-52000
X53000Y-51000
X53000Y-52000
X54000Y-51000
X54000Y-52000
X55000Y-51000
X55000Y-52000
X56000Y-51000
X56000Y-52000
X57000Y-51000
X57000Y-52000
X58000Y-51000
X58000Y-52000
X59000Y-51000
X59000Y-52000
X60000Y-51000
X60000Y-52000
X61000Y-51000
X61000Y-52000
X48000Y-27000
X48000Y-28000
X49000Y-27000
X49000Y-28000
X50000Y-27000
X50000Y-28000
X51000Y-27000
X51000Y-28000
X52000Y-27000
X52000Y-28000
X53000Y-27000
X53000Y-28000
X54000Y-27000
X54000Y-28000
X55000Y-27000
X55000Y-28000
X56000Y-27000
X56000Y-28000
X57000Y-27000
X57000Y-28000
X58000Y-27000
X58000Y-28000
X59000Y-27000
X59000Y-28000
X60000Y-27000
X60000Y-28000
X61000Y-27000
X61000Y-28000
X46000Y-34500
X46000Y-35500
X46000Y-36500
X46000Y-37500
X47000Y-34500
X47000Y-35500
X47000Y-36500
X47000Y-37500
X46000Y-44500
X46000Y-45500
X46000Y-46500
X47000Y-44500
X47000Y-45500
X47000Y-46500
X75000Y-37906
X75000Y-38906
X75000Y-39906
X46000Y-39500
X46000Y-40500
X46000Y-41500
X46000Y-42500
X47000Y-39500
X47000Y-40500
X47000Y-41500
X47000Y-42500
T3
X42433Y-32508
X42433Y-33492
X43220Y-32508
X43220Y-33492
T4
X65457Y-29181
X66457Y-29181
X67457Y-29181
X68457Y-29181
T5
X43941Y-51228
X43941Y-53000
X46500Y-51228
X46500Y-53000
X43941Y-26228
X43941Y-28000
X46500Y-26228
X46500Y-28000
T6
X38665Y-43811
X38665Y-45811
T7
X70000Y-43311
X70000Y-44811
X70000Y-46311
X70248Y-33000
X72000Y-31500
X72000Y-34500
T8
X41366Y-30630
X41366Y-35370
T9
X75000Y-27000
X39000Y-27000
X75000Y-52000
X39000Y-52000
T10
X72000Y-44811
X73500Y-46311
X75500Y-43311
X73500Y-34500
X75504Y-31500
T11
G00X39764Y-37307
M15
G01X39764Y-37543
M16
G05
G00X39764Y-38787
M15
G01X39764Y-39024
M16
G05
G00X39764Y-40268
M15
G01X39764Y-40504
M16
G05
T0
M30
